<svg xmlns="http://www.w3.org/2000/svg" xmlns:xlink="http://www.w3.org/1999/xlink" width="2500" zoomAndPan="magnify" viewBox="0 0 1874.88 1874.999927" height="2500" preserveAspectRatio="xMidYMid meet" version="1.0"><defs><clipPath id="5fc74fa88e"><path d="M 187.488281 187.546875 L 1687.390625 187.546875 L 1687.390625 1687.453125 L 187.488281 1687.453125 Z M 187.488281 187.546875 " clip-rule="nonzero"/></clipPath><clipPath id="8859c47288"><path d="M 937.441406 187.546875 C 523.253906 187.546875 187.488281 523.3125 187.488281 937.5 C 187.488281 1351.6875 523.253906 1687.453125 937.441406 1687.453125 C 1351.625 1687.453125 1687.390625 1351.6875 1687.390625 937.5 C 1687.390625 523.3125 1351.625 187.546875 937.441406 187.546875 Z M 937.441406 187.546875 " clip-rule="nonzero"/></clipPath><clipPath id="bd78a7d1bd"><path d="M 405.5 689.585938 L 1469.390625 689.585938 L 1469.390625 1185.203125 L 405.5 1185.203125 Z M 405.5 689.585938 " clip-rule="nonzero"/></clipPath></defs><g clip-path="url(#5fc74fa88e)"><g clip-path="url(#8859c47288)"><path stroke-linecap="butt" transform="matrix(0.749952, 0, 0, 0.749952, 187.487992, 187.547956)" fill="none" stroke-linejoin="miter" d="M 1000.001863 -0.00144101 C 447.716529 -0.00144101 0.000385441 447.714703 0.000385441 1000.000037 C 0.000385441 1552.285371 447.716529 2000.001515 1000.001863 2000.001515 C 1552.287197 2000.001515 1999.998132 1552.285371 1999.998132 1000.000037 C 1999.998132 447.714703 1552.287197 -0.00144101 1000.001863 -0.00144101 Z M 1000.001863 -0.00144101 " stroke="#49c3fb" stroke-width="140" stroke-opacity="1" stroke-miterlimit="4"/></g></g><g clip-path="url(#bd78a7d1bd)"><path fill="#49c3fb" d="M 701.082031 948.304688 L 720.382812 786.816406 L 715.414062 787.097656 L 674.191406 954.617188 C 674.191406 954.617188 683.273438 947.734375 701.082031 948.304688 Z M 799.972656 785.257812 L 731.574219 785.257812 L 714.875 932.65625 L 799.972656 917.230469 Z M 967.589844 1045.222656 L 865.988281 1045.222656 L 865.988281 1052.035156 L 967.589844 1052.035156 Z M 906.597656 1104.003906 L 906.597656 1118.832031 L 959.1875 1118.832031 L 959.1875 1104.003906 Z M 927.425781 1075.097656 L 906.152344 1075.097656 L 906.152344 1077.691406 C 906.152344 1079.273438 907.449219 1080.570312 909.03125 1080.570312 L 924.542969 1080.570312 C 926.128906 1080.570312 927.425781 1079.273438 927.425781 1077.691406 Z M 906.152344 1072.394531 L 927.425781 1072.394531 L 927.425781 1069.800781 C 927.425781 1068.210938 926.128906 1066.921875 924.542969 1066.921875 L 909.03125 1066.921875 C 907.449219 1066.921875 906.152344 1068.210938 906.152344 1069.800781 Z M 916.175781 904.707031 L 925.339844 904.707031 C 925.265625 899.117188 925.023438 893.523438 924.628906 887.925781 C 923.398438 870.210938 921.117188 853.222656 917.421875 836.605469 C 913.875 820.660156 909.007812 805.007812 902.503906 789.328125 L 813.734375 789.328125 L 813.734375 928.75 C 829.457031 931.074219 844.058594 937.414062 856.074219 946.851562 C 868.042969 956.25 877.460938 968.738281 882.878906 983.40625 L 913.269531 983.40625 C 918.15625 969.625 921.363281 955.652344 923.242188 941.601562 L 916.175781 941.601562 C 912.636719 941.601562 909.734375 938.703125 909.734375 935.164062 L 909.734375 911.140625 C 909.734375 907.601562 912.632812 904.707031 916.175781 904.707031 Z M 916.859375 910.097656 C 916.335938 910.097656 915.910156 910.527344 915.910156 911.054688 L 915.910156 935.253906 C 915.910156 935.777344 916.335938 936.207031 916.859375 936.207031 L 918.847656 936.207031 C 919.375 936.207031 919.804688 935.777344 919.804688 935.253906 L 919.804688 911.054688 C 919.804688 910.527344 919.375 910.097656 918.847656 910.097656 Z M 986.625 1007.03125 C 997.863281 1006.160156 997.242188 1006.867188 1004.222656 999.511719 C 1012.007812 991.304688 1019.765625 985.570312 1027.667969 980.484375 C 1036.171875 975.011719 1044.890625 970.398438 1055.304688 967.5625 C 1087.066406 958.917969 1095.605469 963.65625 1115.609375 967.519531 C 1120.132812 968.394531 1126.503906 962.867188 1126.503906 962.867188 C 1126.503906 962.867188 1107.667969 957.222656 1097.453125 956.089844 C 1052.773438 951.121094 1014.625 973.378906 986.625 1007.03125 Z M 971.367188 955.601562 C 967.449219 955.601562 964.273438 958.773438 964.273438 962.695312 C 964.273438 966.613281 967.449219 969.789062 971.367188 969.789062 C 975.285156 969.789062 978.460938 966.613281 978.460938 962.695312 C 978.460938 958.773438 975.285156 955.601562 971.367188 955.601562 Z M 974.144531 1012.523438 C 972.332031 1013.199219 971.40625 1015.222656 972.089844 1017.042969 C 972.765625 1018.859375 974.789062 1019.777344 976.605469 1019.097656 C 978.425781 1018.417969 979.34375 1016.398438 978.664062 1014.578125 C 977.984375 1012.765625 975.960938 1011.84375 974.144531 1012.523438 Z M 1053 907.695312 C 1050.632812 907.394531 1048.472656 909.070312 1048.171875 911.433594 C 1047.871094 913.800781 1049.542969 915.960938 1051.910156 916.261719 C 1054.273438 916.5625 1056.4375 914.886719 1056.734375 912.523438 C 1057.035156 910.160156 1055.363281 907.996094 1053 907.695312 Z M 961.503906 927.570312 C 958.292969 927.570312 955.6875 930.175781 955.6875 933.390625 C 955.6875 936.601562 958.292969 939.207031 961.503906 939.207031 C 964.71875 939.207031 967.324219 936.601562 967.324219 933.390625 C 967.324219 930.175781 964.71875 927.570312 961.503906 927.570312 Z M 1294.050781 1070.664062 L 1241.421875 1022.410156 L 1244.507812 1067.757812 C 1270.210938 1087.265625 1293.296875 1104.765625 1304.539062 1113.214844 C 1305.433594 1106.949219 1306.464844 1099.839844 1307.53125 1092.433594 C 1297.527344 1085.402344 1292.015625 1081.734375 1294.050781 1070.664062 Z M 1316.277344 1126.3125 C 1312.167969 1124.777344 1307.589844 1126.859375 1306.054688 1130.96875 C 1304.515625 1135.082031 1306.601562 1139.660156 1310.710938 1141.195312 C 1314.820312 1142.734375 1319.402344 1140.648438 1320.9375 1136.539062 C 1322.472656 1132.429688 1320.386719 1127.847656 1316.277344 1126.3125 Z M 1302.34375 1065.910156 C 1300.46875 1065.210938 1298.386719 1066.160156 1297.683594 1068.03125 C 1296.984375 1069.902344 1297.933594 1071.988281 1299.804688 1072.691406 C 1301.679688 1073.390625 1303.761719 1072.4375 1304.464844 1070.566406 C 1305.164062 1068.695312 1304.214844 1066.609375 1302.34375 1065.910156 Z M 1236.269531 1006.332031 C 1234.683594 1005.742188 1232.917969 1006.546875 1232.324219 1008.128906 C 1231.734375 1009.714844 1232.535156 1011.480469 1234.121094 1012.074219 C 1235.707031 1012.664062 1237.476562 1011.863281 1238.0625 1010.277344 C 1238.660156 1008.691406 1237.855469 1006.925781 1236.269531 1006.332031 Z M 1240.859375 1078.472656 C 1239.277344 1077.882812 1237.511719 1078.6875 1236.917969 1080.269531 C 1236.324219 1081.855469 1237.128906 1083.621094 1238.714844 1084.214844 C 1240.300781 1084.808594 1242.066406 1084.003906 1242.660156 1082.417969 C 1243.25 1080.832031 1242.449219 1079.066406 1240.859375 1078.472656 Z M 1361.089844 994.316406 C 1358.660156 993.40625 1355.953125 994.644531 1355.046875 997.070312 C 1354.136719 999.503906 1355.371094 1002.207031 1357.800781 1003.117188 C 1360.230469 1004.023438 1362.9375 1002.792969 1363.84375 1000.363281 C 1364.753906 997.933594 1363.519531 995.226562 1361.089844 994.316406 Z M 434.230469 1018.929688 L 421.316406 981.964844 C 422.578125 980.769531 423.441406 979.285156 423.882812 977.699219 C 431.535156 975.847656 452.222656 971.652344 470.972656 975.058594 L 466.25 1001.511719 C 466.199219 1001.796875 466.152344 1002.078125 466.109375 1002.359375 C 457.84375 1006.707031 449.242188 1011.023438 440.789062 1015.058594 C 438.75 1016.03125 436.449219 1017.347656 434.230469 1018.929688 Z M 450.707031 905.875 L 496.964844 793.945312 C 499.933594 794.433594 502.980469 794.59375 505.632812 794.585938 L 495.292969 844.867188 L 474.152344 957.230469 L 472.660156 965.59375 C 451.882812 961.882812 429.449219 966.441406 421.332031 968.410156 L 421.234375 968.316406 L 442.960938 915.742188 L 445.359375 916.734375 C 446.667969 917.277344 448.179688 916.644531 448.722656 915.339844 L 451.417969 908.816406 C 451.851562 907.765625 451.53125 906.582031 450.707031 905.875 Z M 413.058594 972.808594 C 414.371094 971.808594 416.242188 972.0625 417.238281 973.371094 C 418.238281 974.6875 417.980469 976.558594 416.671875 977.554688 C 415.359375 978.550781 413.488281 978.296875 412.488281 976.988281 C 411.492188 975.675781 411.746094 973.804688 413.058594 972.808594 Z M 478.914062 969.925781 C 480.226562 968.929688 482.097656 969.183594 483.09375 970.496094 C 484.09375 971.804688 483.835938 973.675781 482.527344 974.675781 C 481.214844 975.671875 479.34375 975.421875 478.347656 974.109375 C 477.347656 972.796875 477.605469 970.925781 478.914062 969.925781 Z M 473.835938 1006 C 475.371094 1004.828125 477.566406 1005.128906 478.734375 1006.664062 C 479.90625 1008.203125 479.609375 1010.394531 478.070312 1011.566406 C 476.535156 1012.734375 474.339844 1012.433594 473.171875 1010.898438 C 472 1009.363281 472.300781 1007.167969 473.835938 1006 Z M 430.824219 1024.140625 C 432.359375 1022.972656 434.554688 1023.269531 435.722656 1024.808594 C 436.894531 1026.34375 436.597656 1028.539062 435.058594 1029.707031 C 433.523438 1030.878906 431.328125 1030.578125 430.160156 1029.042969 C 428.988281 1027.503906 429.285156 1025.3125 430.824219 1024.140625 Z M 492.933594 779.285156 C 494.332031 778.222656 496.335938 778.492188 497.402344 779.894531 C 498.46875 781.296875 498.195312 783.296875 496.792969 784.363281 C 495.390625 785.429688 493.390625 785.15625 492.324219 783.757812 C 491.257812 782.355469 491.53125 780.351562 492.933594 779.285156 Z M 551.746094 699.074219 C 553.800781 697.507812 556.742188 697.90625 558.304688 699.964844 C 559.871094 702.023438 559.472656 704.964844 557.414062 706.527344 C 555.355469 708.09375 552.417969 707.695312 550.851562 705.636719 C 549.285156 703.578125 549.6875 700.640625 551.746094 699.074219 Z M 551.90625 749.714844 C 555.277344 749.714844 558.011719 752.441406 558.011719 755.8125 C 558.011719 759.183594 555.277344 761.917969 551.90625 761.917969 C 548.539062 761.917969 545.804688 759.183594 545.804688 755.8125 C 545.804688 752.441406 548.539062 749.714844 551.90625 749.714844 Z M 616.144531 1094.117188 C 618.886719 1094.117188 621.113281 1096.335938 621.113281 1099.082031 C 621.113281 1101.824219 618.886719 1104.046875 616.144531 1104.046875 C 613.402344 1104.046875 611.179688 1101.824219 611.179688 1099.082031 C 611.179688 1096.335938 613.402344 1094.117188 616.144531 1094.117188 Z M 616.144531 949.371094 C 618.886719 949.371094 621.113281 951.59375 621.113281 954.339844 C 621.113281 957.082031 618.886719 959.304688 616.144531 959.304688 C 613.402344 959.304688 611.179688 957.082031 611.179688 954.339844 C 611.179688 951.59375 613.402344 949.371094 616.144531 949.371094 Z M 628.246094 889.570312 C 619.632812 873.148438 608.757812 851.246094 597.375 830.96875 C 583.335938 805.964844 572.667969 781.101562 566.40625 765.410156 C 568.710938 757.964844 569.195312 752.34375 569.3125 749.863281 C 569.351562 749.058594 569.308594 746.980469 569.203125 744.09375 L 592.597656 798.335938 L 590.179688 799.378906 C 588.878906 799.941406 588.273438 801.464844 588.835938 802.765625 L 591.628906 809.242188 C 592.082031 810.285156 593.15625 810.878906 594.234375 810.785156 Z M 656.136719 934.277344 L 656.121094 934.242188 L 656.105469 934.199219 L 656.078125 934.136719 L 656.066406 934.121094 L 656.03125 934.042969 L 655.992188 933.964844 L 655.980469 933.933594 L 655.953125 933.890625 L 655.925781 933.832031 L 655.914062 933.8125 L 655.871094 933.738281 L 655.871094 933.734375 L 655.832031 933.664062 L 655.808594 933.636719 L 655.78125 933.59375 L 655.753906 933.539062 L 655.738281 933.519531 L 655.691406 933.449219 L 655.691406 933.445312 L 655.644531 933.378906 L 655.628906 933.355469 L 655.558594 933.261719 L 655.542969 933.242188 L 655.492188 933.171875 L 655.421875 933.085938 L 655.382812 933.042969 L 655.347656 933 L 655.328125 932.976562 L 655.273438 932.917969 L 655.214844 932.855469 L 655.195312 932.832031 L 655.117188 932.753906 L 655.097656 932.730469 L 655.039062 932.675781 L 655.035156 932.671875 L 654.972656 932.613281 L 654.953125 932.597656 L 654.910156 932.554688 L 654.871094 932.523438 L 654.84375 932.5 L 654.785156 932.449219 L 654.777344 932.449219 L 654.714844 932.394531 L 654.699219 932.378906 L 654.648438 932.34375 L 654.609375 932.3125 L 654.582031 932.292969 L 654.519531 932.246094 L 654.511719 932.238281 L 654.4375 932.191406 L 654.425781 932.183594 L 654.371094 932.144531 L 654.332031 932.121094 L 654.296875 932.097656 L 654.234375 932.058594 L 654.226562 932.054688 L 654.152344 932.011719 L 654.136719 932 L 654.078125 931.96875 L 654.039062 931.945312 L 654.003906 931.925781 L 653.9375 931.894531 L 653.925781 931.886719 L 653.847656 931.851562 L 653.835938 931.84375 L 653.773438 931.8125 L 653.734375 931.796875 L 653.691406 931.777344 L 653.628906 931.75 L 653.613281 931.742188 L 653.535156 931.710938 L 653.523438 931.707031 L 653.453125 931.679688 L 653.417969 931.667969 L 653.375 931.652344 L 653.308594 931.625 L 653.292969 931.621094 L 653.207031 931.59375 L 653.199219 931.59375 L 653.125 931.570312 L 653.089844 931.558594 L 653.042969 931.546875 L 652.976562 931.53125 L 652.957031 931.523438 L 652.871094 931.503906 L 652.863281 931.503906 L 652.785156 931.484375 L 652.75 931.476562 L 652.699219 931.464844 L 652.636719 931.457031 L 652.613281 931.449219 L 652.523438 931.4375 L 652.519531 931.4375 L 652.433594 931.425781 L 652.402344 931.417969 L 652.347656 931.410156 L 652.285156 931.40625 L 652.257812 931.402344 L 652.167969 931.394531 L 652.078125 931.390625 L 652.046875 931.390625 L 651.988281 931.382812 L 651.628906 931.382812 L 651.566406 931.390625 L 651.539062 931.390625 L 651.453125 931.394531 L 651.445312 931.394531 L 651.359375 931.402344 L 651.328125 931.40625 L 651.273438 931.410156 L 651.210938 931.417969 L 651.1875 931.425781 L 651.101562 931.433594 L 651.09375 931.4375 L 651.011719 931.449219 L 650.976562 931.457031 L 650.925781 931.464844 L 650.863281 931.476562 L 650.84375 931.480469 L 650.761719 931.5 L 650.75 931.503906 L 650.671875 931.519531 L 650.636719 931.53125 L 650.59375 931.539062 L 650.527344 931.558594 L 650.507812 931.5625 L 650.414062 931.59375 L 650.34375 931.613281 L 650.304688 931.625 L 650.265625 931.640625 L 650.199219 931.667969 L 650.183594 931.671875 L 650.105469 931.699219 L 650.089844 931.707031 L 650.027344 931.734375 L 649.984375 931.75 L 649.878906 931.796875 L 649.871094 931.800781 L 649.792969 931.835938 L 649.777344 931.84375 L 649.71875 931.871094 L 649.675781 931.894531 L 649.574219 931.945312 L 649.570312 931.949219 L 649.496094 931.992188 L 649.476562 932 L 649.421875 932.03125 L 649.378906 932.058594 L 649.351562 932.074219 L 649.28125 932.121094 L 649.277344 932.121094 L 649.210938 932.167969 L 649.140625 932.214844 L 649.097656 932.246094 L 649.070312 932.261719 L 648.9375 932.363281 L 648.917969 932.378906 L 648.871094 932.414062 L 648.828125 932.449219 L 648.808594 932.46875 L 648.742188 932.523438 L 648.683594 932.578125 L 648.660156 932.597656 L 648.621094 932.632812 L 648.578125 932.675781 L 648.558594 932.691406 L 648.496094 932.75 L 648.496094 932.753906 L 648.382812 932.867188 L 648.339844 932.917969 L 648.328125 932.929688 L 648.269531 932.996094 L 648.265625 933 L 648.21875 933.058594 L 648.191406 933.085938 L 648.164062 933.121094 L 648.121094 933.171875 L 648.113281 933.1875 L 648.0625 933.253906 L 648.054688 933.261719 L 648.011719 933.320312 L 647.964844 933.390625 L 647.925781 933.445312 L 647.863281 933.539062 L 647.824219 933.601562 L 647.800781 933.636719 L 647.78125 933.671875 L 647.746094 933.734375 L 647.738281 933.746094 L 647.695312 933.820312 L 647.6875 933.832031 L 647.65625 933.890625 L 647.636719 933.933594 L 647.621094 933.96875 L 647.585938 934.035156 L 647.582031 934.042969 L 647.546875 934.117188 L 647.535156 934.136719 L 647.511719 934.195312 C 647.261719 934.769531 647.125 935.398438 647.125 936.066406 C 647.125 938.648438 649.222656 940.746094 651.808594 940.746094 C 654.390625 940.746094 656.488281 938.648438 656.488281 936.066406 C 656.488281 935.429688 656.363281 934.828125 656.136719 934.277344 Z M 524.613281 713.304688 L 524.667969 713.347656 L 528.929688 716.664062 C 527.125 719.023438 525.464844 721.175781 524.136719 722.886719 C 520.980469 726.957031 519.351562 730.261719 518.242188 733.898438 C 512.785156 740.066406 499.824219 753.347656 491.347656 765.433594 C 492.425781 744.246094 499.910156 735.019531 513.742188 723.007812 C 517.089844 720.105469 520.726562 716.945312 524.613281 713.304688 Z M 488 770.558594 C 485.667969 774.445312 484.042969 778.066406 483.570312 781.097656 C 483.09375 784.191406 483.796875 786.601562 485.265625 788.46875 L 438.78125 900.949219 C 437.703125 900.867188 436.636719 901.476562 436.203125 902.53125 L 433.507812 909.050781 C 432.96875 910.359375 433.597656 911.871094 434.90625 912.414062 L 437.296875 913.402344 L 415.625 965.847656 C 413.402344 965.667969 411.109375 966.273438 409.195312 967.726562 C 405.078125 970.859375 404.28125 976.734375 407.414062 980.847656 C 409.074219 983.035156 411.507812 984.28125 414.039062 984.503906 L 428.03125 1024.550781 C 426.316406 1026.621094 425.042969 1028.890625 424.5625 1031.269531 C 421.28125 1047.582031 418.175781 1079.078125 417.480469 1084.105469 L 417.484375 1084.101562 C 395.949219 1142.539062 455.390625 1140.738281 495.265625 1125.007812 C 503.214844 1121.871094 514.054688 1116.058594 524.105469 1110.28125 L 525.117188 1109.695312 L 525.464844 1109.496094 L 526.140625 1109.101562 L 526.261719 1109.035156 L 526.8125 1108.710938 L 527.394531 1108.371094 L 527.484375 1108.320312 L 528.148438 1107.929688 L 528.515625 1107.714844 L 528.8125 1107.542969 L 529.46875 1107.152344 L 529.628906 1107.058594 L 530.121094 1106.765625 L 530.726562 1106.410156 L 530.769531 1106.386719 L 531.414062 1106.003906 L 531.808594 1105.769531 L 532.050781 1105.621094 L 532.683594 1105.246094 L 532.882812 1105.128906 L 533.308594 1104.871094 L 533.414062 1104.808594 L 534.546875 1104.132812 L 534.96875 1103.878906 L 535.152344 1103.765625 L 535.753906 1103.402344 L 535.980469 1103.265625 L 536.347656 1103.042969 L 536.933594 1102.6875 L 536.976562 1102.660156 L 537.511719 1102.335938 L 537.949219 1102.070312 L 538.085938 1101.992188 L 538.644531 1101.648438 L 538.898438 1101.496094 L 539.199219 1101.308594 L 539.75 1100.972656 L 539.824219 1100.925781 L 540.285156 1100.644531 L 540.722656 1100.375 L 540.8125 1100.320312 L 541.332031 1100.003906 L 541.597656 1099.839844 L 541.839844 1099.6875 L 542.339844 1099.378906 L 542.445312 1099.316406 L 542.832031 1099.078125 L 543.261719 1098.8125 L 543.308594 1098.78125 L 543.777344 1098.492188 L 544.046875 1098.324219 L 544.234375 1098.207031 L 544.679688 1097.929688 L 544.800781 1097.855469 L 545.113281 1097.660156 L 545.523438 1097.40625 L 545.535156 1097.394531 L 545.945312 1097.140625 L 546.210938 1096.976562 L 546.34375 1096.890625 L 546.730469 1096.648438 L 546.863281 1096.566406 L 547.105469 1096.414062 L 547.464844 1096.1875 L 547.476562 1096.179688 L 547.8125 1095.96875 L 548.058594 1095.816406 L 548.144531 1095.757812 L 548.464844 1095.554688 L 548.59375 1095.476562 L 548.769531 1095.363281 L 549.0625 1095.179688 L 549.09375 1095.160156 L 549.339844 1095.003906 L 549.550781 1094.871094 L 549.601562 1094.835938 L 549.847656 1094.683594 L 549.964844 1094.605469 L 550.082031 1094.53125 L 550.296875 1094.394531 L 550.332031 1094.375 L 550.5 1094.265625 L 550.65625 1094.164062 L 550.683594 1094.152344 L 550.851562 1094.042969 L 550.9375 1093.992188 L 551 1093.949219 L 551.136719 1093.859375 L 551.167969 1093.839844 L 551.253906 1093.785156 L 551.347656 1093.726562 L 551.351562 1093.722656 L 551.4375 1093.667969 L 551.476562 1093.640625 L 551.5 1093.625 L 551.546875 1093.597656 L 551.558594 1093.589844 L 551.574219 1093.578125 L 551.585938 1093.574219 L 551.261719 1093.410156 L 571.171875 1085.058594 C 572.972656 1084.304688 572.1875 1082.828125 569.796875 1082.992188 L 535.128906 1085.359375 C 517.917969 1076.761719 492.777344 1064.195312 488.246094 1061.878906 C 481.242188 1058.292969 478.828125 1053.714844 472.953125 1041.777344 L 472.785156 1041.4375 L 472.730469 1041.328125 L 472.675781 1041.222656 L 472.675781 1041.21875 L 472.617188 1041.105469 L 472.394531 1040.675781 L 472.335938 1040.558594 L 472.277344 1040.449219 L 472.164062 1040.234375 L 472.113281 1040.140625 L 472.105469 1040.128906 L 472.046875 1040.023438 L 471.992188 1039.917969 L 471.828125 1039.617188 L 471.816406 1039.597656 L 471.585938 1039.183594 L 471.539062 1039.101562 L 471.527344 1039.082031 L 471.292969 1038.671875 L 471.117188 1038.367188 L 471.058594 1038.269531 L 470.996094 1038.171875 L 470.957031 1038.101562 L 470.941406 1038.070312 L 470.878906 1037.972656 L 470.820312 1037.871094 L 470.761719 1037.777344 L 470.703125 1037.675781 L 470.644531 1037.582031 L 470.582031 1037.484375 L 470.464844 1037.289062 L 470.402344 1037.195312 L 470.367188 1037.136719 L 470.34375 1037.101562 L 470.285156 1037.003906 L 470.226562 1036.910156 L 470.164062 1036.816406 L 470.105469 1036.726562 L 470.070312 1036.671875 L 470.042969 1036.628906 L 469.863281 1036.351562 L 469.804688 1036.261719 L 469.769531 1036.214844 L 469.746094 1036.171875 L 469.625 1035.988281 L 469.5 1035.808594 L 469.472656 1035.765625 L 469.382812 1035.632812 L 469.320312 1035.542969 L 469.261719 1035.453125 L 469.203125 1035.367188 C 472.875 1031.734375 477.789062 1026.699219 481.476562 1022.277344 C 484.332031 1018.855469 485.902344 1015.253906 486.445312 1011.914062 C 489.988281 1006.199219 492.855469 997.382812 493.84375 993.78125 C 510.578125 932.738281 524.394531 873.515625 546.429688 813.847656 C 548.34375 808.675781 550.480469 803.5 552.652344 798.453125 C 560.59375 830.867188 571.886719 878.828125 578.074219 913.558594 C 586.160156 958.910156 592.464844 1020.601562 594.746094 1044.398438 C 595.179688 1048.914062 596.0625 1052.832031 597.277344 1056.1875 L 597.277344 1071.078125 C 597.277344 1075.574219 599.457031 1079.585938 602.808594 1082.113281 L 602.808594 1110.859375 L 605.785156 1110.859375 L 605.785156 1126.328125 L 600.019531 1126.328125 C 596.480469 1126.328125 593.582031 1129.222656 593.582031 1132.761719 L 593.582031 1133.550781 C 593.582031 1134.261719 594.164062 1134.839844 594.867188 1134.839844 L 637.421875 1134.839844 C 638.128906 1134.839844 638.707031 1134.261719 638.707031 1133.550781 L 638.707031 1132.761719 C 638.707031 1129.222656 635.8125 1126.328125 632.273438 1126.328125 L 626.503906 1126.328125 L 626.503906 1110.859375 L 629.484375 1110.859375 L 629.484375 1084.894531 L 640.3125 1084.894531 C 640.296875 1084.15625 640.28125 1083.414062 640.28125 1082.671875 C 640.28125 1054.871094 650.699219 1029.507812 667.832031 1010.25 L 634.800781 1010.25 C 634.824219 1005.886719 634.835938 1001.347656 634.835938 996.714844 C 634.835938 972.910156 648.976562 958.414062 656.515625 948.015625 C 659.960938 943.265625 662.433594 938.445312 661.589844 933.976562 C 661.222656 932.054688 660.316406 930.203125 659.085938 928.449219 L 606.082031 805.667969 C 606.894531 804.953125 607.195312 803.761719 606.742188 802.714844 L 603.949219 796.238281 C 603.386719 794.9375 601.863281 794.335938 600.5625 794.894531 L 598.222656 795.902344 L 568.359375 726.664062 C 567.695312 714.816406 566.820312 701.992188 566.167969 697.273438 C 565.917969 695.46875 565.90625 695.070312 564.105469 694.273438 C 561.71875 693.210938 556.039062 690.8125 553.945312 689.929688 C 549.699219 688.132812 545.378906 693.816406 543.464844 696.78125 C 541.347656 700.066406 537.460938 705.375 533.511719 710.625 L 529.324219 707.367188 C 527.867188 706.230469 525.75 706.496094 524.617188 707.949219 L 524.082031 708.636719 C 523.761719 709.050781 523.554688 709.507812 523.453125 709.984375 C 519.195312 714.019531 515.25 717.445312 511.644531 720.578125 C 496.03125 734.132812 488.082031 744.210938 488 770.558594 Z M 1038.457031 917.097656 L 1044.375 917.789062 C 1042.957031 915.816406 1042.25 913.324219 1042.582031 910.722656 C 1043.273438 905.269531 1048.257812 901.414062 1053.710938 902.109375 C 1058.402344 902.707031 1061.914062 906.480469 1062.359375 911 L 1084.171875 922.648438 L 1085.851562 922.863281 C 1081.578125 911.609375 1076.707031 900.285156 1073.320312 894.285156 C 1069.617188 887.726562 1066.238281 883.628906 1063.019531 881.308594 C 1061.917969 880.511719 1060.804688 879.859375 1059.710938 879.335938 C 1056.015625 877.582031 1052.433594 877.34375 1049.359375 878.148438 C 1046.3125 878.941406 1043.742188 880.753906 1042.039062 883.117188 C 1041.609375 883.710938 1041.234375 884.34375 1040.921875 885.007812 C 1038.871094 889.332031 1038.863281 896.347656 1038.855469 903.855469 C 1038.855469 907.0625 1038.851562 910.367188 1038.695312 913.566406 C 1038.636719 914.738281 1038.5625 915.917969 1038.457031 917.097656 Z M 1011.050781 944.550781 C 1011.40625 944.566406 1011.753906 944.582031 1012.097656 944.589844 C 1011.753906 944.582031 1011.40625 944.566406 1011.050781 944.550781 Z M 949.746094 1005.894531 L 938.226562 1005.894531 C 936.734375 1005.894531 935.515625 1007.113281 935.515625 1008.609375 L 935.515625 1013.503906 C 935.515625 1014.996094 936.734375 1016.21875 938.226562 1016.21875 L 952.71875 1016.21875 C 954.214844 1016.21875 955.433594 1014.996094 955.433594 1013.503906 L 955.433594 1008.609375 C 955.433594 1007.199219 954.351562 1006.035156 952.972656 1005.90625 C 952.890625 1005.898438 952.804688 1005.894531 952.71875 1005.894531 Z M 1033.609375 926.078125 C 1033.507812 926.425781 1033.402344 926.769531 1033.292969 927.105469 C 1033.402344 926.769531 1033.507812 926.425781 1033.609375 926.078125 Z M 1034.4375 922.683594 C 1034.324219 923.25 1034.203125 923.816406 1034.066406 924.375 C 1034.203125 923.816406 1034.324219 923.25 1034.4375 922.683594 Z M 1035.011719 919.113281 C 1034.914062 919.875 1034.804688 920.628906 1034.675781 921.382812 C 1034.804688 920.632812 1034.914062 919.875 1035.011719 919.113281 Z M 1051.121094 1046.800781 C 1041.941406 1055.976562 1036.261719 1068.660156 1036.261719 1082.671875 C 1036.261719 1096.675781 1041.941406 1109.363281 1051.121094 1118.539062 C 1060.296875 1127.71875 1072.980469 1133.394531 1086.988281 1133.394531 C 1100.996094 1133.394531 1113.679688 1127.71875 1122.855469 1118.539062 C 1132.039062 1109.363281 1137.714844 1096.675781 1137.714844 1082.671875 C 1137.714844 1068.660156 1132.039062 1055.976562 1122.855469 1046.800781 C 1113.679688 1037.621094 1100.996094 1031.941406 1086.988281 1031.941406 C 1072.980469 1031.941406 1060.296875 1037.621094 1051.121094 1046.800781 Z M 1073.0625 1068.738281 L 1073.054688 1068.738281 C 1069.492188 1072.296875 1067.285156 1077.226562 1067.285156 1082.671875 C 1067.285156 1088.109375 1069.492188 1093.039062 1073.054688 1096.597656 L 1073.0625 1096.601562 C 1076.621094 1100.164062 1081.546875 1102.371094 1086.988281 1102.371094 C 1092.425781 1102.371094 1097.359375 1100.164062 1100.921875 1096.601562 L 1100.921875 1096.597656 C 1104.484375 1093.039062 1106.691406 1088.109375 1106.691406 1082.671875 C 1106.691406 1077.226562 1104.484375 1072.296875 1100.921875 1068.738281 C 1097.359375 1065.175781 1092.425781 1062.96875 1086.988281 1062.96875 C 1081.546875 1062.96875 1076.621094 1065.175781 1073.0625 1068.738281 Z M 1086.988281 1043.160156 C 1076.082031 1043.160156 1066.203125 1047.585938 1059.054688 1054.734375 C 1051.90625 1061.882812 1047.480469 1071.761719 1047.480469 1082.671875 C 1047.480469 1093.578125 1051.90625 1103.457031 1059.054688 1110.601562 C 1066.203125 1117.753906 1076.082031 1122.179688 1086.988281 1122.179688 C 1097.898438 1122.179688 1107.777344 1117.753906 1114.925781 1110.601562 C 1122.074219 1103.457031 1126.496094 1093.578125 1126.496094 1082.671875 C 1126.496094 1071.761719 1122.074219 1061.882812 1114.925781 1054.734375 C 1107.777344 1047.585938 1097.898438 1043.160156 1086.988281 1043.160156 Z M 1079.734375 980.085938 C 1077.332031 980.253906 1074.949219 980.507812 1072.585938 980.835938 C 1070.203125 981.167969 1067.847656 981.585938 1065.519531 982.082031 L 1064.992188 982.191406 L 1065.34375 982.601562 L 1067.714844 985.34375 L 1067.722656 985.351562 C 1068.683594 986.472656 1069.109375 987.890625 1069.011719 989.269531 C 1068.910156 990.644531 1068.289062 991.984375 1067.171875 992.953125 L 1067.164062 992.957031 L 1067.132812 992.988281 L 1067.128906 992.988281 C 1066.011719 993.9375 1064.605469 994.351562 1063.238281 994.25 C 1061.859375 994.148438 1060.515625 993.523438 1059.542969 992.402344 L 1054.40625 986.453125 C 1054.289062 986.316406 1054.179688 986.175781 1054.082031 986.035156 C 1053.980469 985.890625 1053.886719 985.742188 1053.796875 985.585938 L 1053.667969 985.355469 L 1053.414062 985.441406 C 1051.136719 986.226562 1048.902344 987.085938 1046.707031 988.019531 C 1044.507812 988.957031 1042.335938 989.972656 1040.214844 991.0625 L 1039.730469 991.304688 L 1040.175781 991.609375 L 1043.183594 993.648438 L 1043.191406 993.652344 L 1043.191406 993.65625 C 1044.414062 994.492188 1045.191406 995.746094 1045.449219 997.105469 C 1045.710938 998.457031 1045.457031 999.914062 1044.625 1001.140625 L 1044.621094 1001.144531 L 1044.5625 1001.230469 L 1044.5625 1001.234375 C 1043.730469 1002.410156 1042.496094 1003.160156 1041.164062 1003.410156 C 1039.808594 1003.667969 1038.347656 1003.414062 1037.121094 1002.582031 L 1030.613281 998.164062 C 1030.472656 998.070312 1030.332031 997.960938 1030.195312 997.847656 C 1030.058594 997.730469 1029.929688 997.617188 1029.8125 997.492188 L 1029.625 997.304688 L 1029.40625 997.453125 C 1027.425781 998.792969 1025.496094 1000.203125 1023.617188 1001.671875 C 1021.726562 1003.152344 1019.894531 1004.699219 1018.121094 1006.296875 L 1017.71875 1006.660156 L 1018.230469 1006.835938 L 1021.636719 1008.023438 L 1021.644531 1008.023438 C 1023.042969 1008.511719 1024.117188 1009.53125 1024.71875 1010.769531 C 1025.324219 1012.015625 1025.453125 1013.484375 1024.96875 1014.886719 L 1024.964844 1014.894531 C 1024.476562 1016.292969 1023.460938 1017.367188 1022.210938 1017.972656 C 1020.96875 1018.574219 1019.496094 1018.703125 1018.09375 1018.214844 L 1010.664062 1015.632812 C 1010.492188 1015.574219 1010.332031 1015.507812 1010.183594 1015.441406 C 1010.023438 1015.367188 1009.867188 1015.285156 1009.722656 1015.199219 L 1009.492188 1015.066406 L 1009.320312 1015.265625 C 1007.753906 1017.070312 1006.25 1018.929688 1004.808594 1020.835938 C 1003.375 1022.742188 1002.003906 1024.710938 1000.695312 1026.726562 L 1000.394531 1027.175781 L 1000.9375 1027.214844 L 1004.542969 1027.480469 L 1004.554688 1027.480469 C 1006.027344 1027.589844 1007.332031 1028.292969 1008.234375 1029.335938 C 1009.132812 1030.382812 1009.644531 1031.761719 1009.535156 1033.242188 L 1009.535156 1033.257812 C 1009.421875 1034.734375 1008.722656 1036.035156 1007.675781 1036.941406 C 1006.628906 1037.839844 1005.238281 1038.347656 1003.753906 1038.242188 L 995.914062 1037.667969 C 995.738281 1037.65625 995.5625 1037.636719 995.394531 1037.605469 C 995.21875 1037.578125 995.042969 1037.539062 994.875 1037.488281 L 994.621094 1037.417969 L 994.503906 1037.65625 C 993.460938 1039.796875 992.484375 1041.984375 991.585938 1044.214844 C 990.695312 1046.425781 989.878906 1048.683594 989.136719 1050.96875 L 988.96875 1051.484375 L 989.5 1051.378906 L 993.070312 1050.699219 L 993.070312 1050.695312 L 993.082031 1050.695312 C 994.539062 1050.421875 995.972656 1050.757812 997.117188 1051.535156 C 998.253906 1052.3125 999.105469 1053.519531 999.378906 1054.972656 L 999.378906 1054.980469 L 999.386719 1054.992188 L 999.40625 1055.089844 C 999.648438 1056.511719 999.300781 1057.910156 998.542969 1059.027344 C 997.769531 1060.171875 996.554688 1061.019531 995.097656 1061.300781 L 987.375 1062.777344 C 987.195312 1062.8125 987.019531 1062.839844 986.851562 1062.851562 C 986.675781 1062.867188 986.5 1062.875 986.328125 1062.875 L 986.058594 1062.871094 L 986.011719 1063.136719 C 985.558594 1065.464844 985.1875 1067.832031 984.898438 1070.21875 C 984.613281 1072.574219 984.402344 1074.957031 984.28125 1077.363281 L 984.257812 1077.902344 L 984.742188 1077.667969 L 987.988281 1076.101562 L 988 1076.09375 C 989.339844 1075.449219 990.816406 1075.40625 992.121094 1075.859375 C 993.421875 1076.308594 994.550781 1077.257812 995.199219 1078.582031 L 995.203125 1078.59375 L 995.285156 1078.78125 L 995.292969 1078.78125 C 995.855469 1080.066406 995.871094 1081.472656 995.4375 1082.71875 C 994.980469 1084.027344 994.03125 1085.164062 992.695312 1085.8125 L 985.621094 1089.238281 L 985.617188 1089.238281 C 985.453125 1089.3125 985.296875 1089.382812 985.144531 1089.441406 L 985.144531 1089.4375 C 984.980469 1089.496094 984.8125 1089.550781 984.648438 1089.597656 L 984.386719 1089.664062 L 984.40625 1089.925781 C 984.574219 1092.332031 984.828125 1094.722656 985.164062 1097.085938 C 985.492188 1099.460938 985.902344 1101.8125 986.398438 1104.136719 L 986.511719 1104.664062 L 986.921875 1104.308594 L 989.664062 1101.941406 L 989.675781 1101.933594 C 990.796875 1100.964844 992.214844 1100.542969 993.589844 1100.644531 C 994.964844 1100.746094 996.304688 1101.367188 997.269531 1102.480469 L 997.277344 1102.492188 L 997.316406 1102.539062 L 997.324219 1102.542969 C 998.261719 1103.652344 998.667969 1105.054688 998.570312 1106.414062 C 998.472656 1107.792969 997.84375 1109.140625 996.726562 1110.105469 L 990.773438 1115.25 C 990.636719 1115.363281 990.496094 1115.476562 990.351562 1115.578125 C 990.207031 1115.675781 990.058594 1115.773438 989.90625 1115.859375 L 989.671875 1115.988281 L 989.757812 1116.246094 C 990.539062 1118.511719 991.40625 1120.75 992.335938 1122.949219 C 993.277344 1125.148438 994.292969 1127.316406 995.382812 1129.445312 L 995.625 1129.925781 L 995.929688 1129.476562 L 997.96875 1126.476562 L 997.976562 1126.464844 L 997.980469 1126.460938 C 998.8125 1125.238281 1000.070312 1124.46875 1001.421875 1124.207031 C 1002.777344 1123.949219 1004.234375 1124.199219 1005.453125 1125.027344 L 1005.464844 1125.035156 L 1005.550781 1125.09375 L 1005.554688 1125.09375 C 1006.730469 1125.925781 1007.476562 1127.164062 1007.730469 1128.488281 C 1007.988281 1129.847656 1007.734375 1131.308594 1006.902344 1132.53125 L 1002.484375 1139.042969 C 1002.386719 1139.1875 1002.273438 1139.332031 1002.167969 1139.460938 C 1002.054688 1139.597656 1001.9375 1139.730469 1001.816406 1139.847656 L 1001.625 1140.035156 L 1001.773438 1140.253906 C 1003.117188 1142.234375 1004.527344 1144.167969 1005.996094 1146.042969 C 1007.476562 1147.933594 1009.019531 1149.765625 1010.617188 1151.539062 L 1010.980469 1151.9375 L 1011.15625 1151.425781 L 1012.339844 1148.019531 L 1012.34375 1148.015625 L 1012.34375 1148.003906 C 1012.835938 1146.613281 1013.851562 1145.535156 1015.089844 1144.9375 C 1016.332031 1144.335938 1017.800781 1144.203125 1019.199219 1144.691406 L 1019.214844 1144.691406 L 1019.246094 1144.703125 C 1020.632812 1145.199219 1021.695312 1146.207031 1022.289062 1147.4375 C 1022.894531 1148.683594 1023.027344 1150.160156 1022.539062 1151.558594 L 1019.957031 1158.992188 C 1019.898438 1159.160156 1019.828125 1159.324219 1019.757812 1159.480469 L 1019.757812 1159.484375 C 1019.6875 1159.636719 1019.609375 1159.789062 1019.519531 1159.9375 L 1019.382812 1160.167969 L 1019.585938 1160.339844 C 1021.390625 1161.90625 1023.25 1163.410156 1025.164062 1164.851562 C 1027.0625 1166.28125 1029.023438 1167.652344 1031.039062 1168.964844 L 1031.496094 1169.261719 L 1031.535156 1168.71875 L 1031.800781 1165.113281 L 1031.800781 1165.097656 C 1031.914062 1163.621094 1032.613281 1162.324219 1033.660156 1161.421875 C 1034.699219 1160.519531 1036.082031 1160.011719 1037.554688 1160.121094 L 1037.582031 1160.121094 L 1037.640625 1160.125 C 1039.09375 1160.25 1040.371094 1160.949219 1041.257812 1161.980469 C 1042.164062 1163.023438 1042.671875 1164.414062 1042.566406 1165.894531 L 1041.992188 1173.738281 C 1041.980469 1173.921875 1041.957031 1174.097656 1041.925781 1174.269531 C 1041.898438 1174.449219 1041.855469 1174.621094 1041.8125 1174.785156 L 1041.742188 1175.042969 L 1041.980469 1175.15625 C 1044.121094 1176.199219 1046.308594 1177.171875 1048.535156 1178.070312 C 1050.746094 1178.964844 1053 1179.785156 1055.289062 1180.519531 L 1055.800781 1180.6875 L 1055.699219 1180.15625 L 1055.019531 1176.589844 L 1055.011719 1176.574219 L 1055.011719 1176.566406 C 1054.742188 1175.117188 1055.085938 1173.679688 1055.855469 1172.542969 C 1056.628906 1171.402344 1057.835938 1170.554688 1059.285156 1170.277344 L 1059.488281 1170.238281 L 1059.492188 1170.238281 C 1060.882812 1170.019531 1062.253906 1170.371094 1063.34375 1171.109375 C 1064.492188 1171.886719 1065.339844 1173.097656 1065.617188 1174.554688 L 1067.097656 1182.28125 C 1067.132812 1182.460938 1067.15625 1182.640625 1067.171875 1182.808594 C 1067.1875 1182.984375 1067.195312 1183.160156 1067.195312 1183.332031 L 1067.195312 1183.597656 L 1067.457031 1183.648438 C 1069.785156 1184.097656 1072.152344 1184.46875 1074.535156 1184.761719 C 1076.894531 1185.046875 1079.277344 1185.253906 1081.6875 1185.375 L 1082.222656 1185.402344 L 1081.988281 1184.917969 L 1080.417969 1181.671875 L 1080.410156 1181.65625 C 1079.765625 1180.320312 1079.730469 1178.84375 1080.179688 1177.539062 C 1080.632812 1176.234375 1081.578125 1175.101562 1082.90625 1174.457031 L 1082.90625 1174.460938 L 1082.914062 1174.457031 L 1083.105469 1174.367188 L 1083.105469 1174.363281 C 1084.390625 1173.800781 1085.796875 1173.785156 1087.039062 1174.21875 C 1088.347656 1174.671875 1089.484375 1175.625 1090.128906 1176.953125 L 1093.554688 1184.039062 C 1093.632812 1184.191406 1093.703125 1184.355469 1093.761719 1184.515625 C 1093.816406 1184.679688 1093.875 1184.847656 1093.914062 1185.015625 L 1093.984375 1185.273438 L 1094.246094 1185.253906 C 1096.65625 1185.082031 1099.046875 1184.828125 1101.410156 1184.5 C 1103.78125 1184.167969 1106.136719 1183.753906 1108.457031 1183.261719 L 1108.984375 1183.144531 L 1108.628906 1182.738281 L 1106.257812 1179.988281 L 1106.25 1179.980469 C 1105.285156 1178.859375 1104.867188 1177.441406 1104.964844 1176.066406 C 1105.066406 1174.691406 1105.6875 1173.351562 1106.804688 1172.390625 L 1106.816406 1172.378906 L 1106.929688 1172.277344 C 1108.03125 1171.375 1109.402344 1170.988281 1110.734375 1171.085938 C 1112.113281 1171.1875 1113.457031 1171.808594 1114.429688 1172.933594 L 1119.570312 1178.878906 C 1119.683594 1179.015625 1119.796875 1179.15625 1119.894531 1179.300781 L 1119.898438 1179.296875 C 1120.003906 1179.449219 1120.097656 1179.601562 1120.179688 1179.75 L 1120.3125 1179.988281 L 1120.566406 1179.898438 C 1122.835938 1179.117188 1125.070312 1178.253906 1127.269531 1177.320312 C 1129.46875 1176.382812 1131.640625 1175.367188 1133.769531 1174.277344 L 1134.246094 1174.03125 L 1133.800781 1173.730469 L 1130.792969 1171.6875 L 1130.785156 1171.683594 L 1130.777344 1171.675781 C 1129.558594 1170.84375 1128.785156 1169.585938 1128.523438 1168.234375 C 1128.269531 1166.878906 1128.519531 1165.421875 1129.351562 1164.199219 L 1129.359375 1164.183594 L 1129.414062 1164.101562 C 1130.246094 1162.925781 1131.480469 1162.175781 1132.8125 1161.925781 C 1134.171875 1161.664062 1135.628906 1161.917969 1136.859375 1162.75 L 1143.363281 1167.171875 C 1143.503906 1167.265625 1143.644531 1167.371094 1143.78125 1167.484375 C 1143.921875 1167.605469 1144.050781 1167.722656 1144.167969 1167.84375 L 1144.359375 1168.03125 L 1144.582031 1167.882812 C 1146.554688 1166.542969 1148.488281 1165.132812 1150.367188 1163.664062 C 1152.253906 1162.183594 1154.089844 1160.640625 1155.855469 1159.042969 L 1156.257812 1158.683594 L 1155.75 1158.5 L 1152.335938 1157.316406 L 1152.332031 1157.316406 L 1152.320312 1157.3125 L 1152.320312 1157.308594 C 1150.925781 1156.820312 1149.851562 1155.804688 1149.257812 1154.566406 C 1148.65625 1153.328125 1148.527344 1151.855469 1149.007812 1150.464844 L 1149.011719 1150.460938 L 1149.015625 1150.441406 L 1149.066406 1150.292969 C 1149.570312 1148.964844 1150.558594 1147.941406 1151.761719 1147.363281 C 1153.007812 1146.761719 1154.484375 1146.628906 1155.882812 1147.113281 L 1163.3125 1149.699219 C 1163.480469 1149.757812 1163.644531 1149.824219 1163.800781 1149.894531 C 1163.953125 1149.960938 1164.109375 1150.042969 1164.261719 1150.136719 L 1164.488281 1150.269531 L 1164.664062 1150.070312 C 1166.234375 1148.261719 1167.742188 1146.402344 1169.171875 1144.492188 C 1170.609375 1142.589844 1171.980469 1140.625 1173.289062 1138.617188 L 1173.582031 1138.164062 L 1173.046875 1138.121094 L 1169.433594 1137.859375 L 1169.417969 1137.859375 C 1167.945312 1137.746094 1166.644531 1137.042969 1165.746094 1136 C 1164.84375 1134.957031 1164.335938 1133.574219 1164.441406 1132.097656 L 1164.441406 1132.09375 L 1164.445312 1132.078125 L 1164.457031 1131.949219 L 1164.449219 1131.949219 C 1164.589844 1130.527344 1165.285156 1129.273438 1166.300781 1128.394531 C 1167.34375 1127.492188 1168.738281 1126.980469 1170.214844 1127.085938 L 1178.058594 1127.664062 C 1178.242188 1127.675781 1178.421875 1127.699219 1178.589844 1127.726562 C 1178.765625 1127.757812 1178.933594 1127.796875 1179.109375 1127.839844 L 1179.363281 1127.914062 L 1179.476562 1127.675781 C 1180.523438 1125.535156 1181.496094 1123.347656 1182.394531 1121.121094 C 1183.285156 1118.910156 1184.105469 1116.65625 1184.84375 1114.371094 L 1185.007812 1113.855469 L 1184.476562 1113.957031 L 1180.921875 1114.636719 L 1180.910156 1114.636719 L 1180.902344 1114.640625 C 1179.445312 1114.917969 1178.003906 1114.570312 1176.863281 1113.796875 C 1175.722656 1113.027344 1174.878906 1111.824219 1174.601562 1110.375 L 1174.597656 1110.363281 L 1174.554688 1110.089844 L 1174.546875 1110.089844 C 1174.355469 1108.722656 1174.703125 1107.386719 1175.433594 1106.308594 C 1176.207031 1105.167969 1177.421875 1104.316406 1178.878906 1104.03125 L 1186.605469 1102.5625 C 1186.785156 1102.527344 1186.96875 1102.496094 1187.132812 1102.480469 C 1187.308594 1102.464844 1187.484375 1102.460938 1187.65625 1102.460938 L 1187.917969 1102.464844 L 1187.972656 1102.199219 C 1188.421875 1099.867188 1188.792969 1097.496094 1189.082031 1095.109375 C 1189.367188 1092.753906 1189.570312 1090.375 1189.695312 1087.972656 L 1189.726562 1087.433594 L 1189.238281 1087.671875 L 1185.980469 1089.246094 L 1185.96875 1089.25 C 1184.636719 1089.890625 1183.164062 1089.929688 1181.859375 1089.476562 C 1180.558594 1089.023438 1179.425781 1088.078125 1178.78125 1086.746094 L 1178.78125 1086.742188 L 1178.691406 1086.554688 L 1178.683594 1086.554688 C 1178.121094 1085.261719 1178.101562 1083.863281 1178.539062 1082.617188 C 1178.992188 1081.308594 1179.941406 1080.171875 1181.277344 1079.523438 L 1188.359375 1076.101562 C 1188.507812 1076.023438 1188.671875 1075.953125 1188.835938 1075.894531 L 1188.839844 1075.894531 C 1189 1075.832031 1189.167969 1075.777344 1189.332031 1075.734375 L 1189.589844 1075.667969 L 1189.570312 1075.402344 C 1189.402344 1073.003906 1189.152344 1070.613281 1188.824219 1068.253906 C 1188.488281 1065.875 1188.074219 1063.523438 1187.578125 1061.195312 L 1187.464844 1060.671875 L 1187.058594 1061.023438 L 1184.3125 1063.394531 L 1184.3125 1063.398438 L 1184.300781 1063.40625 C 1183.175781 1064.371094 1181.761719 1064.789062 1180.390625 1064.691406 C 1179.011719 1064.589844 1177.675781 1063.972656 1176.710938 1062.851562 L 1176.699219 1062.839844 L 1176.574219 1062.695312 C 1175.691406 1061.597656 1175.308594 1060.246094 1175.40625 1058.921875 C 1175.507812 1057.542969 1176.128906 1056.199219 1177.25 1055.226562 L 1183.203125 1050.085938 C 1183.339844 1049.96875 1183.480469 1049.855469 1183.625 1049.753906 C 1183.773438 1049.648438 1183.921875 1049.554688 1184.074219 1049.46875 L 1184.304688 1049.335938 L 1184.214844 1049.089844 C 1183.433594 1046.816406 1182.574219 1044.578125 1181.636719 1042.382812 C 1180.699219 1040.179688 1179.683594 1038.015625 1178.597656 1035.890625 L 1178.351562 1035.410156 L 1178.050781 1035.859375 L 1176.007812 1038.863281 L 1175.996094 1038.878906 C 1175.164062 1040.097656 1173.90625 1040.871094 1172.554688 1041.128906 C 1171.199219 1041.386719 1169.746094 1041.132812 1168.527344 1040.304688 L 1168.519531 1040.300781 L 1168.507812 1040.292969 L 1168.398438 1040.222656 L 1168.390625 1040.222656 C 1167.234375 1039.386719 1166.5 1038.164062 1166.246094 1036.847656 C 1165.984375 1035.492188 1166.242188 1034.03125 1167.070312 1032.796875 L 1171.492188 1026.296875 C 1171.589844 1026.152344 1171.695312 1026.011719 1171.808594 1025.871094 L 1171.804688 1025.871094 C 1171.921875 1025.734375 1172.039062 1025.605469 1172.164062 1025.484375 L 1172.351562 1025.296875 L 1172.199219 1025.078125 C 1170.863281 1023.097656 1169.449219 1021.167969 1167.984375 1019.296875 C 1166.503906 1017.40625 1164.957031 1015.574219 1163.363281 1013.800781 L 1162.996094 1013.402344 L 1162.820312 1013.910156 L 1161.636719 1017.320312 L 1161.632812 1017.335938 L 1161.628906 1017.335938 C 1161.140625 1018.734375 1160.125 1019.800781 1158.882812 1020.398438 C 1157.648438 1020.996094 1156.183594 1021.128906 1154.789062 1020.644531 L 1154.773438 1020.640625 L 1154.632812 1020.59375 L 1154.628906 1020.59375 C 1153.296875 1020.09375 1152.269531 1019.097656 1151.6875 1017.890625 C 1151.082031 1016.648438 1150.953125 1015.175781 1151.433594 1013.773438 L 1154.019531 1006.34375 C 1154.082031 1006.171875 1154.148438 1006.007812 1154.21875 1005.851562 C 1154.289062 1005.703125 1154.367188 1005.546875 1154.453125 1005.390625 L 1154.589844 1005.167969 L 1154.386719 1004.996094 C 1152.585938 1003.429688 1150.726562 1001.925781 1148.820312 1000.484375 C 1146.917969 999.054688 1144.953125 997.683594 1142.933594 996.371094 L 1142.480469 996.074219 L 1142.441406 996.613281 L 1142.179688 1000.222656 L 1142.179688 1000.226562 L 1142.175781 1000.234375 C 1142.066406 1001.714844 1141.359375 1003.011719 1140.320312 1003.914062 C 1139.277344 1004.816406 1137.894531 1005.320312 1136.417969 1005.214844 L 1136.414062 1005.214844 L 1136.394531 1005.207031 L 1136.25 1005.199219 C 1134.832031 1005.058594 1133.589844 1004.367188 1132.710938 1003.355469 C 1131.808594 1002.308594 1131.300781 1000.914062 1131.410156 999.4375 L 1131.988281 991.597656 C 1132 991.414062 1132.019531 991.234375 1132.046875 991.066406 C 1132.074219 990.898438 1132.113281 990.722656 1132.164062 990.546875 L 1132.230469 990.292969 L 1131.996094 990.179688 C 1129.855469 989.136719 1127.667969 988.164062 1125.441406 987.261719 C 1123.226562 986.375 1120.976562 985.554688 1118.691406 984.816406 L 1118.175781 984.648438 L 1118.277344 985.179688 L 1118.957031 988.746094 L 1118.957031 988.75 L 1118.960938 988.753906 C 1119.238281 990.210938 1118.890625 991.648438 1118.121094 992.792969 C 1117.34375 993.9375 1116.136719 994.785156 1114.683594 995.058594 L 1114.675781 995.058594 L 1114.527344 995.089844 C 1113.117188 995.324219 1111.734375 994.976562 1110.632812 994.222656 C 1109.484375 993.449219 1108.632812 992.234375 1108.355469 990.78125 L 1106.878906 983.054688 C 1106.847656 982.875 1106.820312 982.703125 1106.804688 982.53125 C 1106.785156 982.355469 1106.78125 982.179688 1106.78125 982.003906 L 1106.78125 981.738281 L 1106.519531 981.691406 C 1104.1875 981.238281 1101.816406 980.867188 1099.425781 980.578125 C 1097.074219 980.292969 1094.691406 980.082031 1092.285156 979.960938 L 1091.75 979.9375 L 1091.988281 980.421875 L 1093.554688 983.671875 L 1093.558594 983.675781 L 1093.558594 983.679688 C 1094.207031 985.015625 1094.25 986.496094 1093.796875 987.800781 C 1093.34375 989.101562 1092.398438 990.234375 1091.0625 990.882812 L 1091.058594 990.882812 L 1091.054688 990.886719 C 1089.722656 991.53125 1088.242188 991.574219 1086.933594 991.117188 C 1085.628906 990.660156 1084.488281 989.710938 1083.84375 988.378906 L 1080.417969 981.300781 C 1080.34375 981.144531 1080.273438 980.984375 1080.21875 980.824219 C 1080.160156 980.664062 1080.105469 980.496094 1080.0625 980.324219 L 1079.996094 980.066406 Z M 713.390625 1046.800781 C 704.210938 1055.976562 698.53125 1068.660156 698.53125 1082.671875 C 698.53125 1096.675781 704.210938 1109.363281 713.390625 1118.539062 C 722.566406 1127.71875 735.253906 1133.394531 749.257812 1133.394531 C 763.269531 1133.394531 775.953125 1127.71875 785.125 1118.539062 C 794.308594 1109.363281 799.988281 1096.675781 799.988281 1082.671875 C 799.988281 1068.660156 794.308594 1055.976562 785.125 1046.800781 C 775.953125 1037.621094 763.269531 1031.941406 749.257812 1031.941406 C 735.253906 1031.941406 722.566406 1037.621094 713.390625 1046.800781 Z M 735.328125 1068.738281 C 731.765625 1072.296875 729.558594 1077.226562 729.558594 1082.671875 C 729.558594 1088.109375 731.765625 1093.039062 735.328125 1096.597656 L 735.328125 1096.601562 C 738.890625 1100.164062 743.816406 1102.371094 749.257812 1102.371094 C 754.699219 1102.371094 759.628906 1100.164062 763.191406 1096.601562 L 763.191406 1096.597656 C 766.753906 1093.039062 768.960938 1088.109375 768.960938 1082.671875 C 768.960938 1077.226562 766.753906 1072.296875 763.191406 1068.738281 C 759.628906 1065.175781 754.699219 1062.96875 749.257812 1062.96875 C 743.816406 1062.96875 738.890625 1065.175781 735.328125 1068.738281 Z M 749.257812 1043.160156 C 738.355469 1043.160156 728.472656 1047.585938 721.324219 1054.734375 C 714.179688 1061.882812 709.753906 1071.761719 709.753906 1082.671875 C 709.753906 1093.578125 714.179688 1103.457031 721.324219 1110.601562 C 728.472656 1117.753906 738.355469 1122.179688 749.257812 1122.179688 C 760.167969 1122.179688 770.046875 1117.753906 777.195312 1110.601562 C 784.34375 1103.457031 788.765625 1093.578125 788.765625 1082.671875 C 788.765625 1071.761719 784.34375 1061.882812 777.195312 1054.734375 C 770.046875 1047.585938 760.167969 1043.160156 749.257812 1043.160156 Z M 742.003906 980.085938 C 739.601562 980.253906 737.21875 980.507812 734.855469 980.835938 C 732.476562 981.167969 730.121094 981.585938 727.789062 982.082031 L 727.261719 982.191406 L 727.613281 982.601562 L 729.984375 985.34375 L 729.992188 985.351562 C 730.957031 986.472656 731.378906 987.890625 731.28125 989.269531 C 731.183594 990.644531 730.558594 991.984375 729.4375 992.953125 L 729.429688 992.957031 L 729.402344 992.988281 L 729.398438 992.988281 C 728.28125 993.9375 726.875 994.351562 725.507812 994.25 C 724.132812 994.148438 722.789062 993.523438 721.816406 992.402344 L 716.675781 986.453125 C 716.558594 986.316406 716.449219 986.175781 716.351562 986.035156 C 716.25 985.890625 716.15625 985.742188 716.070312 985.585938 L 715.9375 985.355469 L 715.683594 985.441406 C 713.40625 986.226562 711.171875 987.085938 708.980469 988.019531 C 706.78125 988.957031 704.609375 989.972656 702.484375 991.0625 L 702.003906 991.304688 L 702.449219 991.609375 L 705.453125 993.648438 L 705.460938 993.652344 L 705.464844 993.65625 C 706.6875 994.492188 707.460938 995.746094 707.71875 997.105469 C 707.980469 998.457031 707.726562 999.914062 706.898438 1001.140625 L 706.890625 1001.144531 L 706.832031 1001.230469 L 706.832031 1001.234375 C 706.003906 1002.410156 704.765625 1003.160156 703.4375 1003.410156 C 702.078125 1003.667969 700.617188 1003.414062 699.390625 1002.582031 L 692.886719 998.164062 C 692.742188 998.070312 692.605469 997.960938 692.464844 997.847656 C 692.328125 997.730469 692.199219 997.617188 692.085938 997.492188 L 691.894531 997.304688 L 691.675781 997.453125 C 689.695312 998.792969 687.765625 1000.203125 685.890625 1001.671875 C 683.996094 1003.152344 682.164062 1004.699219 680.394531 1006.296875 L 679.988281 1006.660156 L 680.5 1006.835938 L 683.902344 1008.023438 L 683.914062 1008.023438 C 685.3125 1008.511719 686.390625 1009.53125 686.988281 1010.769531 C 687.59375 1012.015625 687.722656 1013.484375 687.242188 1014.886719 L 687.238281 1014.886719 L 687.234375 1014.894531 C 686.75 1016.292969 685.730469 1017.367188 684.484375 1017.972656 C 683.242188 1018.574219 681.765625 1018.703125 680.363281 1018.214844 L 672.9375 1015.632812 C 672.765625 1015.574219 672.605469 1015.507812 672.453125 1015.441406 C 672.292969 1015.367188 672.140625 1015.285156 671.992188 1015.199219 L 671.761719 1015.066406 L 671.589844 1015.265625 C 670.023438 1017.070312 668.519531 1018.929688 667.082031 1020.835938 C 665.648438 1022.742188 664.273438 1024.710938 662.964844 1026.726562 L 662.667969 1027.175781 L 663.207031 1027.214844 L 666.8125 1027.480469 L 666.824219 1027.480469 C 668.300781 1027.589844 669.601562 1028.292969 670.507812 1029.335938 C 671.40625 1030.382812 671.914062 1031.761719 671.808594 1033.242188 L 671.808594 1033.257812 C 671.695312 1034.734375 670.992188 1036.035156 669.949219 1036.941406 C 668.898438 1037.839844 667.507812 1038.347656 666.027344 1038.242188 L 658.1875 1037.667969 C 658.011719 1037.65625 657.832031 1037.636719 657.660156 1037.605469 C 657.488281 1037.578125 657.316406 1037.539062 657.144531 1037.488281 L 656.890625 1037.417969 L 656.773438 1037.65625 C 655.730469 1039.796875 654.757812 1041.984375 653.855469 1044.214844 C 652.96875 1046.425781 652.148438 1048.683594 651.40625 1050.96875 L 651.242188 1051.484375 L 651.773438 1051.378906 L 655.339844 1050.699219 L 655.34375 1050.695312 L 655.351562 1050.695312 C 656.808594 1050.421875 658.246094 1050.757812 659.386719 1051.535156 C 660.523438 1052.3125 661.375 1053.519531 661.652344 1054.972656 L 661.652344 1054.980469 L 661.65625 1054.992188 L 661.675781 1055.089844 C 661.917969 1056.511719 661.570312 1057.910156 660.8125 1059.027344 C 660.039062 1060.171875 658.824219 1061.019531 657.371094 1061.300781 L 649.644531 1062.777344 C 649.464844 1062.8125 649.289062 1062.839844 649.121094 1062.851562 C 648.945312 1062.867188 648.773438 1062.875 648.597656 1062.875 L 648.332031 1062.871094 L 648.28125 1063.136719 C 647.832031 1065.464844 647.457031 1067.832031 647.167969 1070.21875 C 646.882812 1072.574219 646.675781 1074.957031 646.554688 1077.363281 L 646.527344 1077.902344 L 647.015625 1077.667969 L 650.257812 1076.101562 L 650.269531 1076.09375 L 650.273438 1076.09375 C 651.609375 1075.449219 653.089844 1075.40625 654.390625 1075.859375 C 655.691406 1076.308594 656.824219 1077.257812 657.46875 1078.582031 L 657.472656 1078.59375 L 657.554688 1078.78125 L 657.5625 1078.78125 C 658.125 1080.066406 658.140625 1081.472656 657.710938 1082.71875 C 657.253906 1084.027344 656.304688 1085.164062 654.96875 1085.8125 L 647.890625 1089.238281 L 647.886719 1089.238281 C 647.730469 1089.3125 647.570312 1089.382812 647.417969 1089.441406 L 647.417969 1089.4375 C 647.25 1089.496094 647.082031 1089.550781 646.917969 1089.597656 L 646.660156 1089.664062 L 646.679688 1089.925781 C 646.84375 1092.332031 647.101562 1094.722656 647.433594 1097.085938 C 647.761719 1099.460938 648.175781 1101.8125 648.671875 1104.136719 L 648.78125 1104.664062 L 649.191406 1104.308594 L 651.9375 1101.941406 L 651.945312 1101.933594 C 653.070312 1100.964844 654.484375 1100.542969 655.859375 1100.644531 C 657.234375 1100.746094 658.574219 1101.367188 659.539062 1102.480469 L 659.550781 1102.492188 L 659.589844 1102.539062 L 659.589844 1102.542969 C 660.53125 1103.652344 660.941406 1105.054688 660.84375 1106.414062 C 660.742188 1107.792969 660.117188 1109.140625 658.996094 1110.105469 L 653.042969 1115.25 C 652.910156 1115.363281 652.765625 1115.476562 652.621094 1115.578125 C 652.476562 1115.675781 652.328125 1115.773438 652.175781 1115.859375 L 651.941406 1115.988281 L 652.03125 1116.246094 C 652.8125 1118.511719 653.675781 1120.75 654.609375 1122.949219 C 655.546875 1125.148438 656.5625 1127.316406 657.652344 1129.445312 L 657.898438 1129.925781 L 658.195312 1129.476562 L 660.242188 1126.476562 L 660.246094 1126.464844 L 660.25 1126.460938 C 661.082031 1125.238281 662.339844 1124.46875 663.695312 1124.207031 C 665.046875 1123.949219 666.503906 1124.199219 667.722656 1125.027344 L 667.738281 1125.035156 L 667.820312 1125.09375 L 667.824219 1125.09375 C 669 1125.925781 669.746094 1127.164062 670.003906 1128.488281 C 670.261719 1129.847656 670.003906 1131.308594 669.175781 1132.53125 L 664.753906 1139.042969 C 664.65625 1139.1875 664.542969 1139.332031 664.441406 1139.460938 C 664.328125 1139.597656 664.207031 1139.730469 664.085938 1139.847656 L 663.894531 1140.035156 L 664.046875 1140.253906 C 665.390625 1142.234375 666.796875 1144.167969 668.265625 1146.042969 C 669.746094 1147.933594 671.289062 1149.765625 672.886719 1151.539062 L 673.246094 1151.9375 L 673.425781 1151.425781 L 674.613281 1148.019531 L 674.613281 1148.003906 C 675.105469 1146.613281 676.121094 1145.535156 677.359375 1144.9375 C 678.601562 1144.335938 680.074219 1144.203125 681.46875 1144.691406 L 681.484375 1144.691406 L 681.519531 1144.703125 C 682.902344 1145.199219 683.964844 1146.207031 684.558594 1147.4375 C 685.164062 1148.683594 685.292969 1150.160156 684.8125 1151.558594 L 682.226562 1158.992188 C 682.171875 1159.160156 682.101562 1159.324219 682.03125 1159.480469 L 682.03125 1159.484375 C 681.960938 1159.636719 681.878906 1159.789062 681.792969 1159.9375 L 681.65625 1160.167969 L 681.859375 1160.339844 C 683.664062 1161.90625 685.523438 1163.410156 687.433594 1164.851562 C 689.332031 1166.28125 691.296875 1167.652344 693.3125 1168.964844 L 693.765625 1169.261719 L 693.804688 1168.71875 L 694.074219 1165.113281 L 694.074219 1165.097656 C 694.183594 1163.621094 694.886719 1162.324219 695.929688 1161.421875 C 696.972656 1160.519531 698.355469 1160.011719 699.828125 1160.121094 L 699.855469 1160.121094 L 699.914062 1160.125 C 701.367188 1160.25 702.644531 1160.949219 703.53125 1161.980469 C 704.433594 1163.023438 704.945312 1164.414062 704.835938 1165.894531 L 704.265625 1173.738281 C 704.25 1173.921875 704.230469 1174.097656 704.195312 1174.269531 C 704.167969 1174.449219 704.128906 1174.621094 704.085938 1174.785156 L 704.015625 1175.042969 L 704.25 1175.15625 C 706.390625 1176.199219 708.578125 1177.171875 710.804688 1178.070312 C 713.019531 1178.964844 715.273438 1179.785156 717.558594 1180.519531 L 718.070312 1180.6875 L 717.972656 1180.15625 L 717.289062 1176.589844 L 717.285156 1176.574219 L 717.285156 1176.566406 C 717.011719 1175.117188 717.355469 1173.679688 718.128906 1172.542969 C 718.902344 1171.402344 720.109375 1170.554688 721.558594 1170.277344 L 721.574219 1170.273438 L 721.757812 1170.238281 L 721.761719 1170.238281 C 723.152344 1170.019531 724.523438 1170.371094 725.617188 1171.109375 C 726.761719 1171.886719 727.613281 1173.097656 727.890625 1174.554688 L 729.367188 1182.28125 C 729.402344 1182.460938 729.429688 1182.640625 729.441406 1182.808594 C 729.460938 1182.984375 729.464844 1183.160156 729.464844 1183.332031 L 729.464844 1183.597656 L 729.726562 1183.648438 C 732.058594 1184.097656 734.421875 1184.46875 736.808594 1184.761719 C 739.164062 1185.046875 741.546875 1185.253906 743.957031 1185.375 L 744.496094 1185.402344 L 744.257812 1184.917969 L 742.691406 1181.671875 L 742.679688 1181.65625 C 742.039062 1180.320312 742 1178.84375 742.449219 1177.539062 C 742.902344 1176.234375 743.847656 1175.101562 745.175781 1174.457031 L 745.175781 1174.460938 L 745.1875 1174.457031 L 745.375 1174.367188 L 745.375 1174.363281 C 746.660156 1173.800781 748.066406 1173.785156 749.3125 1174.21875 C 750.621094 1174.671875 751.753906 1175.625 752.402344 1176.953125 L 755.828125 1184.039062 C 755.902344 1184.191406 755.976562 1184.355469 756.03125 1184.515625 C 756.089844 1184.679688 756.144531 1184.847656 756.1875 1185.015625 L 756.253906 1185.273438 L 756.519531 1185.253906 C 758.925781 1185.082031 761.316406 1184.828125 763.679688 1184.5 C 766.054688 1184.167969 768.40625 1183.753906 770.730469 1183.261719 L 771.257812 1183.144531 L 770.902344 1182.738281 L 768.53125 1179.988281 L 768.523438 1179.980469 C 767.558594 1178.859375 767.140625 1177.441406 767.234375 1176.066406 C 767.335938 1174.691406 767.957031 1173.351562 769.074219 1172.390625 L 769.085938 1172.378906 L 769.195312 1172.277344 C 770.300781 1171.375 771.671875 1170.988281 773.007812 1171.085938 C 774.386719 1171.1875 775.726562 1171.808594 776.699219 1172.933594 L 781.84375 1178.878906 C 781.957031 1179.015625 782.066406 1179.15625 782.167969 1179.300781 L 782.167969 1179.296875 C 782.273438 1179.449219 782.367188 1179.601562 782.453125 1179.75 L 782.582031 1179.988281 L 782.835938 1179.898438 C 785.105469 1179.117188 787.34375 1178.253906 789.542969 1177.320312 C 791.738281 1176.382812 793.914062 1175.367188 796.039062 1174.277344 L 796.519531 1174.03125 L 796.074219 1173.730469 L 793.0625 1171.6875 L 793.050781 1171.675781 C 791.828125 1170.84375 791.054688 1169.585938 790.800781 1168.234375 C 790.539062 1166.878906 790.792969 1165.421875 791.621094 1164.199219 L 791.625 1164.199219 L 791.632812 1164.183594 L 791.683594 1164.101562 C 792.515625 1162.925781 793.753906 1162.175781 795.082031 1161.925781 C 796.441406 1161.664062 797.902344 1161.917969 799.128906 1162.75 L 805.632812 1167.171875 C 805.777344 1167.265625 805.914062 1167.371094 806.050781 1167.484375 C 806.191406 1167.605469 806.324219 1167.722656 806.441406 1167.84375 L 806.628906 1168.03125 L 806.851562 1167.882812 C 808.828125 1166.542969 810.761719 1165.132812 812.636719 1163.664062 C 814.523438 1162.183594 816.359375 1160.640625 818.128906 1159.042969 L 818.53125 1158.683594 L 818.019531 1158.5 L 814.609375 1157.316406 L 814.605469 1157.316406 L 814.589844 1157.3125 L 814.589844 1157.308594 C 813.199219 1156.820312 812.125 1155.804688 811.527344 1154.566406 C 810.925781 1153.328125 810.796875 1151.855469 811.28125 1150.464844 L 811.28125 1150.460938 L 811.289062 1150.441406 L 811.335938 1150.292969 C 811.839844 1148.964844 812.832031 1147.941406 814.035156 1147.363281 C 815.28125 1146.761719 816.753906 1146.628906 818.152344 1147.113281 L 825.582031 1149.699219 C 825.75 1149.757812 825.914062 1149.824219 826.070312 1149.894531 L 826.074219 1149.894531 C 826.222656 1149.960938 826.382812 1150.042969 826.53125 1150.136719 L 826.761719 1150.269531 L 826.933594 1150.070312 C 828.507812 1148.261719 830.011719 1146.402344 831.445312 1144.492188 C 832.878906 1142.589844 834.253906 1140.625 835.558594 1138.617188 L 835.855469 1138.164062 L 835.316406 1138.121094 L 831.703125 1137.859375 L 831.6875 1137.859375 C 830.21875 1137.746094 828.914062 1137.042969 828.015625 1136 C 827.113281 1134.957031 826.605469 1133.574219 826.714844 1132.097656 L 826.714844 1132.078125 L 826.722656 1131.949219 C 826.863281 1130.527344 827.558594 1129.273438 828.566406 1128.394531 C 829.617188 1127.492188 831.007812 1126.980469 832.488281 1127.085938 L 840.328125 1127.664062 C 840.515625 1127.675781 840.691406 1127.699219 840.863281 1127.726562 C 841.035156 1127.757812 841.207031 1127.796875 841.378906 1127.839844 L 841.636719 1127.914062 L 841.75 1127.675781 C 842.796875 1125.535156 843.769531 1123.347656 844.664062 1121.121094 C 845.558594 1118.910156 846.375 1116.65625 847.113281 1114.371094 L 847.277344 1113.855469 L 846.746094 1113.957031 L 843.191406 1114.636719 L 843.183594 1114.636719 L 843.171875 1114.640625 C 841.714844 1114.917969 840.273438 1114.570312 839.132812 1113.796875 C 837.992188 1113.027344 837.152344 1111.824219 836.871094 1110.375 L 836.867188 1110.363281 L 836.828125 1110.089844 L 836.816406 1110.089844 C 836.628906 1108.722656 836.972656 1107.386719 837.703125 1106.308594 C 838.480469 1105.167969 839.695312 1104.316406 841.148438 1104.03125 L 848.875 1102.5625 C 849.054688 1102.527344 849.238281 1102.496094 849.40625 1102.480469 C 849.578125 1102.464844 849.753906 1102.460938 849.925781 1102.460938 L 850.191406 1102.464844 L 850.242188 1102.199219 C 850.691406 1099.867188 851.0625 1097.496094 851.351562 1095.109375 C 851.640625 1092.753906 851.84375 1090.375 851.96875 1087.972656 L 851.996094 1087.433594 L 851.507812 1087.671875 L 848.253906 1089.246094 L 848.238281 1089.25 C 846.910156 1089.890625 845.433594 1089.929688 844.128906 1089.476562 C 842.824219 1089.023438 841.699219 1088.078125 841.050781 1086.746094 L 841.050781 1086.742188 L 840.964844 1086.554688 L 840.953125 1086.554688 C 840.394531 1085.261719 840.375 1083.863281 840.808594 1082.617188 C 841.261719 1081.308594 842.210938 1080.171875 843.550781 1079.523438 L 850.628906 1076.101562 C 850.78125 1076.023438 850.945312 1075.953125 851.109375 1075.894531 C 851.273438 1075.832031 851.4375 1075.777344 851.605469 1075.734375 L 851.863281 1075.667969 L 851.84375 1075.402344 C 851.675781 1073.003906 851.421875 1070.613281 851.09375 1068.253906 C 850.757812 1065.875 850.34375 1063.523438 849.847656 1061.195312 L 849.738281 1060.671875 L 849.332031 1061.023438 L 846.582031 1063.394531 L 846.582031 1063.398438 L 846.570312 1063.40625 C 845.449219 1064.371094 844.035156 1064.789062 842.660156 1064.691406 C 841.28125 1064.589844 839.949219 1063.972656 838.980469 1062.851562 L 838.96875 1062.839844 L 838.847656 1062.695312 C 837.964844 1061.597656 837.582031 1060.246094 837.675781 1058.921875 C 837.777344 1057.542969 838.398438 1056.199219 839.519531 1055.226562 L 845.472656 1050.085938 C 845.609375 1049.96875 845.75 1049.855469 845.894531 1049.753906 C 846.042969 1049.648438 846.191406 1049.554688 846.34375 1049.46875 L 846.574219 1049.335938 L 846.488281 1049.089844 C 845.707031 1046.816406 844.84375 1044.578125 843.910156 1042.382812 C 842.96875 1040.179688 841.957031 1038.015625 840.871094 1035.890625 L 840.621094 1035.410156 L 840.320312 1035.859375 L 838.277344 1038.863281 L 838.269531 1038.878906 C 837.433594 1040.097656 836.175781 1040.871094 834.824219 1041.128906 C 833.46875 1041.386719 832.015625 1041.132812 830.796875 1040.304688 L 830.792969 1040.300781 L 830.78125 1040.292969 L 830.667969 1040.222656 L 830.664062 1040.222656 C 829.503906 1039.386719 828.769531 1038.164062 828.515625 1036.847656 C 828.257812 1035.492188 828.511719 1034.03125 829.339844 1032.796875 L 833.761719 1026.296875 C 833.859375 1026.152344 833.96875 1026.011719 834.078125 1025.871094 C 834.191406 1025.734375 834.308594 1025.605469 834.433594 1025.484375 L 834.621094 1025.296875 L 834.472656 1025.078125 C 833.132812 1023.097656 831.722656 1021.167969 830.253906 1019.296875 C 828.777344 1017.40625 827.230469 1015.574219 825.632812 1013.800781 L 825.269531 1013.402344 L 825.089844 1013.910156 L 823.90625 1017.320312 L 823.902344 1017.335938 L 823.898438 1017.335938 C 823.410156 1018.734375 822.394531 1019.800781 821.15625 1020.398438 C 819.917969 1020.996094 818.453125 1021.128906 817.058594 1020.644531 L 817.042969 1020.640625 L 816.902344 1020.59375 L 816.898438 1020.59375 C 815.566406 1020.09375 814.539062 1019.097656 813.957031 1017.890625 C 813.351562 1016.648438 813.222656 1015.175781 813.707031 1013.773438 L 816.292969 1006.34375 C 816.355469 1006.171875 816.417969 1006.007812 816.488281 1005.851562 C 816.558594 1005.703125 816.640625 1005.546875 816.726562 1005.390625 L 816.859375 1005.167969 L 816.660156 1004.996094 C 814.855469 1003.429688 812.996094 1001.925781 811.089844 1000.484375 C 809.1875 999.054688 807.222656 997.683594 805.207031 996.371094 L 804.75 996.074219 L 804.710938 996.613281 L 804.449219 1000.222656 L 804.449219 1000.226562 L 804.445312 1000.234375 C 804.335938 1001.714844 803.628906 1003.011719 802.589844 1003.914062 C 801.546875 1004.816406 800.164062 1005.320312 798.691406 1005.214844 L 798.683594 1005.214844 L 798.667969 1005.207031 L 798.523438 1005.199219 C 797.101562 1005.058594 795.859375 1004.367188 794.984375 1003.355469 C 794.082031 1002.308594 793.574219 1000.914062 793.679688 999.4375 L 794.257812 991.597656 C 794.269531 991.414062 794.289062 991.234375 794.320312 991.066406 C 794.347656 990.898438 794.386719 990.722656 794.433594 990.546875 L 794.503906 990.292969 L 794.265625 990.179688 C 792.125 989.136719 789.9375 988.164062 787.710938 987.261719 C 785.5 986.375 783.246094 985.554688 780.960938 984.816406 L 780.445312 984.648438 L 780.546875 985.179688 L 781.234375 988.746094 L 781.234375 988.753906 C 781.507812 990.210938 781.164062 991.648438 780.390625 992.792969 C 779.617188 993.9375 778.40625 994.785156 776.957031 995.058594 L 776.949219 995.058594 L 776.800781 995.089844 L 776.796875 995.089844 C 775.390625 995.324219 774.003906 994.976562 772.902344 994.222656 C 771.757812 993.449219 770.90625 992.234375 770.625 990.78125 L 769.152344 983.054688 C 769.117188 982.875 769.089844 982.703125 769.074219 982.53125 C 769.058594 982.355469 769.050781 982.179688 769.050781 982.003906 L 769.050781 981.738281 L 768.792969 981.691406 C 766.457031 981.238281 764.085938 980.867188 761.699219 980.578125 C 759.34375 980.292969 756.964844 980.082031 754.558594 979.960938 L 754.023438 979.9375 L 754.257812 980.421875 L 755.828125 983.671875 L 755.832031 983.675781 L 755.832031 983.679688 C 756.480469 985.015625 756.519531 986.496094 756.066406 987.800781 C 755.617188 989.101562 754.667969 990.234375 753.335938 990.882812 L 753.332031 990.882812 L 753.324219 990.886719 C 751.992188 991.53125 750.515625 991.574219 749.203125 991.117188 C 747.898438 990.660156 746.761719 989.710938 746.117188 988.378906 L 742.691406 981.300781 C 742.613281 981.144531 742.546875 980.984375 742.488281 980.824219 C 742.433594 980.664062 742.378906 980.496094 742.332031 980.324219 L 742.265625 980.066406 Z M 967.589844 1072.179688 L 967.589844 1091.765625 L 966.738281 1091.765625 L 966.738281 1125.824219 L 899.046875 1125.824219 L 899.046875 1116.742188 L 865.988281 1116.742188 L 865.988281 1070.761719 L 857.589844 1070.761719 C 853.273438 1031.019531 827.585938 997.6875 792.253906 982.503906 C 783.546875 977.722656 774.449219 975.484375 765.152344 974.847656 C 759.964844 974.089844 754.660156 973.691406 749.261719 973.691406 C 732.890625 973.691406 717.371094 977.304688 703.441406 983.769531 C 693.898438 985.6875 684.609375 987.105469 675.792969 986.96875 C 667.925781 986.847656 653.859375 986.105469 658.972656 972.238281 C 661.195312 966.210938 663.820312 964.289062 667.90625 963.226562 L 670.332031 954.617188 L 711.554688 787.097656 L 713.847656 777.894531 L 708.007812 777.894531 L 708.007812 773.738281 C 708.007812 766.660156 713.800781 760.867188 720.882812 760.867188 L 904.871094 760.867188 C 911.953125 760.867188 917.742188 766.660156 917.742188 773.738281 L 917.742188 777.894531 L 913.074219 777.894531 C 927.570312 807.0625 935.980469 844.976562 940.042969 881.710938 C 941.160156 891.847656 941.96875 901.332031 942.40625 910.425781 C 947.820312 910.472656 961.574219 910.667969 978.234375 911.53125 L 978.234375 894.527344 L 971.089844 894.527344 C 969.675781 894.527344 968.515625 893.371094 968.515625 891.953125 L 968.515625 888.585938 C 968.515625 887.171875 969.675781 886.015625 971.089844 886.015625 L 978.234375 886.015625 L 978.234375 761.96875 L 987.316406 761.96875 L 987.316406 886.015625 L 994.464844 886.015625 C 995.882812 886.015625 997.039062 887.171875 997.039062 888.585938 L 997.039062 891.953125 C 997.039062 893.371094 995.882812 894.527344 994.464844 894.527344 L 987.316406 894.527344 L 987.316406 912.058594 C 996.140625 912.621094 1005.457031 913.375 1014.570312 914.386719 C 1020.792969 915.078125 1027.828125 915.871094 1035.265625 916.730469 C 1035.363281 915.621094 1035.433594 914.515625 1035.492188 913.414062 C 1035.648438 910.210938 1035.648438 906.988281 1035.652344 903.855469 C 1035.65625 895.96875 1035.664062 888.59375 1038.015625 883.640625 C 1038.410156 882.808594 1038.890625 882.003906 1039.4375 881.246094 C 1041.5625 878.292969 1044.761719 876.03125 1048.550781 875.042969 C 1052.316406 874.058594 1056.652344 874.332031 1061.078125 876.433594 C 1062.339844 877.035156 1063.621094 877.789062 1064.890625 878.707031 C 1068.472656 881.285156 1072.160156 885.71875 1076.113281 892.714844 C 1079.757812 899.171875 1085.007812 911.445312 1089.460938 923.332031 C 1106.332031 925.542969 1120.078125 927.566406 1125.253906 928.859375 C 1137.742188 931.980469 1138.875 942.484375 1139.445312 951.277344 L 1139.496094 952.191406 L 1183.058594 975.457031 L 1183.101562 975.378906 C 1183.800781 974.070312 1185.441406 973.570312 1186.75 974.269531 L 1192.019531 977.085938 C 1193.328125 977.78125 1193.824219 979.421875 1193.125 980.730469 L 1191.851562 983.117188 L 1228.871094 1002.886719 C 1231.273438 1000.484375 1234.941406 999.566406 1238.324219 1000.832031 C 1242.191406 1002.277344 1244.464844 1006.113281 1244.097656 1010.035156 L 1298.027344 1059.488281 C 1304.488281 1046.53125 1321.519531 1016.125 1327.320312 1013.265625 C 1330.019531 1011.9375 1336.097656 1010.894531 1342.589844 1010.425781 L 1342.589844 1010.421875 C 1345.164062 1004.566406 1349.863281 994.171875 1356.875 991.554688 C 1360.261719 990.292969 1363.296875 991.46875 1365.28125 993.21875 C 1367.558594 995.234375 1368.398438 998.238281 1365.851562 1002.890625 C 1364.570312 1005.226562 1363.261719 1008.058594 1363.777344 1012.269531 C 1375.441406 1020.300781 1371.304688 1040.382812 1369.289062 1051.859375 C 1366.914062 1065.347656 1380.390625 1067.816406 1393.960938 1075.417969 C 1398.925781 1078.195312 1401.167969 1083.941406 1403.839844 1089.058594 C 1409.09375 1099.105469 1409.03125 1096.601562 1419.148438 1100.386719 L 1419.894531 1101.691406 L 1449.0625 1152.867188 C 1449.0625 1152.867188 1468.566406 1159.253906 1469.230469 1160.710938 C 1469.894531 1162.175781 1468.28125 1163.460938 1468.28125 1163.460938 L 1468.269531 1163.464844 L 1468.253906 1163.46875 L 1468.246094 1163.46875 L 1468.199219 1163.472656 L 1468.171875 1163.476562 L 1468.136719 1163.484375 L 1468.0625 1163.492188 L 1468.042969 1163.5 L 1467.96875 1163.511719 L 1467.863281 1163.527344 L 1467.855469 1163.527344 L 1467.726562 1163.546875 L 1467.632812 1163.5625 L 1467.582031 1163.566406 L 1467.425781 1163.59375 L 1467.355469 1163.605469 L 1467.25 1163.621094 L 1467.0625 1163.648438 L 1467.027344 1163.65625 L 1466.855469 1163.683594 L 1466.660156 1163.710938 L 1466.632812 1163.714844 L 1466.394531 1163.75 L 1466.242188 1163.773438 L 1466.148438 1163.789062 L 1465.882812 1163.832031 L 1465.785156 1163.84375 L 1465.601562 1163.871094 L 1465.3125 1163.917969 L 1465.285156 1163.921875 L 1465.003906 1163.960938 L 1464.742188 1164.003906 L 1464.683594 1164.015625 L 1464.351562 1164.0625 L 1464.160156 1164.09375 L 1464.007812 1164.117188 L 1463.648438 1164.171875 L 1463.539062 1164.1875 L 1463.277344 1164.226562 L 1462.894531 1164.285156 L 1462.882812 1164.285156 L 1462.5 1164.34375 L 1462.1875 1164.390625 L 1462.089844 1164.40625 L 1461.671875 1164.46875 L 1461.457031 1164.503906 L 1461.242188 1164.535156 L 1460.796875 1164.601562 L 1460.691406 1164.621094 L 1460.347656 1164.671875 L 1459.894531 1164.738281 L 1459.882812 1164.742188 L 1459.410156 1164.8125 L 1459.0625 1164.863281 L 1458.925781 1164.882812 L 1458.429688 1164.960938 L 1458.203125 1164.992188 L 1457.925781 1165.035156 L 1457.40625 1165.113281 L 1457.3125 1165.128906 L 1456.882812 1165.191406 L 1456.394531 1165.265625 L 1456.351562 1165.269531 L 1455.808594 1165.351562 L 1455.449219 1165.40625 L 1455.257812 1165.433594 L 1454.695312 1165.515625 L 1454.476562 1165.550781 L 1454.128906 1165.601562 L 1453.550781 1165.6875 L 1453.476562 1165.699219 L 1452.964844 1165.773438 L 1452.457031 1165.851562 L 1452.378906 1165.863281 L 1451.777344 1165.953125 L 1451.414062 1166.003906 L 1451.167969 1166.042969 L 1450.554688 1166.132812 L 1449.933594 1166.226562 L 1449.304688 1166.316406 L 1449.261719 1166.324219 L 1448.671875 1166.410156 L 1448.15625 1166.488281 L 1448.027344 1166.503906 L 1447.03125 1166.648438 L 1446.730469 1166.695312 L 1446.074219 1166.789062 L 1445.890625 1166.820312 L 1445.410156 1166.886719 L 1444.742188 1166.984375 L 1444.730469 1166.984375 L 1444.066406 1167.082031 L 1443.5625 1167.15625 L 1443.390625 1167.179688 L 1442.707031 1167.28125 L 1442.375 1167.328125 L 1442.023438 1167.378906 L 1441.332031 1167.480469 L 1441.332031 1167.476562 C 1430.457031 1169.046875 1418.179688 1170.753906 1408.296875 1171.933594 C 1384.980469 1174.730469 1349.863281 1166.140625 1331.6875 1160.859375 C 1318.851562 1157.128906 1309.230469 1149.464844 1304.648438 1143.082031 C 1303.148438 1142.398438 1301.628906 1141.636719 1299.882812 1140.980469 C 1294.03125 1138.792969 1262.589844 1114.308594 1262.589844 1114.308594 C 1262.589844 1114.308594 1230.960938 1092.582031 1194.972656 1067.90625 C 1191.9375 1045.488281 1182.089844 1025.238281 1167.578125 1009.308594 C 1186.257812 1023.511719 1210.082031 1041.613281 1232.960938 1058.988281 L 1230.074219 1016.527344 C 1227.179688 1014.503906 1225.714844 1010.90625 1226.441406 1007.398438 L 1189.4375 987.636719 L 1188.210938 989.929688 C 1187.515625 991.238281 1185.875 991.734375 1184.566406 991.039062 L 1179.300781 988.222656 C 1177.988281 987.523438 1177.492188 985.886719 1178.191406 984.574219 L 1178.234375 984.496094 L 1140.0625 964.113281 C 1140.367188 971.15625 1140.714844 979.890625 1141.039062 988.019531 C 1125.109375 978.902344 1106.65625 973.691406 1086.992188 973.691406 C 1030.34375 973.691406 983.792969 1016.917969 978.515625 1072.179688 L 967.589844 1072.179688 " fill-opacity="1" fill-rule="evenodd"/></g></svg>