<svg xmlns="http://www.w3.org/2000/svg" xmlns:xlink="http://www.w3.org/1999/xlink" width="2500" zoomAndPan="magnify" viewBox="0 0 1874.88 1874.999927" height="2500" preserveAspectRatio="xMidYMid meet" version="1.0"><defs><clipPath id="d5bb6a99a6"><path d="M 187.488281 187.546875 L 1687.390625 187.546875 L 1687.390625 1687.453125 L 187.488281 1687.453125 Z M 187.488281 187.546875 " clip-rule="nonzero"/></clipPath><clipPath id="f93654dcd6"><path d="M 937.441406 187.546875 C 523.253906 187.546875 187.488281 523.3125 187.488281 937.5 C 187.488281 1351.6875 523.253906 1687.453125 937.441406 1687.453125 C 1351.625 1687.453125 1687.390625 1351.6875 1687.390625 937.5 C 1687.390625 523.3125 1351.625 187.546875 937.441406 187.546875 Z M 937.441406 187.546875 " clip-rule="nonzero"/></clipPath><clipPath id="bd89e91ca4"><path d="M 531.085938 832 L 880 832 L 880 1246 L 531.085938 1246 Z M 531.085938 832 " clip-rule="nonzero"/></clipPath><clipPath id="2a3323271f"><path d="M 655 497.007812 L 800 497.007812 L 800 701 L 655 701 Z M 655 497.007812 " clip-rule="nonzero"/></clipPath></defs><g clip-path="url(#d5bb6a99a6)"><g clip-path="url(#f93654dcd6)"><path stroke-linecap="butt" transform="matrix(0.749952, 0, 0, 0.749952, 187.487992, 187.547956)" fill="none" stroke-linejoin="miter" d="M 1000.001863 -0.00144101 C 447.716529 -0.00144101 0.000385441 447.714703 0.000385441 1000.000037 C 0.000385441 1552.285371 447.716529 2000.001515 1000.001863 2000.001515 C 1552.287197 2000.001515 1999.998132 1552.285371 1999.998132 1000.000037 C 1999.998132 447.714703 1552.287197 -0.00144101 1000.001863 -0.00144101 Z M 1000.001863 -0.00144101 " stroke="#49c3fb" stroke-width="140" stroke-opacity="1" stroke-miterlimit="4"/></g></g><path fill="#49c3fb" d="M 1067.691406 988.132812 L 1286.734375 988.132812 L 1286.734375 837.699219 L 1213.351562 837.699219 L 1204.914062 846.324219 L 1150.976562 902.09375 Z M 1215.1875 890.351562 C 1238.300781 890.351562 1257.199219 909.246094 1257.199219 932.363281 C 1257.199219 955.476562 1238.300781 974.375 1215.1875 974.375 C 1191.886719 974.375 1173.175781 955.476562 1173.175781 932.363281 C 1173.175781 909.246094 1191.886719 890.351562 1215.1875 890.351562 Z M 1215.1875 890.351562 " fill-opacity="1" fill-rule="nonzero"/><path fill="#49c3fb" d="M 863.320312 661.769531 L 1141.253906 877.511719 L 1178.3125 839.167969 L 880.566406 608.75 L 823.695312 608.75 L 823.695312 658.097656 L 856.351562 659.199219 C 858.917969 659.382812 861.304688 660.300781 863.320312 661.769531 Z M 863.320312 661.769531 " fill-opacity="1" fill-rule="nonzero"/><g clip-path="url(#bd89e91ca4)"><path fill="#49c3fb" d="M 531.085938 1002.808594 L 531.085938 1235.429688 C 531.085938 1240.75 535.488281 1245.152344 540.808594 1245.152344 L 586.671875 1245.152344 C 586.671875 1244.96875 586.855469 1244.785156 586.855469 1244.601562 C 587.222656 1243.867188 587.589844 1242.949219 587.957031 1242.21875 C 589.425781 1238.914062 591.257812 1235.796875 593.09375 1232.675781 C 593.828125 1231.394531 594.5625 1230.292969 595.480469 1229.007812 C 595.664062 1228.824219 595.847656 1228.457031 596.027344 1228.273438 C 596.578125 1227.539062 597.128906 1226.808594 597.496094 1226.074219 C 598.046875 1225.339844 598.414062 1224.605469 598.964844 1223.871094 C 599.148438 1223.503906 599.332031 1223.320312 599.699219 1222.953125 C 600.066406 1222.585938 600.433594 1222.035156 600.617188 1221.667969 C 601.164062 1220.9375 601.714844 1220.203125 602.265625 1219.652344 C 602.449219 1219.46875 602.632812 1219.285156 602.816406 1218.917969 C 603 1218.734375 603.183594 1218.367188 603.550781 1218.183594 C 603.734375 1217.816406 604.101562 1217.632812 604.285156 1217.265625 C 605.019531 1216.53125 605.570312 1215.800781 606.300781 1215.066406 C 606.667969 1214.699219 607.035156 1214.148438 607.585938 1213.78125 C 607.769531 1213.597656 608.136719 1213.230469 608.320312 1213.046875 C 608.503906 1212.863281 608.871094 1212.496094 609.054688 1212.128906 C 609.789062 1211.394531 610.707031 1210.480469 611.4375 1209.746094 C 612.90625 1208.460938 614.375 1207.175781 615.84375 1205.894531 C 616.394531 1205.34375 616.941406 1204.976562 617.492188 1204.425781 C 618.777344 1203.324219 620.246094 1202.222656 621.710938 1201.121094 C 622.445312 1200.574219 623.179688 1200.023438 623.914062 1199.472656 C 625.566406 1198.1875 627.398438 1197.085938 629.234375 1195.988281 C 629.96875 1195.4375 630.703125 1195.070312 631.4375 1194.703125 C 633.636719 1193.417969 635.839844 1192.132812 638.039062 1191.03125 C 642.441406 1188.832031 647.03125 1186.8125 651.800781 1185.164062 C 653.265625 1184.613281 654.550781 1184.246094 656.019531 1183.695312 C 657.488281 1183.144531 658.953125 1182.777344 660.421875 1182.410156 C 662.988281 1181.675781 665.558594 1181.125 668.308594 1180.574219 C 669.226562 1180.394531 670.328125 1180.210938 671.246094 1180.027344 C 672.164062 1179.84375 673.078125 1179.84375 673.996094 1179.660156 C 674.179688 1179.660156 674.363281 1179.660156 674.546875 1179.660156 C 676.382812 1179.476562 678.214844 1179.292969 680.234375 1179.109375 C 680.601562 1179.109375 680.785156 1179.109375 681.152344 1179.109375 C 681.703125 1179.109375 682.4375 1179.109375 682.988281 1178.925781 C 684.820312 1178.742188 686.839844 1178.742188 688.855469 1178.742188 C 690.875 1178.742188 692.710938 1178.742188 694.726562 1178.925781 C 695.460938 1178.925781 696.011719 1178.925781 696.5625 1179.109375 C 696.929688 1179.109375 697.113281 1179.109375 697.480469 1179.109375 C 699.3125 1179.292969 701.148438 1179.476562 703.167969 1179.660156 C 703.351562 1179.660156 703.535156 1179.660156 703.714844 1179.660156 C 704.632812 1179.84375 705.550781 1179.84375 706.46875 1180.027344 C 707.386719 1180.210938 708.488281 1180.394531 709.402344 1180.574219 C 711.972656 1181.125 714.722656 1181.675781 717.292969 1182.410156 C 718.761719 1182.777344 720.226562 1183.144531 721.695312 1183.695312 C 723.164062 1184.0625 724.628906 1184.613281 725.914062 1185.164062 C 730.683594 1186.8125 735.269531 1188.832031 739.671875 1191.03125 C 741.875 1192.132812 744.078125 1193.417969 746.277344 1194.703125 C 747.011719 1195.070312 747.746094 1195.621094 748.480469 1195.988281 C 750.3125 1197.085938 751.964844 1198.1875 753.800781 1199.472656 C 754.535156 1200.023438 755.265625 1200.574219 756 1201.121094 C 757.46875 1202.222656 758.9375 1203.324219 760.21875 1204.425781 C 760.769531 1204.976562 761.320312 1205.34375 761.871094 1205.894531 C 763.339844 1207.175781 764.808594 1208.460938 766.273438 1209.746094 C 766.640625 1210.113281 767.191406 1210.480469 767.558594 1211.03125 C 767.742188 1211.214844 767.925781 1211.394531 768.292969 1211.578125 C 768.476562 1211.761719 768.660156 1211.945312 768.84375 1212.128906 C 769.394531 1212.496094 769.761719 1213.046875 770.128906 1213.597656 C 770.3125 1213.78125 770.3125 1213.78125 770.492188 1213.964844 C 771.410156 1214.882812 772.328125 1215.800781 773.0625 1216.714844 C 773.613281 1217.265625 773.980469 1217.816406 774.53125 1218.367188 C 774.714844 1218.550781 774.898438 1218.734375 774.898438 1218.917969 C 775.082031 1219.101562 775.265625 1219.46875 775.449219 1219.652344 C 775.628906 1219.835938 775.628906 1219.835938 775.8125 1220.019531 C 776.363281 1220.570312 776.730469 1221.121094 777.097656 1221.667969 C 777.28125 1221.851562 777.28125 1221.851562 777.464844 1222.035156 C 777.464844 1222.21875 777.648438 1222.21875 777.648438 1222.402344 C 778.015625 1222.953125 778.382812 1223.320312 778.75 1223.871094 C 779.300781 1224.605469 779.851562 1225.339844 780.21875 1226.074219 C 780.765625 1226.804688 781.316406 1227.539062 781.683594 1228.273438 C 781.867188 1228.457031 782.050781 1228.824219 782.234375 1229.007812 C 782.96875 1230.292969 783.886719 1231.394531 784.621094 1232.675781 C 785.539062 1234.144531 786.453125 1235.796875 787.371094 1237.261719 C 788.105469 1238.546875 788.65625 1239.832031 789.390625 1241.117188 C 790.125 1242.398438 790.675781 1243.683594 791.222656 1244.96875 L 879.28125 1244.96875 L 879.28125 832.195312 L 609.605469 832.195312 Z M 635.839844 874.207031 L 822.59375 873.289062 C 825.898438 873.289062 828.832031 874.574219 831.21875 876.777344 C 833.417969 878.976562 834.703125 882.097656 834.703125 885.398438 L 834.703125 1082.246094 C 834.703125 1088.847656 829.382812 1094.351562 822.59375 1094.351562 L 584.105469 1094.351562 C 577.5 1094.351562 571.996094 1089.03125 571.996094 1082.246094 L 571.996094 1020.421875 C 571.996094 1018.953125 572.179688 1017.484375 572.730469 1016.019531 L 624.464844 881.914062 C 626.300781 877.328125 630.703125 874.207031 635.839844 874.207031 Z M 635.839844 874.207031 " fill-opacity="1" fill-rule="nonzero"/></g><path fill="#49c3fb" d="M 1334.066406 1012.347656 L 902.398438 1012.347656 L 902.398438 1245.152344 L 1012.285156 1245.152344 C 1012.835938 1244.234375 1013.203125 1243.132812 1013.753906 1242.214844 C 1014.121094 1241.484375 1014.488281 1240.566406 1015.039062 1239.832031 C 1015.40625 1239.097656 1015.773438 1238.179688 1016.324219 1237.445312 C 1017.238281 1235.796875 1017.972656 1234.328125 1019.074219 1232.859375 C 1025.128906 1222.769531 1032.648438 1213.964844 1041.457031 1206.441406 C 1042.191406 1205.894531 1042.738281 1205.34375 1043.472656 1204.792969 C 1044.023438 1204.242188 1044.757812 1203.691406 1045.308594 1203.324219 C 1045.492188 1203.324219 1045.492188 1203.140625 1045.675781 1203.140625 C 1046.410156 1202.589844 1046.960938 1202.222656 1047.695312 1201.671875 C 1048.425781 1201.125 1049.160156 1200.574219 1049.894531 1200.023438 C 1050.445312 1199.65625 1050.996094 1199.289062 1051.546875 1198.921875 C 1052.28125 1198.371094 1053.011719 1198.003906 1053.746094 1197.453125 C 1054.664062 1196.71875 1055.765625 1196.167969 1056.683594 1195.621094 C 1057.050781 1195.4375 1057.234375 1195.253906 1057.601562 1195.070312 C 1058.515625 1194.519531 1059.433594 1193.96875 1060.351562 1193.417969 C 1061.453125 1192.867188 1062.554688 1192.132812 1063.652344 1191.582031 C 1063.652344 1191.582031 1063.652344 1191.582031 1063.835938 1191.582031 C 1070.808594 1187.914062 1078.332031 1185.164062 1086.21875 1183.144531 C 1088.789062 1182.410156 1091.355469 1181.859375 1094.105469 1181.308594 C 1097.960938 1180.578125 1101.8125 1180.027344 1105.847656 1179.84375 C 1106.03125 1179.84375 1106.03125 1179.84375 1106.214844 1179.84375 C 1107.5 1179.660156 1108.785156 1179.660156 1110.066406 1179.660156 C 1110.25 1179.660156 1110.433594 1179.660156 1110.617188 1179.660156 C 1111.902344 1179.660156 1113.1875 1179.660156 1114.472656 1179.660156 C 1115.753906 1179.660156 1117.039062 1179.660156 1118.324219 1179.660156 C 1118.507812 1179.660156 1118.691406 1179.660156 1118.875 1179.660156 C 1120.15625 1179.660156 1121.441406 1179.84375 1122.726562 1179.84375 C 1122.910156 1179.84375 1122.910156 1179.84375 1123.09375 1179.84375 C 1127.128906 1180.210938 1130.980469 1180.578125 1134.835938 1181.308594 C 1137.402344 1181.859375 1140.15625 1182.410156 1142.722656 1183.144531 C 1150.609375 1185.164062 1157.949219 1188.097656 1165.105469 1191.582031 C 1165.105469 1191.582031 1165.289062 1191.582031 1165.289062 1191.582031 C 1166.386719 1192.132812 1167.488281 1192.683594 1168.589844 1193.417969 C 1169.507812 1193.96875 1170.425781 1194.519531 1171.339844 1195.070312 C 1171.707031 1195.253906 1171.890625 1195.4375 1172.257812 1195.621094 C 1173.175781 1196.167969 1174.277344 1196.902344 1175.195312 1197.453125 C 1175.929688 1198.003906 1176.660156 1198.371094 1177.394531 1198.921875 C 1177.945312 1199.289062 1178.496094 1199.65625 1179.046875 1200.023438 C 1179.78125 1200.574219 1180.515625 1201.125 1181.25 1201.671875 C 1181.980469 1202.222656 1182.53125 1202.589844 1183.265625 1203.140625 C 1183.449219 1203.140625 1183.449219 1203.324219 1183.632812 1203.324219 C 1184.367188 1203.875 1184.917969 1204.242188 1185.46875 1204.792969 C 1186.203125 1205.34375 1186.933594 1205.894531 1187.484375 1206.441406 C 1196.292969 1213.964844 1203.8125 1222.953125 1209.867188 1232.859375 C 1211.703125 1235.980469 1213.535156 1239.097656 1215.003906 1242.398438 C 1215.371094 1243.132812 1215.738281 1244.050781 1216.105469 1244.785156 C 1216.105469 1244.96875 1216.289062 1245.152344 1216.289062 1245.335938 L 1334.066406 1245.335938 C 1339.386719 1245.335938 1343.789062 1240.933594 1343.789062 1235.613281 L 1343.789062 1021.886719 C 1343.789062 1016.566406 1339.386719 1012.347656 1334.066406 1012.347656 Z M 1159.234375 1146.085938 C 1159.234375 1152.691406 1153.914062 1158.195312 1147.125 1158.195312 C 1140.519531 1158.195312 1135.015625 1152.875 1135.015625 1146.085938 L 1135.015625 1066.101562 C 1135.015625 1059.496094 1140.335938 1053.992188 1147.125 1053.992188 C 1153.730469 1053.992188 1159.234375 1059.3125 1159.234375 1066.101562 Z M 1223.992188 1146.085938 C 1223.992188 1152.691406 1218.671875 1158.195312 1211.882812 1158.195312 C 1205.28125 1158.195312 1199.777344 1152.875 1199.777344 1146.085938 L 1199.777344 1066.101562 C 1199.777344 1059.496094 1205.097656 1053.992188 1211.882812 1053.992188 C 1218.488281 1053.992188 1223.992188 1059.3125 1223.992188 1066.101562 Z M 1288.933594 1146.085938 C 1288.933594 1152.691406 1283.617188 1158.195312 1276.828125 1158.195312 C 1270.222656 1158.195312 1264.71875 1152.875 1264.71875 1146.085938 L 1264.71875 1066.101562 C 1264.71875 1059.496094 1270.039062 1053.992188 1276.828125 1053.992188 C 1283.433594 1053.992188 1288.933594 1059.3125 1288.933594 1066.101562 Z M 1288.933594 1146.085938 " fill-opacity="1" fill-rule="nonzero"/><path fill="#49c3fb" d="M 810.671875 897.324219 L 644.09375 898.238281 L 596.027344 1022.4375 L 596.027344 1069.953125 L 810.671875 1069.953125 Z M 810.671875 897.324219 " fill-opacity="1" fill-rule="nonzero"/><path fill="#49c3fb" d="M 769.027344 1257.445312 C 768.660156 1256.527344 768.292969 1255.425781 767.742188 1254.507812 C 767.375 1253.773438 767.191406 1253.222656 766.824219 1252.488281 C 765.539062 1249.921875 764.257812 1247.535156 762.789062 1245.152344 C 761.320312 1242.765625 759.671875 1240.382812 758.019531 1238.179688 C 757.652344 1237.628906 757.101562 1237.078125 756.734375 1236.53125 C 756.183594 1235.980469 755.816406 1235.429688 755.265625 1234.878906 C 754.902344 1234.328125 754.351562 1233.960938 753.984375 1233.410156 C 753.617188 1232.859375 753.066406 1232.308594 752.515625 1231.761719 C 751.964844 1231.210938 751.597656 1230.660156 751.046875 1230.292969 C 750.496094 1229.742188 750.128906 1229.191406 749.582031 1228.824219 C 749.03125 1228.273438 748.664062 1227.90625 748.113281 1227.355469 C 745.910156 1225.339844 743.710938 1223.503906 741.507812 1221.671875 C 741.140625 1221.304688 740.589844 1220.9375 740.222656 1220.570312 C 739.492188 1220.019531 738.941406 1219.652344 738.207031 1219.101562 C 737.289062 1218.550781 736.554688 1218 735.636719 1217.449219 C 733.804688 1216.167969 731.96875 1215.066406 729.949219 1214.148438 C 727.933594 1213.046875 726.097656 1212.128906 724.082031 1211.214844 C 723.164062 1210.664062 722.0625 1210.296875 720.960938 1209.929688 C 718.945312 1209.011719 716.742188 1208.277344 714.722656 1207.726562 C 711.605469 1206.808594 708.304688 1205.894531 705 1205.160156 C 705 1205.160156 704.816406 1205.160156 704.816406 1205.160156 C 703.714844 1204.976562 702.617188 1204.792969 701.699219 1204.609375 C 700.78125 1204.425781 700.046875 1204.425781 699.128906 1204.242188 C 696.5625 1203.875 693.992188 1203.691406 691.242188 1203.507812 C 690.140625 1203.507812 689.039062 1203.507812 687.941406 1203.507812 C 686.839844 1203.507812 685.738281 1203.507812 684.636719 1203.507812 C 682.070312 1203.691406 679.316406 1203.875 676.75 1204.242188 C 675.832031 1204.425781 675.097656 1204.425781 674.179688 1204.609375 C 673.078125 1204.792969 671.980469 1204.976562 671.0625 1205.160156 C 671.0625 1205.160156 670.878906 1205.160156 670.878906 1205.160156 C 667.578125 1205.894531 664.273438 1206.625 661.15625 1207.726562 C 658.769531 1208.460938 656.570312 1209.378906 654.183594 1210.296875 C 653.449219 1210.664062 652.714844 1211.03125 651.984375 1211.214844 C 651.984375 1211.214844 651.984375 1211.214844 651.800781 1211.214844 C 649.78125 1212.128906 647.761719 1213.046875 645.929688 1214.148438 C 645.011719 1214.699219 644.09375 1215.25 643.175781 1215.800781 C 642.257812 1216.351562 641.34375 1216.898438 640.425781 1217.449219 C 638.222656 1218.917969 636.023438 1220.386719 634.003906 1222.035156 C 633.453125 1222.402344 632.902344 1222.953125 632.351562 1223.320312 C 631.800781 1223.871094 631.253906 1224.238281 630.703125 1224.789062 C 630.152344 1225.15625 629.785156 1225.707031 629.234375 1226.074219 C 628.683594 1226.625 628.132812 1226.988281 627.765625 1227.539062 C 627.214844 1228.089844 626.847656 1228.457031 626.300781 1229.007812 C 624.832031 1230.476562 623.363281 1231.945312 622.078125 1233.59375 C 619.328125 1236.714844 616.757812 1240.199219 614.558594 1243.683594 C 614.191406 1244.234375 613.824219 1244.785156 613.457031 1245.519531 C 613.089844 1246.070312 612.722656 1246.804688 612.355469 1247.355469 C 611.988281 1247.902344 611.621094 1248.636719 611.253906 1249.1875 C 610.890625 1249.921875 610.523438 1250.472656 610.15625 1251.207031 C 609.789062 1251.941406 609.421875 1252.671875 609.054688 1253.222656 C 608.503906 1254.324219 608.136719 1255.242188 607.585938 1256.34375 C 606.851562 1257.992188 606.117188 1259.644531 605.570312 1261.480469 C 602.265625 1270.652344 600.617188 1280.375 600.617188 1290.648438 C 600.617188 1338.714844 639.691406 1377.972656 687.941406 1377.972656 C 736.003906 1377.972656 775.265625 1338.898438 775.265625 1290.648438 C 775.265625 1280.191406 773.429688 1270.285156 770.128906 1260.929688 C 769.945312 1259.644531 769.578125 1258.542969 769.027344 1257.445312 Z M 769.027344 1257.445312 " fill-opacity="1" fill-rule="nonzero"/><path fill="#49c3fb" d="M 1194.089844 1256.160156 C 1193.722656 1255.058594 1193.171875 1253.957031 1192.621094 1253.039062 C 1192.4375 1252.855469 1192.4375 1252.671875 1192.4375 1252.488281 C 1192.253906 1251.941406 1191.886719 1251.574219 1191.703125 1251.023438 C 1191.703125 1250.839844 1191.519531 1250.839844 1191.519531 1250.65625 C 1190.972656 1249.554688 1190.421875 1248.636719 1189.871094 1247.71875 C 1186.566406 1241.851562 1182.53125 1236.347656 1177.945312 1231.394531 C 1177.210938 1230.660156 1176.476562 1229.742188 1175.5625 1229.007812 C 1174.644531 1227.90625 1173.542969 1226.988281 1172.441406 1226.074219 C 1171.890625 1225.523438 1171.523438 1225.15625 1170.972656 1224.789062 C 1170.972656 1224.789062 1170.792969 1224.789062 1170.792969 1224.605469 C 1170.242188 1224.238281 1169.875 1223.6875 1169.324219 1223.320312 C 1168.40625 1222.585938 1167.671875 1221.851562 1166.753906 1221.304688 C 1166.019531 1220.753906 1165.105469 1220.019531 1164.371094 1219.46875 C 1163.453125 1218.734375 1162.351562 1218 1161.25 1217.449219 C 1159.417969 1216.167969 1157.582031 1215.066406 1155.746094 1214.148438 C 1153.730469 1213.046875 1151.894531 1212.128906 1149.878906 1211.214844 C 1149.878906 1211.214844 1149.878906 1211.214844 1149.695312 1211.214844 C 1148.960938 1210.847656 1148.226562 1210.480469 1147.492188 1210.296875 C 1145.289062 1209.378906 1142.90625 1208.460938 1140.519531 1207.726562 C 1139.421875 1207.359375 1138.320312 1206.992188 1137.402344 1206.808594 C 1135.199219 1206.257812 1133 1205.710938 1130.796875 1205.160156 C 1129.699219 1204.976562 1128.597656 1204.792969 1127.496094 1204.609375 C 1126.578125 1204.425781 1125.84375 1204.425781 1124.925781 1204.242188 C 1124.5625 1204.242188 1124.011719 1204.058594 1123.644531 1204.058594 C 1122.726562 1203.875 1121.625 1203.875 1120.707031 1203.691406 C 1120.707031 1203.691406 1120.523438 1203.691406 1120.523438 1203.691406 C 1119.425781 1203.691406 1118.507812 1203.507812 1117.40625 1203.507812 L 1117.039062 1203.507812 C 1115.9375 1203.507812 1114.835938 1203.507812 1113.738281 1203.507812 C 1112.636719 1203.507812 1111.535156 1203.507812 1110.433594 1203.507812 L 1110.25 1203.507812 C 1109.152344 1203.507812 1108.234375 1203.691406 1107.132812 1203.691406 C 1107.132812 1203.691406 1106.949219 1203.691406 1106.949219 1203.691406 C 1106.03125 1203.691406 1105.113281 1203.875 1104.195312 1203.875 C 1103.648438 1203.875 1103.28125 1204.058594 1102.730469 1204.058594 C 1101.8125 1204.242188 1101.078125 1204.242188 1100.160156 1204.425781 C 1099.058594 1204.609375 1097.960938 1204.792969 1096.859375 1204.976562 C 1094.65625 1205.34375 1092.457031 1205.894531 1090.253906 1206.625 C 1089.152344 1206.992188 1088.054688 1207.175781 1087.136719 1207.542969 C 1084.933594 1208.277344 1082.917969 1209.011719 1080.898438 1209.746094 C 1079.796875 1210.113281 1078.878906 1210.664062 1077.78125 1211.03125 C 1075.761719 1211.945312 1073.742188 1212.863281 1071.910156 1213.964844 C 1069.890625 1215.066406 1068.058594 1216.167969 1066.222656 1217.265625 C 1065.304688 1217.816406 1064.570312 1218.367188 1063.652344 1218.917969 C 1063.46875 1218.917969 1063.46875 1219.101562 1063.285156 1219.101562 C 1062.371094 1219.652344 1061.636719 1220.386719 1060.71875 1220.9375 C 1059.800781 1221.488281 1059.066406 1222.21875 1058.148438 1222.953125 L 1057.785156 1223.320312 C 1057.234375 1223.871094 1056.5 1224.238281 1055.949219 1224.789062 C 1055.03125 1225.523438 1054.296875 1226.257812 1053.378906 1227.171875 C 1053.195312 1227.355469 1052.828125 1227.722656 1052.648438 1227.90625 C 1052.464844 1228.089844 1052.097656 1228.457031 1051.914062 1228.640625 C 1050.628906 1229.925781 1049.527344 1231.210938 1048.242188 1232.492188 C 1047.144531 1233.777344 1046.042969 1235.0625 1044.941406 1236.53125 C 1044.574219 1237.078125 1044.023438 1237.628906 1043.65625 1238.179688 C 1042.007812 1240.382812 1040.355469 1242.765625 1038.886719 1245.152344 C 1038.519531 1245.703125 1038.152344 1246.4375 1037.785156 1246.988281 C 1037.054688 1248.269531 1036.320312 1249.371094 1035.769531 1250.65625 C 1034.851562 1252.488281 1033.933594 1254.324219 1033.199219 1255.976562 L 1032.832031 1256.710938 C 1032.648438 1257.261719 1032.464844 1257.808594 1032.28125 1258.359375 C 1031.917969 1259.09375 1031.734375 1259.828125 1031.367188 1260.5625 C 1028.0625 1269.917969 1026.046875 1279.824219 1026.046875 1290.28125 C 1026.046875 1338.347656 1065.121094 1377.605469 1113.371094 1377.605469 C 1161.433594 1377.605469 1200.695312 1338.53125 1200.695312 1290.28125 C 1200.695312 1280.007812 1198.859375 1270.285156 1195.742188 1261.113281 C 1195.558594 1259.460938 1194.824219 1257.808594 1194.089844 1256.160156 Z M 1194.089844 1256.160156 " fill-opacity="1" fill-rule="nonzero"/><g clip-path="url(#2a3323271f)"><path fill="#49c3fb" d="M 666.660156 700.476562 L 788.105469 700.476562 C 794.527344 700.476562 799.664062 695.339844 799.664062 688.917969 L 799.664062 508.582031 C 799.664062 502.347656 794.527344 497.027344 788.105469 497.027344 C 781.867188 497.027344 776.546875 502.164062 776.546875 508.582031 L 776.546875 665.4375 C 776.546875 672.042969 771.226562 677.542969 764.441406 677.542969 L 666.660156 677.542969 C 660.421875 677.542969 655.101562 682.683594 655.101562 689.101562 C 655.101562 695.339844 660.238281 700.476562 666.660156 700.476562 Z M 666.660156 700.476562 " fill-opacity="1" fill-rule="nonzero"/></g><path fill="#49c3fb" d="M 1215.1875 950.339844 C 1225.09375 950.339844 1233.164062 942.269531 1233.164062 932.363281 C 1233.164062 922.457031 1225.09375 914.382812 1215.1875 914.382812 C 1205.28125 914.382812 1197.207031 922.457031 1197.207031 932.363281 C 1197.207031 942.269531 1205.28125 950.339844 1215.1875 950.339844 Z M 1215.1875 950.339844 " fill-opacity="1" fill-rule="nonzero"/></svg>