<svg xmlns="http://www.w3.org/2000/svg" xmlns:xlink="http://www.w3.org/1999/xlink" width="2500" zoomAndPan="magnify" viewBox="0 0 1874.88 1874.999927" height="2500" preserveAspectRatio="xMidYMid meet" version="1.0"><defs><clipPath id="ae39827172"><path d="M 187.488281 187.546875 L 1687.390625 187.546875 L 1687.390625 1687.453125 L 187.488281 1687.453125 Z M 187.488281 187.546875 " clip-rule="nonzero"/></clipPath><clipPath id="15d729c025"><path d="M 937.441406 187.546875 C 523.253906 187.546875 187.488281 523.3125 187.488281 937.5 C 187.488281 1351.6875 523.253906 1687.453125 937.441406 1687.453125 C 1351.625 1687.453125 1687.390625 1351.6875 1687.390625 937.5 C 1687.390625 523.3125 1351.625 187.546875 937.441406 187.546875 Z M 937.441406 187.546875 " clip-rule="nonzero"/></clipPath><clipPath id="67da3fa9b6"><path d="M 410 519.394531 L 1477 519.394531 L 1477 1350 L 410 1350 Z M 410 519.394531 " clip-rule="nonzero"/></clipPath></defs><g clip-path="url(#ae39827172)"><g clip-path="url(#15d729c025)"><path stroke-linecap="butt" transform="matrix(0.749952, 0, 0, 0.749952, 187.487992, 187.547956)" fill="none" stroke-linejoin="miter" d="M 1000.001863 -0.00144101 C 447.716529 -0.00144101 0.000385441 447.714703 0.000385441 1000.000037 C 0.000385441 1552.285371 447.716529 2000.001515 1000.001863 2000.001515 C 1552.287197 2000.001515 1999.998132 1552.285371 1999.998132 1000.000037 C 1999.998132 447.714703 1552.287197 -0.00144101 1000.001863 -0.00144101 Z M 1000.001863 -0.00144101 " stroke="#49c3fb" stroke-width="140" stroke-opacity="1" stroke-miterlimit="4"/></g></g><g clip-path="url(#67da3fa9b6)"><path fill="#49c3fb" d="M 1469.082031 1144.230469 L 1476.222656 1104.957031 L 1468.367188 962.136719 L 1449.800781 920.003906 L 1419.09375 899.296875 L 1370.535156 885.011719 L 1348.398438 887.15625 C 1348.398438 883.585938 1344.828125 880.730469 1341.972656 881.441406 L 1310.550781 883.585938 C 1306.980469 883.585938 1304.125 887.15625 1304.839844 890.011719 C 1304.839844 890.011719 1304.839844 890.726562 1304.839844 890.726562 L 1288.414062 892.152344 L 1288.414062 880.015625 L 1293.414062 876.445312 L 1289.84375 855.019531 L 1261.992188 875.015625 L 1261.992188 894.296875 L 1242 895.726562 L 1242 885.726562 L 1246.996094 882.15625 L 1243.425781 860.734375 L 1215.578125 880.730469 L 1215.578125 897.867188 L 1133.457031 904.292969 L 1133.457031 887.15625 C 1133.457031 883.585938 1130.601562 880.730469 1127.03125 880.730469 C 1123.457031 880.730469 1120.601562 883.585938 1120.601562 887.15625 L 1120.601562 905.007812 L 1106.320312 906.4375 L 1098.464844 950.710938 L 1054.90625 954.28125 L 1054.90625 944.285156 C 1054.90625 940.710938 1052.050781 937.140625 1047.765625 937.140625 C 1044.195312 937.140625 1040.625 940 1040.625 944.285156 L 1040.625 954.996094 L 1009.917969 957.136719 L 1012.773438 930 L 939.222656 732.195312 C 946.363281 719.34375 953.503906 706.488281 957.789062 692.207031 C 959.214844 687.207031 960.644531 680.78125 959.929688 675.070312 C 959.214844 672.925781 959.214844 671.5 957.789062 670.070312 C 957.789062 667.214844 958.503906 664.355469 957.789062 661.5 C 956.359375 654.359375 951.363281 648.648438 947.078125 644.363281 L 931.367188 626.511719 C 926.367188 620.796875 921.371094 615.796875 914.230469 615.085938 C 908.515625 614.371094 902.089844 616.511719 896.375 620.796875 C 893.519531 622.941406 891.378906 625.082031 889.234375 627.9375 C 887.808594 629.367188 887.09375 630.082031 885.664062 631.507812 C 880.667969 631.507812 876.382812 635.792969 876.382812 635.792969 L 722.851562 582.234375 L 723.566406 580.09375 C 724.277344 577.953125 723.566406 576.523438 722.136719 575.808594 L 709.28125 571.523438 C 707.855469 570.808594 706.425781 572.238281 705.710938 574.382812 L 703.570312 580.09375 L 642.871094 558.671875 L 644.300781 545.816406 L 640.015625 543.675781 C 640.015625 541.53125 640.730469 539.390625 640.730469 537.246094 C 640.730469 535.820312 640.730469 535.105469 640.015625 533.675781 C 639.300781 532.25 638.585938 530.820312 637.871094 530.105469 C 635.015625 526.535156 630.019531 520.824219 623.589844 520.109375 C 620.734375 519.394531 617.164062 520.109375 615.023438 520.824219 C 611.453125 521.539062 607.878906 522.25 605.023438 523.679688 C 602.882812 524.394531 600.027344 525.109375 597.167969 526.535156 C 592.882812 528.679688 590.027344 532.25 587.171875 535.820312 C 574.316406 540.816406 565.75 548.671875 565.75 548.671875 C 561.464844 553.671875 561.464844 557.957031 562.894531 560.8125 L 555.039062 582.234375 C 549.324219 586.519531 543.613281 591.519531 538.613281 596.519531 C 537.183594 597.945312 535.757812 599.375 535.042969 601.515625 C 534.328125 604.371094 535.042969 607.230469 535.757812 609.371094 C 537.183594 615.085938 538.613281 620.082031 539.328125 625.796875 L 535.757812 635.078125 L 522.1875 643.648438 C 519.332031 645.078125 516.476562 647.21875 513.621094 650.074219 C 509.335938 655.074219 507.90625 660.785156 507.191406 666.5 C 505.765625 675.070312 505.050781 682.210938 505.765625 687.921875 C 506.480469 692.207031 507.90625 698.632812 511.476562 703.632812 L 507.90625 712.914062 L 505.050781 712.203125 C 502.910156 711.488281 501.480469 712.203125 500.765625 713.628906 L 496.480469 725.769531 C 495.765625 727.199219 497.195312 728.625 499.339844 729.339844 L 505.050781 731.480469 L 469.347656 830.027344 L 460.0625 835.742188 C 460.0625 835.742188 450.777344 835.742188 448.636719 839.3125 C 448.636719 839.3125 442.925781 845.023438 445.78125 850.738281 L 445.066406 855.019531 C 442.925781 854.308594 441.496094 854.308594 440.066406 854.308594 C 440.066406 854.308594 417.929688 856.449219 420.789062 892.867188 L 420.789062 922.859375 C 420.789062 922.859375 398.648438 967.132812 418.644531 1008.550781 C 418.644531 1008.550781 429.355469 1028.546875 478.628906 1031.402344 L 624.304688 1042.828125 C 624.304688 1042.828125 652.867188 1041.402344 672.148438 1015.691406 L 692.144531 992.128906 L 700.714844 991.414062 L 749.273438 933.570312 L 743.558594 930.714844 L 732.847656 933.570312 L 722.136719 940.710938 L 718.566406 940.710938 L 727.847656 927.859375 L 718.566406 925.714844 L 709.28125 929.289062 L 692.859375 941.425781 L 689.289062 941.425781 L 703.570312 923.574219 L 695.714844 921.433594 L 672.148438 932.859375 L 667.152344 940 L 662.867188 939.285156 L 678.578125 917.148438 L 670.722656 915.71875 L 649.296875 926.429688 L 644.300781 922.859375 L 652.867188 911.433594 L 642.15625 910.722656 L 635.015625 915.003906 L 612.164062 890.011719 C 612.164062 890.011719 607.878906 886.441406 602.882812 887.871094 L 571.460938 883.585938 L 554.324219 858.589844 L 643.585938 690.066406 L 754.269531 729.339844 C 760.699219 732.195312 766.410156 735.054688 772.125 738.625 L 784.976562 816.460938 L 777.121094 817.886719 C 774.265625 818.601562 772.835938 819.316406 772.835938 820.746094 L 774.265625 830.027344 C 774.265625 830.742188 776.40625 831.457031 779.265625 830.742188 L 782.835938 830.027344 L 802.828125 947.855469 L 765.695312 949.996094 L 760.699219 955.710938 L 760.699219 959.28125 L 775.695312 959.28125 L 763.554688 1022.835938 L 693.574219 1026.40625 L 693.574219 1104.242188 L 691.429688 1104.242188 L 691.429688 1125.664062 L 708.570312 1125.664062 L 708.570312 1132.804688 L 737.847656 1144.230469 L 904.945312 1144.230469 L 904.945312 1162.796875 L 809.257812 1162.796875 C 809.257812 1162.796875 784.261719 1164.226562 777.835938 1166.367188 C 777.835938 1166.367188 760.699219 1177.792969 757.128906 1196.359375 L 753.554688 1259.914062 C 753.554688 1259.914062 754.269531 1288.476562 761.410156 1294.191406 L 844.246094 1344.179688 C 844.246094 1344.179688 900.660156 1355.605469 945.648438 1346.320312 L 949.21875 1331.324219 L 947.792969 1328.46875 L 951.363281 1309.902344 L 953.503906 1306.332031 L 953.503906 1291.335938 L 952.789062 1287.765625 L 953.503906 1262.058594 L 954.933594 1256.34375 L 952.074219 1253.488281 L 951.363281 1239.207031 L 947.792969 1222.78125 L 1046.335938 1222.78125 L 1046.335938 1241.347656 L 1049.191406 1250.632812 L 1054.90625 1258.484375 L 1056.332031 1271.339844 L 1062.761719 1286.335938 L 1069.1875 1292.050781 L 1265.566406 1333.464844 C 1265.566406 1333.464844 1324.121094 1340.609375 1341.972656 1328.46875 L 1353.398438 1313.472656 L 1356.96875 1311.328125 L 1359.113281 1298.476562 L 1363.394531 1289.191406 L 1363.394531 1282.050781 L 1361.253906 1274.910156 L 1361.253906 1269.910156 L 1358.398438 1249.917969 L 1359.113281 1247.773438 L 1359.113281 1242.0625 L 1352.683594 1227.78125 L 1346.257812 1213.5 L 1346.972656 1209.925781 L 1336.976562 1198.503906 L 1330.546875 1194.21875 L 1325.550781 1192.789062 L 1319.835938 1187.789062 L 1266.992188 1162.796875 L 1109.890625 1162.796875 L 1109.890625 1144.945312 L 1469.082031 1144.945312 Z M 1218.433594 964.277344 L 1296.984375 959.28125 L 1296.984375 969.992188 L 1216.292969 974.277344 Z M 1218.433594 983.558594 L 1296.984375 978.558594 L 1296.984375 989.273438 L 1216.292969 993.554688 Z M 1218.433594 1003.554688 L 1296.984375 998.554688 L 1296.984375 1009.265625 L 1216.292969 1013.550781 Z M 1218.433594 1023.546875 L 1296.984375 1018.550781 L 1296.984375 1029.261719 L 1216.292969 1033.546875 Z M 488.625 840.023438 C 488.625 840.023438 477.199219 846.453125 470.773438 863.589844 L 457.207031 860.734375 L 458.632812 855.734375 C 461.492188 855.019531 464.347656 853.59375 467.203125 849.308594 C 467.203125 849.308594 476.488281 837.882812 490.769531 833.597656 Z M 497.195312 812.890625 L 487.914062 818.601562 L 517.90625 735.054688 L 520.761719 736.480469 Z M 513.621094 695.0625 C 512.90625 692.207031 512.191406 690.066406 512.191406 687.207031 C 511.476562 681.496094 512.191406 675.78125 513.621094 667.925781 C 514.332031 662.929688 515.761719 658.644531 518.617188 655.074219 C 520.761719 652.929688 522.902344 651.503906 525.757812 650.074219 L 532.1875 646.503906 Z M 543.613281 612.941406 C 542.898438 610.800781 542.898438 609.371094 542.183594 607.230469 C 541.46875 605.800781 541.46875 604.371094 541.46875 602.945312 C 541.46875 602.230469 542.898438 601.515625 543.613281 600.800781 C 545.753906 598.660156 547.898438 596.519531 550.753906 594.375 Z M 576.460938 618.65625 C 574.316406 618.65625 572.175781 615.085938 572.175781 610.800781 C 572.175781 606.515625 574.316406 602.945312 576.460938 602.945312 C 578.601562 602.945312 580.746094 606.515625 580.746094 610.800781 C 580.746094 615.085938 578.601562 618.65625 576.460938 618.65625 Z M 633.589844 536.535156 C 633.589844 537.246094 633.589844 538.675781 633.589844 539.390625 L 627.160156 535.820312 C 617.164062 531.535156 607.878906 530.105469 599.3125 531.535156 C 601.453125 530.820312 603.597656 530.105469 605.738281 529.394531 C 608.59375 528.679688 612.164062 527.25 615.734375 526.535156 C 617.878906 525.820312 620.019531 525.820312 622.164062 525.820312 C 625.734375 526.535156 629.304688 530.105469 632.875 533.675781 C 632.875 533.675781 633.589844 534.390625 633.589844 535.105469 C 633.589844 535.105469 633.589844 535.820312 633.589844 536.535156 Z M 743.558594 1103.527344 L 697.855469 1103.527344 L 697.855469 1031.402344 L 743.558594 1033.546875 Z M 743.558594 1029.976562 L 721.421875 1028.546875 L 743.558594 1027.117188 Z M 752.128906 1103.527344 L 747.84375 1103.527344 L 747.84375 1034.257812 L 752.128906 1034.257812 Z M 756.414062 1062.109375 L 756.414062 1031.402344 L 747.84375 1030.6875 L 747.84375 1027.832031 L 762.839844 1027.117188 Z M 658.582031 619.367188 L 660.011719 612.941406 L 641.441406 580.09375 L 642.15625 571.523438 L 700 591.519531 L 697.855469 597.230469 C 697.144531 599.375 697.855469 600.800781 699.285156 601.515625 L 712.140625 605.800781 C 713.566406 606.515625 714.996094 605.085938 715.710938 602.945312 L 716.421875 600.800781 L 839.960938 643.648438 Z M 792.117188 751.476562 C 805.6875 762.1875 817.109375 774.328125 825.679688 786.46875 L 832.105469 827.171875 L 824.253906 828.597656 C 821.394531 829.3125 819.96875 830.027344 819.96875 831.457031 L 821.394531 840.738281 C 821.394531 841.453125 823.539062 842.167969 826.394531 841.453125 L 829.964844 840.738281 L 847.101562 944.996094 L 829.25 946.425781 L 809.257812 825.742188 L 812.828125 825.027344 C 815.683594 824.316406 817.109375 823.601562 817.109375 822.171875 L 815.683594 812.890625 C 815.683594 812.175781 813.539062 811.460938 810.683594 812.175781 L 802.828125 813.601562 Z M 859.242188 1103.527344 L 769.265625 1103.527344 L 769.265625 1072.820312 L 778.550781 1025.691406 L 859.242188 1021.40625 Z M 867.097656 1103.527344 L 863.527344 1103.527344 L 863.527344 1016.40625 L 779.976562 1020.691406 L 789.261719 970.703125 L 867.8125 965.707031 L 867.8125 1103.527344 Z M 874.953125 942.855469 L 859.957031 852.878906 L 886.378906 942.140625 Z M 897.089844 635.792969 C 895.660156 634.363281 894.234375 633.652344 893.519531 633.652344 C 893.519531 633.652344 894.234375 632.9375 894.234375 632.9375 C 896.375 630.792969 898.519531 628.652344 900.660156 626.511719 C 903.515625 624.367188 907.800781 621.511719 913.515625 622.226562 C 918.511719 622.941406 922.082031 627.222656 926.367188 631.507812 L 942.078125 649.359375 C 944.222656 651.503906 946.363281 654.359375 947.792969 656.503906 L 933.507812 640.078125 C 928.511719 634.363281 923.511719 629.367188 916.371094 628.652344 C 910.65625 627.9375 904.230469 630.082031 898.519531 634.363281 C 898.519531 634.363281 897.804688 635.078125 897.089844 635.792969 Z M 912.800781 660.074219 C 911.371094 651.503906 906.375 645.078125 902.804688 640.078125 C 902.804688 640.078125 903.515625 639.363281 904.230469 639.363281 C 907.085938 637.222656 911.371094 634.363281 917.085938 635.078125 C 922.082031 635.792969 925.652344 640.078125 929.9375 644.363281 L 945.648438 662.214844 C 947.792969 665.070312 950.648438 667.214844 952.074219 670.785156 C 951.363281 672.925781 951.363281 674.355469 950.648438 676.496094 C 946.363281 689.351562 939.9375 701.492188 933.507812 713.628906 Z M 935.652344 721.484375 C 940.648438 712.203125 945.648438 703.632812 949.933594 693.636719 C 946.363281 703.632812 941.363281 713.628906 936.367188 722.914062 Z M 1227.003906 1216.355469 L 1231.289062 1213.5 L 1232.714844 1212.070312 L 1237.714844 1212.070312 L 1237.714844 1214.210938 L 1241.285156 1213.5 L 1243.425781 1210.640625 L 1250.570312 1206.355469 L 1259.851562 1211.355469 L 1265.566406 1223.496094 L 1227.003906 1220.640625 Z M 1003.492188 1059.253906 L 1007.0625 999.984375 L 1117.746094 993.554688 L 1115.605469 1053.539062 Z M 1003.492188 1059.253906 " fill-opacity="1" fill-rule="nonzero"/></g><path fill="#49c3fb" d="M 1005.632812 1057.109375 L 1113.460938 1051.398438 L 1115.605469 995.699219 L 1009.203125 1002.125 Z M 1005.632812 1057.109375 " fill-opacity="1" fill-rule="nonzero"/></svg>