<svg xmlns="http://www.w3.org/2000/svg" xmlns:xlink="http://www.w3.org/1999/xlink" width="2500" zoomAndPan="magnify" viewBox="0 0 1874.88 1874.999927" height="2500" preserveAspectRatio="xMidYMid meet" version="1.0"><defs><clipPath id="8c0b0e2699"><path d="M 187.488281 187.546875 L 1687.390625 187.546875 L 1687.390625 1687.453125 L 187.488281 1687.453125 Z M 187.488281 187.546875 " clip-rule="nonzero"/></clipPath><clipPath id="9f8b3b8b3d"><path d="M 937.441406 187.546875 C 523.253906 187.546875 187.488281 523.3125 187.488281 937.5 C 187.488281 1351.6875 523.253906 1687.453125 937.441406 1687.453125 C 1351.625 1687.453125 1687.390625 1351.6875 1687.390625 937.5 C 1687.390625 523.3125 1351.625 187.546875 937.441406 187.546875 Z M 937.441406 187.546875 " clip-rule="nonzero"/></clipPath><clipPath id="71669a9321"><path d="M 405.5 660 L 1469.683594 660 L 1469.683594 1178 L 405.5 1178 Z M 405.5 660 " clip-rule="nonzero"/></clipPath></defs><g clip-path="url(#8c0b0e2699)"><g clip-path="url(#9f8b3b8b3d)"><path stroke-linecap="butt" transform="matrix(0.749952, 0, 0, 0.749952, 187.487992, 187.547956)" fill="none" stroke-linejoin="miter" d="M 1000.001863 -0.00144101 C 447.716529 -0.00144101 0.000385441 447.714703 0.000385441 1000.000037 C 0.000385441 1552.285371 447.716529 2000.001515 1000.001863 2000.001515 C 1552.287197 2000.001515 1999.998132 1552.285371 1999.998132 1000.000037 C 1999.998132 447.714703 1552.287197 -0.00144101 1000.001863 -0.00144101 Z M 1000.001863 -0.00144101 " stroke="#49c3fb" stroke-width="140" stroke-opacity="1" stroke-miterlimit="4"/></g></g><g clip-path="url(#71669a9321)"><path fill="#49c3fb" d="M 481.660156 918.539062 C 468.335938 932.757812 458.9375 950.621094 455.109375 970.449219 L 443.71875 1029.433594 L 417.777344 1029.433594 C 410.996094 1029.433594 405.5 1034.929688 405.5 1041.707031 L 405.5 1073.546875 C 405.5 1080.328125 410.996094 1085.820312 417.777344 1085.820312 L 432.828125 1085.820312 L 429.046875 1105.410156 L 459.742188 1105.410156 C 458.007812 1113.722656 457.085938 1122.324219 457.085938 1131.144531 L 481.214844 1131.144531 C 481.214844 1075.003906 526.730469 1029.488281 582.875 1029.488281 C 639.019531 1029.488281 684.53125 1075.003906 684.53125 1131.144531 L 708.667969 1131.144531 C 708.667969 1122.324219 707.742188 1113.722656 706.007812 1105.410156 L 870.125 1105.410156 C 868.390625 1113.722656 867.46875 1122.324219 867.46875 1131.144531 L 891.597656 1131.144531 C 891.597656 1075.003906 937.113281 1029.488281 993.253906 1029.488281 C 1049.398438 1029.488281 1094.914062 1075.003906 1094.914062 1131.144531 L 1119.042969 1131.144531 C 1119.042969 1080.734375 1089.222656 1037.179688 1046.308594 1017.128906 L 1046.308594 1002.78125 L 1086.464844 1014.054688 L 1140.496094 1085.097656 L 1146.679688 1080.394531 L 1201.808594 1152.878906 C 1198.664062 1158.625 1199.019531 1165.957031 1203.304688 1171.410156 C 1209.027344 1178.691406 1219.667969 1179.964844 1226.945312 1174.242188 L 1244.085938 1160.769531 C 1254.304688 1163.789062 1265.378906 1163.964844 1276.066406 1160.835938 L 1288.242188 1157.269531 L 1319.035156 1163.738281 L 1462.160156 1113.65625 L 1469.25 1099.199219 L 1426.308594 1092.378906 L 1306.054688 998.746094 L 1318.097656 970.40625 L 1314.28125 961.515625 L 1263.769531 1010.597656 L 1249.683594 1077.296875 L 1218.945312 1060.082031 L 1192.242188 992.265625 C 1184.632812 972.949219 1168.96875 957.917969 1149.351562 951.121094 L 1116.109375 939.59375 L 1116.253906 913.085938 L 990.375 869.117188 L 967.746094 888.152344 L 912.703125 869.066406 L 912.703125 858.746094 L 894.175781 858.746094 L 861.640625 698.660156 L 897.542969 698.660156 L 897.542969 682.710938 C 897.542969 677.621094 893.417969 673.492188 888.324219 673.492188 L 706.089844 673.492188 L 706.089844 669.417969 C 706.089844 664.324219 701.960938 660.199219 696.871094 660.199219 L 608.328125 660.199219 C 603.238281 660.199219 599.109375 664.324219 599.109375 669.417969 L 599.109375 673.496094 L 566.945312 673.496094 C 561.855469 673.496094 557.726562 677.621094 557.726562 682.714844 L 557.726562 698.660156 L 599.105469 698.660156 L 599.105469 858.746094 L 562.167969 858.746094 L 562.167969 878.789062 L 554.199219 881.335938 L 554.199219 871.9375 L 535.421875 871.9375 L 535.421875 853.421875 L 526.632812 853.421875 L 526.632812 871.9375 L 515.429688 871.9375 L 515.429688 821.683594 L 504.882812 813.777344 L 499.613281 820.804688 L 506.640625 826.078125 L 506.640625 871.933594 L 481.660156 871.933594 Z M 663.347656 979.867188 L 536.375 979.867188 L 536.375 967.945312 L 663.347656 967.945312 Z M 663.347656 949.9375 L 536.375 949.9375 L 536.375 938.011719 L 663.347656 938.011719 Z M 1243.332031 1121.710938 C 1243.332031 1114.691406 1249.019531 1109.003906 1256.039062 1109.003906 C 1263.054688 1109.003906 1268.742188 1114.691406 1268.742188 1121.710938 C 1268.742188 1128.726562 1263.050781 1134.414062 1256.039062 1134.414062 C 1249.023438 1134.417969 1243.332031 1128.726562 1243.332031 1121.710938 Z M 1215.035156 1140.777344 L 1210.398438 1144.421875 L 1156.199219 1073.160156 L 1159.738281 1070.464844 Z M 1138.304688 991.011719 C 1138.304688 999.429688 1131.480469 1006.25 1123.0625 1006.25 C 1114.648438 1006.25 1107.824219 999.425781 1107.824219 991.011719 C 1107.824219 982.59375 1114.648438 975.769531 1123.0625 975.769531 C 1131.480469 975.769531 1138.304688 982.59375 1138.304688 991.011719 Z M 993.535156 886.359375 L 1100.949219 923.878906 L 1100.894531 934.3125 L 984.507812 893.957031 Z M 874.328125 858.738281 L 850.183594 858.738281 L 850.183594 901.535156 L 685.5625 901.535156 L 685.5625 858.738281 L 644.070312 858.738281 L 644.070312 698.65625 L 841.792969 698.65625 Z M 618.554688 698.65625 L 631.9375 698.65625 L 631.9375 858.742188 L 618.554688 858.742188 Z M 618.554688 698.65625 " fill-opacity="1" fill-rule="nonzero"/></g><path fill="#49c3fb" d="M 1076.761719 1131.144531 C 1076.761719 1085.097656 1039.308594 1047.640625 993.261719 1047.640625 C 947.21875 1047.640625 909.753906 1085.097656 909.753906 1131.144531 C 909.753906 1177.1875 947.21875 1214.652344 993.261719 1214.652344 C 1039.308594 1214.652344 1076.761719 1177.1875 1076.761719 1131.144531 Z M 993.265625 1178.347656 C 967.226562 1178.347656 946.058594 1157.171875 946.058594 1131.140625 C 946.058594 1105.121094 967.230469 1083.949219 993.265625 1083.949219 C 1019.28125 1083.949219 1040.457031 1105.121094 1040.457031 1131.140625 C 1040.453125 1157.171875 1019.28125 1178.347656 993.265625 1178.347656 Z M 993.265625 1178.347656 " fill-opacity="1" fill-rule="nonzero"/><path fill="#49c3fb" d="M 1010.84375 1131.144531 C 1010.84375 1121.433594 1002.96875 1113.558594 993.253906 1113.558594 C 983.542969 1113.558594 975.667969 1121.433594 975.667969 1131.144531 C 975.667969 1140.859375 983.542969 1148.734375 993.253906 1148.734375 C 1002.96875 1148.734375 1010.84375 1140.859375 1010.84375 1131.144531 Z M 1010.84375 1131.144531 " fill-opacity="1" fill-rule="nonzero"/><path fill="#49c3fb" d="M 666.382812 1131.144531 C 666.382812 1085.097656 628.929688 1047.640625 582.882812 1047.640625 C 536.839844 1047.640625 499.375 1085.097656 499.375 1131.144531 C 499.375 1177.1875 536.839844 1214.652344 582.882812 1214.652344 C 628.929688 1214.652344 666.382812 1177.1875 666.382812 1131.144531 Z M 582.886719 1178.347656 C 556.847656 1178.347656 535.679688 1157.171875 535.679688 1131.140625 C 535.679688 1105.121094 556.851562 1083.949219 582.886719 1083.949219 C 608.902344 1083.949219 630.078125 1105.121094 630.078125 1131.140625 C 630.074219 1157.171875 608.902344 1178.347656 582.886719 1178.347656 Z M 582.886719 1178.347656 " fill-opacity="1" fill-rule="nonzero"/><path fill="#49c3fb" d="M 600.464844 1131.144531 C 600.464844 1121.433594 592.589844 1113.558594 582.878906 1113.558594 C 573.164062 1113.558594 565.289062 1121.433594 565.289062 1131.144531 C 565.289062 1140.859375 573.164062 1148.734375 582.878906 1148.734375 C 592.589844 1148.734375 600.464844 1140.859375 600.464844 1131.144531 Z M 600.464844 1131.144531 " fill-opacity="1" fill-rule="nonzero"/></svg>