<svg xmlns="http://www.w3.org/2000/svg" xmlns:xlink="http://www.w3.org/1999/xlink" width="2500" zoomAndPan="magnify" viewBox="0 0 1874.88 1874.999927" height="2500" preserveAspectRatio="xMidYMid meet" version="1.0"><defs><clipPath id="8866b347a3"><path d="M 187.488281 187.546875 L 1687.390625 187.546875 L 1687.390625 1687.453125 L 187.488281 1687.453125 Z M 187.488281 187.546875 " clip-rule="nonzero"/></clipPath><clipPath id="ddf107ca9c"><path d="M 937.441406 187.546875 C 523.253906 187.546875 187.488281 523.3125 187.488281 937.5 C 187.488281 1351.6875 523.253906 1687.453125 937.441406 1687.453125 C 1351.625 1687.453125 1687.390625 1351.6875 1687.390625 937.5 C 1687.390625 523.3125 1351.625 187.546875 937.441406 187.546875 Z M 937.441406 187.546875 " clip-rule="nonzero"/></clipPath><clipPath id="81a68509b5"><path d="M 810 1148 L 1440 1148 L 1440 1245.351562 L 810 1245.351562 Z M 810 1148 " clip-rule="nonzero"/></clipPath><clipPath id="8be3fdf373"><path d="M 436 629.640625 L 969 629.640625 L 969 827 L 436 827 Z M 436 629.640625 " clip-rule="nonzero"/></clipPath></defs><g clip-path="url(#8866b347a3)"><g clip-path="url(#ddf107ca9c)"><path stroke-linecap="butt" transform="matrix(0.749952, 0, 0, 0.749952, 187.487992, 187.547956)" fill="none" stroke-linejoin="miter" d="M 1000.001863 -0.00144101 C 447.716529 -0.00144101 0.000385441 447.714703 0.000385441 1000.000037 C 0.000385441 1552.285371 447.716529 2000.001515 1000.001863 2000.001515 C 1552.287197 2000.001515 1999.998132 1552.285371 1999.998132 1000.000037 C 1999.998132 447.714703 1552.287197 -0.00144101 1000.001863 -0.00144101 Z M 1000.001863 -0.00144101 " stroke="#49c3fb" stroke-width="140" stroke-opacity="1" stroke-miterlimit="4"/></g></g><path fill="#49c3fb" d="M 1462.851562 909.167969 L 1131.316406 909.167969 L 1131.316406 1119.640625 L 1462.851562 1119.640625 C 1465.949219 1119.640625 1468.605469 1116.984375 1468.605469 1113.886719 L 1468.605469 914.699219 C 1468.605469 911.824219 1465.949219 909.167969 1462.851562 909.167969 Z M 1392.914062 1091.535156 L 1206.785156 1091.535156 C 1198.816406 1091.535156 1192.179688 1085.117188 1192.179688 1076.925781 C 1192.179688 1068.738281 1198.597656 1062.320312 1206.785156 1062.320312 L 1392.914062 1062.320312 C 1400.882812 1062.320312 1407.523438 1068.738281 1407.523438 1076.925781 C 1407.523438 1085.117188 1401.105469 1091.535156 1392.914062 1091.535156 Z M 1392.914062 1029.121094 L 1206.785156 1029.121094 C 1198.816406 1029.121094 1192.179688 1022.703125 1192.179688 1014.515625 C 1192.179688 1006.546875 1198.597656 999.90625 1206.785156 999.90625 L 1392.914062 999.90625 C 1400.882812 999.90625 1407.523438 1006.324219 1407.523438 1014.515625 C 1407.523438 1022.480469 1401.105469 1029.121094 1392.914062 1029.121094 Z M 1392.914062 966.488281 L 1206.785156 966.488281 C 1198.816406 966.488281 1192.179688 960.070312 1192.179688 951.882812 C 1192.179688 943.691406 1198.597656 937.273438 1206.785156 937.273438 L 1392.914062 937.273438 C 1400.882812 937.273438 1407.523438 943.691406 1407.523438 951.882812 C 1407.523438 960.070312 1401.105469 966.488281 1392.914062 966.488281 Z M 1392.914062 966.488281 " fill-opacity="1" fill-rule="nonzero"/><path fill="#49c3fb" d="M 1102.324219 778.589844 L 1050.753906 778.589844 C 1050.3125 778.589844 1049.871094 778.589844 1049.648438 778.589844 L 856.660156 778.589844 L 835.191406 814.664062 C 835.191406 814.882812 834.96875 814.882812 834.96875 815.105469 L 785.394531 898.765625 L 785.394531 1114.109375 C 785.394531 1117.207031 788.050781 1119.863281 791.148438 1119.863281 L 1102.542969 1119.863281 L 1102.542969 778.589844 Z M 977.277344 1052.359375 L 946.292969 1052.359375 C 938.324219 1052.359375 931.683594 1045.941406 931.683594 1037.753906 C 931.683594 1029.785156 938.105469 1023.144531 946.292969 1023.144531 L 977.277344 1023.144531 C 985.246094 1023.144531 991.882812 1029.566406 991.882812 1037.753906 C 991.882812 1045.941406 985.246094 1052.359375 977.277344 1052.359375 Z M 1068.238281 904.078125 C 1068.238281 907.839844 1066.691406 911.601562 1064.035156 914.257812 L 997.195312 981.09375 C 994.539062 983.75 990.777344 985.300781 986.792969 985.300781 L 831.207031 985.300781 C 823.238281 985.300781 816.597656 978.882812 816.597656 970.695312 L 816.597656 913.152344 C 816.597656 910.714844 817.261719 908.28125 818.371094 906.066406 L 866.617188 818.425781 C 869.050781 813.777344 873.921875 810.902344 879.234375 810.902344 L 1053.410156 810.015625 C 1057.171875 810.015625 1060.9375 811.566406 1063.8125 814.222656 C 1066.46875 816.875 1068.019531 820.640625 1068.019531 824.621094 L 1068.019531 904.078125 Z M 1068.238281 904.078125 " fill-opacity="1" fill-rule="nonzero"/><path fill="#49c3fb" d="M 846.035156 917.132812 L 846.035156 956.308594 L 980.820312 956.308594 L 1039.246094 898.101562 L 1039.246094 839.453125 L 888.308594 840.113281 Z M 846.035156 917.132812 " fill-opacity="1" fill-rule="nonzero"/><g clip-path="url(#81a68509b5)"><path fill="#49c3fb" d="M 1390.921875 1148.855469 L 859.09375 1148.855469 C 832.535156 1148.855469 810.84375 1170.546875 810.84375 1197.101562 C 810.84375 1223.660156 832.535156 1245.351562 859.09375 1245.351562 L 1390.921875 1245.351562 C 1417.480469 1245.351562 1439.171875 1223.660156 1439.171875 1197.101562 C 1439.171875 1170.546875 1417.480469 1148.855469 1390.921875 1148.855469 Z M 893.839844 1211.933594 C 885.652344 1211.933594 879.011719 1205.292969 879.011719 1197.101562 C 879.011719 1188.914062 885.652344 1182.273438 893.839844 1182.273438 C 902.027344 1182.273438 908.667969 1188.914062 908.667969 1197.101562 C 908.667969 1205.292969 902.027344 1211.933594 893.839844 1211.933594 Z M 986.128906 1211.933594 C 977.941406 1211.933594 971.300781 1205.292969 971.300781 1197.101562 C 971.300781 1188.914062 977.941406 1182.273438 986.128906 1182.273438 C 994.320312 1182.273438 1000.957031 1188.914062 1000.957031 1197.101562 C 1001.179688 1205.292969 994.539062 1211.933594 986.128906 1211.933594 Z M 1078.640625 1211.933594 C 1070.453125 1211.933594 1063.8125 1205.292969 1063.8125 1197.101562 C 1063.8125 1188.914062 1070.453125 1182.273438 1078.640625 1182.273438 C 1086.832031 1182.273438 1093.46875 1188.914062 1093.46875 1197.101562 C 1093.691406 1205.292969 1086.832031 1211.933594 1078.640625 1211.933594 Z M 1171.152344 1211.933594 C 1162.964844 1211.933594 1156.324219 1205.292969 1156.324219 1197.101562 C 1156.324219 1188.914062 1162.964844 1182.273438 1171.152344 1182.273438 C 1179.34375 1182.273438 1185.980469 1188.914062 1185.980469 1197.101562 C 1186.203125 1205.292969 1179.34375 1211.933594 1171.152344 1211.933594 Z M 1263.664062 1211.933594 C 1255.476562 1211.933594 1248.835938 1205.292969 1248.835938 1197.101562 C 1248.835938 1188.914062 1255.476562 1182.273438 1263.664062 1182.273438 C 1271.855469 1182.273438 1278.492188 1188.914062 1278.492188 1197.101562 C 1278.492188 1205.292969 1271.851562 1211.933594 1263.664062 1211.933594 Z M 1356.175781 1211.933594 C 1347.988281 1211.933594 1341.347656 1205.292969 1341.347656 1197.101562 C 1341.347656 1188.914062 1347.988281 1182.273438 1356.175781 1182.273438 C 1364.363281 1182.273438 1371.003906 1188.914062 1371.003906 1197.101562 C 1371.003906 1205.292969 1364.363281 1211.933594 1356.175781 1211.933594 Z M 1356.175781 1211.933594 " fill-opacity="1" fill-rule="nonzero"/></g><g clip-path="url(#8be3fdf373)"><path fill="#49c3fb" d="M 835.632812 756.679688 C 838.289062 752.25 842.9375 749.59375 848.25 749.59375 L 968.867188 749.59375 L 644.191406 629.640625 L 446.332031 773.71875 L 436.152344 826.835938 L 475.324219 826.835938 L 483.070312 783.898438 C 483.734375 779.695312 486.390625 776.152344 489.933594 773.941406 L 649.945312 679.4375 C 654.816406 676.558594 661.011719 676.78125 665.660156 680.101562 L 817.707031 786.554688 Z M 835.632812 756.679688 " fill-opacity="1" fill-rule="nonzero"/></g><path fill="#49c3fb" d="M 406.273438 855.828125 L 504.316406 855.828125 L 504.316406 887.035156 L 406.273438 887.035156 Z M 406.273438 855.828125 " fill-opacity="1" fill-rule="nonzero"/><path fill="#49c3fb" d="M 429.289062 916.25 L 480.859375 916.25 L 480.859375 1076.484375 L 429.289062 1076.484375 Z M 429.289062 916.25 " fill-opacity="1" fill-rule="nonzero"/><path fill="#49c3fb" d="M 440.578125 1192.898438 C 440.578125 1200.867188 446.996094 1207.503906 455.183594 1207.503906 C 463.152344 1207.503906 469.792969 1201.085938 469.792969 1192.898438 L 469.792969 1105.476562 L 440.578125 1105.476562 Z M 440.578125 1192.898438 " fill-opacity="1" fill-rule="nonzero"/></svg>