<svg xmlns="http://www.w3.org/2000/svg" xmlns:xlink="http://www.w3.org/1999/xlink" width="2500" zoomAndPan="magnify" viewBox="0 0 1874.88 1874.999927" height="2500" preserveAspectRatio="xMidYMid meet" version="1.0"><defs><clipPath id="482c59c75a"><path d="M 187.488281 187.546875 L 1687.390625 187.546875 L 1687.390625 1687.453125 L 187.488281 1687.453125 Z M 187.488281 187.546875 " clip-rule="nonzero"/></clipPath><clipPath id="6eb2d45888"><path d="M 937.441406 187.546875 C 523.253906 187.546875 187.488281 523.3125 187.488281 937.5 C 187.488281 1351.6875 523.253906 1687.453125 937.441406 1687.453125 C 1351.625 1687.453125 1687.390625 1351.6875 1687.390625 937.5 C 1687.390625 523.3125 1351.625 187.546875 937.441406 187.546875 Z M 937.441406 187.546875 " clip-rule="nonzero"/></clipPath><clipPath id="5e7e948d02"><path d="M 408 631 L 1473 631 L 1473 1249.597656 L 408 1249.597656 Z M 408 631 " clip-rule="nonzero"/></clipPath></defs><g clip-path="url(#482c59c75a)"><g clip-path="url(#6eb2d45888)"><path stroke-linecap="butt" transform="matrix(0.749952, 0, 0, 0.749952, 187.487992, 187.547956)" fill="none" stroke-linejoin="miter" d="M 1000.001863 -0.00144101 C 447.716529 -0.00144101 0.000385441 447.714703 0.000385441 1000.000037 C 0.000385441 1552.285371 447.716529 2000.001515 1000.001863 2000.001515 C 1552.287197 2000.001515 1999.998132 1552.285371 1999.998132 1000.000037 C 1999.998132 447.714703 1552.287197 -0.00144101 1000.001863 -0.00144101 Z M 1000.001863 -0.00144101 " stroke="#49c3fb" stroke-width="140" stroke-opacity="1" stroke-miterlimit="4"/></g></g><g clip-path="url(#5e7e948d02)"><path fill="#49c3fb" d="M 1472.324219 1114.765625 L 1470.019531 1059.394531 C 1469.25 1049.394531 1457.714844 1047.085938 1457.714844 1047.085938 L 1454.636719 1047.085938 L 1448.484375 1024.015625 L 1426.949219 1024.015625 L 1426.949219 1009.402344 C 1426.949219 1006.328125 1424.644531 1004.019531 1421.566406 1004.019531 L 1414.644531 1004.019531 C 1411.570312 1004.019531 1409.261719 1006.328125 1409.261719 1009.402344 L 1409.261719 1024.015625 L 1393.878906 1024.015625 L 1393.878906 1017.863281 C 1393.878906 1014.785156 1391.574219 1012.480469 1388.496094 1012.480469 L 1364.65625 1012.480469 C 1361.578125 1012.480469 1359.273438 1014.785156 1359.273438 1017.863281 L 1359.273438 1024.015625 L 1343.890625 1024.015625 L 1343.890625 1010.171875 L 1350.042969 1004.019531 L 1350.042969 987.101562 L 1332.355469 1004.789062 L 1332.355469 1023.246094 L 1313.128906 1023.246094 L 1267.753906 1035.550781 L 1267.753906 1046.320312 L 1263.140625 1046.320312 L 1263.140625 1079.386719 L 1259.292969 1079.386719 L 1246.21875 1012.480469 C 1244.679688 1004.019531 1236.222656 1002.480469 1231.605469 1002.480469 L 1223.148438 1002.480469 L 1223.148438 994.789062 L 1197.769531 994.789062 C 1196.230469 989.40625 1193.921875 984.023438 1192.386719 979.410156 C 1187 965.566406 1181.617188 950.183594 1173.15625 935.574219 C 1169.3125 928.652344 1165.46875 924.035156 1160.851562 920.191406 C 1153.929688 913.269531 1144.703125 909.425781 1136.242188 905.578125 C 1135.472656 905.578125 1135.472656 904.808594 1134.703125 904.808594 C 1115.476562 866.355469 1083.175781 839.4375 1057.796875 823.289062 C 1048.570312 800.21875 1034.726562 788.679688 1028.574219 784.835938 C 1028.574219 784.835938 1027.804688 784.066406 1027.035156 784.066406 L 1025.496094 783.296875 C 1025.496094 783.296875 1024.726562 783.296875 1024.726562 783.296875 L 965.511719 749.457031 C 956.28125 733.308594 943.207031 721.003906 928.59375 715.621094 C 918.597656 711.773438 908.597656 711.003906 897.832031 711.003906 L 874.761719 697.929688 C 875.527344 695.625 873.992188 693.316406 871.683594 691.777344 L 869.375 690.242188 C 866.300781 688.703125 863.222656 688.703125 861.6875 691.007812 L 860.917969 692.546875 L 787.855469 651.019531 L 788.625 638.710938 L 777.855469 632.558594 C 742.480469 625.636719 708.640625 647.941406 708.640625 647.941406 L 651.730469 726.386719 L 657.113281 730.230469 L 601.742188 820.210938 C 599.433594 819.445312 597.125 819.445312 596.355469 821.75 L 594.820312 823.289062 C 594.050781 824.828125 594.050781 827.902344 596.355469 828.671875 L 597.894531 830.210938 L 570.210938 875.585938 C 557.902344 877.894531 560.980469 887.121094 560.980469 887.121094 C 561.75 887.890625 561.75 888.660156 562.519531 889.429688 L 539.445312 925.574219 L 537.140625 924.035156 L 504.070312 940.1875 L 487.148438 936.34375 L 471.769531 922.5 C 471.769531 922.5 464.078125 914.808594 451.773438 922.5 C 451.773438 922.5 398.707031 947.109375 410.242188 994.023438 L 430.238281 1075.542969 L 424.855469 1078.621094 L 445.621094 1118.609375 L 451.773438 1115.535156 L 448.695312 1079.386719 L 517.914062 994.023438 C 517.914062 994.023438 542.523438 997.097656 551.75 987.871094 L 569.441406 980.949219 C 585.589844 987.871094 597.894531 969.410156 597.894531 969.410156 L 736.328125 773.300781 C 740.171875 774.835938 743.25 776.375 747.09375 777.914062 C 750.171875 778.683594 753.246094 779.453125 756.324219 779.453125 C 760.9375 779.453125 765.550781 778.683594 769.398438 776.375 C 773.242188 774.070312 775.550781 771.761719 778.625 768.683594 C 782.472656 764.839844 785.546875 761.761719 789.394531 760.996094 C 792.46875 760.226562 795.546875 760.226562 798.621094 760.996094 L 806.3125 761.761719 L 965.507812 849.4375 C 990.890625 861.742188 1014.730469 880.96875 1033.1875 897.886719 L 1053.183594 965.566406 L 1050.875 966.335938 C 1048.570312 967.105469 1047.800781 969.410156 1048.570312 972.488281 L 1049.339844 974.796875 C 1050.105469 977.101562 1052.414062 978.640625 1054.722656 978.640625 L 1086.253906 1085.542969 L 1082.40625 1112.457031 L 1082.40625 1151.679688 L 1121.628906 1151.679688 L 1128.550781 1167.832031 C 1125.476562 1167.832031 1123.167969 1167.832031 1120.09375 1167.832031 C 1118.554688 1167.832031 1117.785156 1167.832031 1117.785156 1167.832031 C 1106.25 1164.753906 1086.253906 1167.832031 1086.253906 1167.832031 C 1077.023438 1169.371094 1042.417969 1167.832031 1042.417969 1167.832031 C 1024.726562 1170.136719 980.121094 1178.597656 980.121094 1178.597656 C 956.28125 1189.363281 959.355469 1220.128906 959.355469 1220.128906 C 959.355469 1241.660156 975.507812 1249.351562 975.507812 1249.351562 L 1184.695312 1249.351562 C 1186.230469 1249.351562 1188.539062 1249.351562 1190.078125 1249.351562 L 1250.066406 1249.351562 C 1250.066406 1249.351562 1252.371094 1248.582031 1255.449219 1247.046875 L 1404.648438 1247.046875 C 1409.261719 1247.046875 1413.875 1243.96875 1413.875 1243.96875 C 1433.101562 1230.125 1425.414062 1189.363281 1425.414062 1189.363281 C 1419.257812 1164.753906 1362.347656 1161.679688 1362.347656 1161.679688 C 1344.660156 1158.601562 1246.21875 1157.832031 1246.21875 1157.832031 L 1246.21875 1152.449219 L 1450.792969 1152.449219 C 1476.171875 1150.910156 1472.324219 1114.765625 1472.324219 1114.765625 Z M 572.515625 948.648438 L 546.367188 930.957031 L 570.976562 893.273438 L 589.4375 914.808594 Z M 596.355469 897.121094 L 580.976562 880.96875 C 580.976562 880.199219 580.976562 879.429688 580.207031 879.429688 L 607.125 835.59375 L 608.664062 837.132812 C 610.96875 838.671875 613.277344 837.902344 614.816406 836.363281 L 615.585938 834.824219 C 616.351562 833.285156 616.351562 830.980469 614.046875 829.441406 L 668.648438 740.230469 L 669.417969 741 Z M 724.792969 697.929688 C 720.175781 697.929688 715.5625 694.085938 715.5625 688.703125 C 715.5625 684.085938 719.40625 679.472656 724.792969 679.472656 C 729.40625 679.472656 734.019531 683.320312 734.019531 688.703125 C 733.25 694.085938 729.40625 697.929688 724.792969 697.929688 Z M 927.054688 720.234375 C 938.59375 724.847656 948.589844 732.539062 956.28125 744.074219 L 907.0625 715.621094 C 913.980469 716.386719 920.902344 717.15625 927.054688 720.234375 Z M 762.476562 737.152344 L 781.703125 747.921875 C 779.394531 749.457031 777.855469 750.996094 776.320312 753.304688 C 774.011719 755.609375 770.9375 758.6875 768.628906 760.226562 C 761.707031 764.070312 754.015625 762.53125 750.171875 761.761719 C 749.402344 761.761719 747.863281 760.996094 747.09375 760.996094 Z M 788.625 755.609375 C 783.242188 757.148438 779.394531 760.996094 775.550781 764.839844 C 773.242188 767.148438 770.167969 770.222656 767.859375 771.761719 C 760.9375 775.605469 753.246094 774.070312 749.402344 773.300781 C 746.324219 772.53125 743.25 770.992188 740.171875 769.453125 L 744.019531 764.070312 C 745.554688 764.839844 747.09375 765.609375 748.632812 765.609375 C 751.710938 766.378906 754.785156 767.148438 757.863281 767.148438 C 762.476562 767.148438 767.089844 766.378906 770.9375 764.070312 C 774.78125 761.761719 777.089844 759.457031 780.164062 756.378906 C 782.472656 754.074219 784.777344 751.765625 787.085938 750.226562 L 796.316406 755.609375 C 793.238281 755.609375 790.929688 755.609375 788.625 755.609375 Z M 784.777344 694.855469 L 787.085938 662.554688 L 855.535156 701.007812 L 854.765625 702.546875 C 853.226562 704.851562 854.765625 707.929688 857.839844 709.46875 L 860.148438 711.003906 C 863.222656 712.542969 866.300781 712.542969 867.070312 710.234375 L 871.683594 712.542969 C 870.914062 712.542969 869.375 713.3125 868.605469 713.3125 L 866.300781 714.082031 C 857.070312 715.621094 847.074219 717.925781 837.074219 718.695312 Z M 858.609375 727.925781 C 857.839844 727.925781 857.839844 727.925781 857.070312 727.925781 L 846.304688 723.308594 C 853.226562 722.539062 860.148438 721.003906 867.070312 720.234375 L 869.375 719.464844 C 872.453125 718.695312 875.527344 718.695312 878.605469 717.925781 L 889.371094 724.078125 C 879.375 724.847656 870.144531 726.386719 860.148438 727.925781 Z M 877.835938 785.605469 C 876.296875 784.835938 875.527344 783.296875 876.296875 781.757812 L 887.066406 759.457031 C 887.835938 757.917969 889.371094 757.148438 890.910156 757.917969 C 892.449219 758.6875 893.21875 760.226562 892.449219 761.761719 L 882.449219 784.835938 C 881.679688 786.375 879.375 786.375 877.835938 785.605469 Z M 890.910156 792.527344 C 889.371094 791.757812 888.601562 790.21875 889.371094 788.679688 L 900.140625 766.378906 C 900.90625 764.839844 902.445312 764.070312 903.984375 764.839844 C 905.523438 765.609375 906.292969 767.148438 905.523438 768.683594 L 894.753906 790.988281 C 893.988281 792.527344 892.449219 793.296875 890.910156 792.527344 Z M 904.753906 799.449219 C 903.214844 798.679688 902.445312 797.140625 903.214844 795.601562 L 913.980469 773.300781 C 914.75 771.761719 916.289062 770.992188 917.828125 771.761719 C 919.367188 772.53125 920.136719 774.070312 919.367188 775.605469 L 908.597656 797.910156 C 907.828125 800.21875 906.292969 800.21875 904.753906 799.449219 Z M 932.441406 782.527344 L 921.671875 804.832031 C 920.902344 806.371094 919.367188 807.136719 917.828125 806.371094 C 916.289062 805.601562 915.519531 804.0625 916.289062 802.523438 L 927.054688 780.222656 C 927.824219 778.683594 929.363281 777.914062 930.902344 778.683594 C 932.441406 779.453125 932.441406 780.988281 932.441406 782.527344 Z M 865.53125 731.769531 C 877.066406 729.460938 887.835938 727.925781 899.371094 728.695312 L 949.359375 756.378906 C 952.4375 760.996094 955.511719 765.609375 957.820312 770.992188 C 958.589844 771.761719 958.589844 773.300781 959.355469 774.070312 Z M 965.511719 777.914062 C 963.972656 774.835938 963.203125 772.53125 961.664062 769.453125 C 960.894531 767.148438 959.355469 764.839844 957.820312 762.53125 L 969.355469 768.683594 C 970.894531 771.761719 972.429688 775.605469 973.96875 778.683594 C 974.738281 780.222656 975.507812 781.757812 976.277344 783.296875 Z M 985.503906 787.144531 C 983.199219 784.066406 980.890625 780.222656 978.585938 776.375 C 977.816406 775.605469 977.816406 774.070312 977.046875 773.300781 L 999.347656 785.605469 C 997.8125 788.679688 998.578125 791.757812 1000.117188 794.0625 Z M 1157.777344 923.269531 C 1161.621094 927.113281 1165.46875 931.726562 1168.542969 937.878906 C 1176.234375 951.722656 1182.386719 967.105469 1187 980.949219 C 1188.539062 985.5625 1190.078125 990.175781 1192.386719 994.789062 L 1186.230469 994.789062 C 1184.695312 990.945312 1183.15625 987.101562 1182.386719 983.253906 C 1177.773438 969.410156 1171.621094 954.03125 1163.160156 939.417969 C 1159.316406 932.496094 1155.46875 927.882812 1150.855469 924.035156 C 1147.011719 920.960938 1143.164062 917.882812 1139.320312 915.578125 L 1137.78125 910.960938 C 1145.472656 914.808594 1152.394531 918.652344 1157.777344 923.269531 Z M 1180.847656 994.789062 L 1170.082031 994.789062 L 1142.394531 924.035156 C 1143.933594 925.574219 1146.242188 926.34375 1147.777344 927.882812 C 1151.625 931.726562 1155.46875 936.34375 1158.546875 942.496094 C 1166.238281 956.335938 1172.390625 971.71875 1177.003906 985.5625 C 1178.542969 988.636719 1180.078125 991.714844 1180.847656 994.789062 Z M 1097.019531 1010.941406 L 1090.867188 1049.394531 L 1068.566406 973.257812 C 1070.871094 972.488281 1071.640625 970.179688 1070.871094 967.105469 L 1070.101562 964.796875 C 1069.335938 961.722656 1067.027344 960.183594 1064.71875 960.953125 L 1062.414062 961.722656 L 1047.800781 910.960938 C 1060.105469 923.269531 1067.027344 932.496094 1067.027344 932.496094 C 1067.027344 932.496094 1089.328125 974.027344 1101.636719 994.789062 L 1089.328125 994.789062 L 1089.328125 1010.941406 Z M 1103.941406 1083.234375 L 1113.941406 1013.25 L 1175.464844 1013.25 L 1197 1083.234375 Z M 1246.21875 1080.15625 L 1224.6875 1007.863281 L 1232.375 1007.863281 C 1232.375 1007.863281 1240.835938 1007.863281 1241.605469 1013.25 L 1254.679688 1079.386719 L 1246.21875 1079.386719 Z M 1315.4375 1118.609375 L 1309.28125 1118.609375 L 1309.28125 1075.542969 L 1315.4375 1075.542969 Z M 1330.816406 1118.609375 L 1324.664062 1118.609375 L 1324.664062 1075.542969 L 1330.816406 1075.542969 Z M 1346.199219 1118.609375 L 1340.046875 1118.609375 L 1340.046875 1075.542969 L 1346.199219 1075.542969 Z M 1361.578125 1118.609375 L 1355.425781 1118.609375 L 1355.425781 1075.542969 L 1361.578125 1075.542969 Z M 1376.960938 1118.609375 L 1370.808594 1118.609375 L 1370.808594 1075.542969 L 1376.960938 1075.542969 Z M 1444.640625 1112.457031 C 1444.640625 1115.535156 1442.332031 1117.84375 1439.253906 1117.84375 L 1406.953125 1117.84375 C 1403.878906 1117.84375 1401.570312 1115.535156 1401.570312 1112.457031 L 1401.570312 1083.234375 C 1401.570312 1080.15625 1403.878906 1077.851562 1406.953125 1077.851562 L 1439.253906 1077.851562 C 1442.332031 1077.851562 1444.640625 1080.15625 1444.640625 1083.234375 Z M 1444.640625 1112.457031 " fill-opacity="1" fill-rule="nonzero"/></g></svg>