<svg xmlns="http://www.w3.org/2000/svg" xmlns:xlink="http://www.w3.org/1999/xlink" width="2500" zoomAndPan="magnify" viewBox="0 0 1874.88 1874.999927" height="2500" preserveAspectRatio="xMidYMid meet" version="1.0"><defs><clipPath id="05ed8a0dc9"><path d="M 187.488281 187.546875 L 1687.390625 187.546875 L 1687.390625 1687.453125 L 187.488281 1687.453125 Z M 187.488281 187.546875 " clip-rule="nonzero"/></clipPath><clipPath id="aba86d0015"><path d="M 937.441406 187.546875 C 523.253906 187.546875 187.488281 523.3125 187.488281 937.5 C 187.488281 1351.6875 523.253906 1687.453125 937.441406 1687.453125 C 1351.625 1687.453125 1687.390625 1351.6875 1687.390625 937.5 C 1687.390625 523.3125 1351.625 187.546875 937.441406 187.546875 Z M 937.441406 187.546875 " clip-rule="nonzero"/></clipPath><clipPath id="cdffffe8aa"><path d="M 1049 765 L 1469.683594 765 L 1469.683594 1137 L 1049 1137 Z M 1049 765 " clip-rule="nonzero"/></clipPath><clipPath id="9f25af217c"><path d="M 405.5 714.085938 L 1002 714.085938 L 1002 1124 L 405.5 1124 Z M 405.5 714.085938 " clip-rule="nonzero"/></clipPath></defs><g clip-path="url(#05ed8a0dc9)"><g clip-path="url(#aba86d0015)"><path stroke-linecap="butt" transform="matrix(0.749952, 0, 0, 0.749952, 187.487992, 187.547956)" fill="none" stroke-linejoin="miter" d="M 1000.001863 -0.00144101 C 447.716529 -0.00144101 0.000385441 447.714703 0.000385441 1000.000037 C 0.000385441 1552.285371 447.716529 2000.001515 1000.001863 2000.001515 C 1552.287197 2000.001515 1999.998132 1552.285371 1999.998132 1000.000037 C 1999.998132 447.714703 1552.287197 -0.00144101 1000.001863 -0.00144101 Z M 1000.001863 -0.00144101 " stroke="#49c3fb" stroke-width="140" stroke-opacity="1" stroke-miterlimit="4"/></g></g><g clip-path="url(#cdffffe8aa)"><path fill="#49c3fb" d="M 1466.046875 1041.613281 L 1446.398438 1028.5625 L 1446.398438 959.625 C 1446.753906 926.925781 1426.042969 922.246094 1413.703125 919.480469 C 1413.703125 919.480469 1305.257812 895.578125 1284.761719 891.109375 L 1235.820312 770.394531 C 1234.6875 767.558594 1231.992188 765.785156 1228.941406 765.785156 L 1084.824219 765.785156 C 1065.316406 765.785156 1049.429688 781.671875 1049.429688 801.175781 L 1049.429688 1033.527344 C 1049.429688 1037.640625 1052.765625 1040.976562 1056.878906 1040.976562 L 1112.269531 1040.976562 L 1112.269531 1128.992188 C 1112.269531 1133.105469 1115.605469 1136.441406 1119.71875 1136.441406 L 1183.761719 1136.441406 C 1186.246094 1136.441406 1188.585938 1135.234375 1189.933594 1133.105469 L 1203.480469 1112.75 L 1255.539062 1112.75 C 1253.339844 1105.164062 1252.136719 1097.148438 1252.136719 1088.921875 C 1252.136719 1041.328125 1290.859375 1002.675781 1338.378906 1002.675781 C 1385.96875 1002.675781 1424.625 1041.402344 1424.625 1088.921875 C 1424.625 1097.21875 1423.417969 1105.164062 1421.21875 1112.75 L 1461.859375 1112.75 C 1465.972656 1112.75 1469.308594 1109.417969 1469.308594 1105.304688 L 1469.308594 1047.710938 C 1469.378906 1045.300781 1468.101562 1042.960938 1466.046875 1041.613281 Z M 1192.0625 1103.105469 L 1179.71875 1121.546875 L 1127.09375 1121.546875 L 1127.09375 1088.636719 L 1192.0625 1088.636719 Z M 1192.0625 1073.8125 L 1127.09375 1073.8125 L 1127.09375 1040.902344 L 1192.0625 1040.902344 Z M 1142.484375 925.933594 C 1142.484375 921.820312 1145.816406 918.488281 1149.929688 918.488281 L 1178.300781 918.488281 C 1182.414062 918.488281 1185.75 921.820312 1185.75 925.933594 C 1185.75 930.046875 1182.414062 933.382812 1178.300781 933.382812 L 1149.929688 933.382812 C 1145.816406 933.308594 1142.484375 929.976562 1142.484375 925.933594 Z M 1127.164062 890.046875 L 1127.164062 780.609375 L 1223.90625 780.609375 L 1268.304688 890.046875 Z M 1127.164062 890.046875 " fill-opacity="1" fill-rule="nonzero"/></g><path fill="#49c3fb" d="M 1338.449219 1017.570312 C 1299.015625 1017.570312 1267.027344 1049.558594 1267.027344 1088.992188 C 1267.027344 1128.425781 1299.015625 1160.34375 1338.449219 1160.34375 C 1377.886719 1160.34375 1409.800781 1128.355469 1409.800781 1088.992188 C 1409.800781 1049.558594 1377.8125 1017.570312 1338.449219 1017.570312 Z M 1338.449219 1119.0625 C 1321.785156 1119.0625 1308.308594 1105.585938 1308.308594 1088.921875 C 1308.308594 1072.253906 1321.785156 1058.777344 1338.449219 1058.777344 C 1355.117188 1058.777344 1368.59375 1072.253906 1368.59375 1088.921875 C 1368.523438 1105.585938 1355.046875 1119.0625 1338.449219 1119.0625 Z M 1338.449219 1119.0625 " fill-opacity="1" fill-rule="nonzero"/><path fill="#49c3fb" d="M 1078.011719 1062.820312 L 894.53125 1062.820312 C 887.152344 1062.820312 881.125 1068.847656 881.125 1076.226562 L 881.125 1123.105469 C 881.125 1130.480469 887.152344 1136.511719 894.53125 1136.511719 L 1078.011719 1136.511719 C 1085.390625 1136.511719 1091.417969 1130.480469 1091.417969 1123.105469 L 1091.417969 1076.226562 C 1091.417969 1068.777344 1085.390625 1062.820312 1078.011719 1062.820312 Z M 1078.011719 1062.820312 " fill-opacity="1" fill-rule="nonzero"/><path fill="#49c3fb" d="M 782.042969 1018.066406 C 742.609375 1018.066406 710.621094 1050.054688 710.621094 1089.488281 C 710.621094 1128.921875 742.609375 1160.839844 782.042969 1160.839844 C 821.476562 1160.839844 853.394531 1128.851562 853.394531 1089.488281 C 853.464844 1050.054688 821.476562 1018.066406 782.042969 1018.066406 Z M 782.042969 1119.558594 C 765.375 1119.558594 751.898438 1106.085938 751.898438 1089.417969 C 751.898438 1072.75 765.375 1059.273438 782.042969 1059.273438 C 798.710938 1059.273438 812.1875 1072.75 812.1875 1089.417969 C 812.1875 1106.085938 798.710938 1119.558594 782.042969 1119.558594 Z M 782.042969 1119.558594 " fill-opacity="1" fill-rule="nonzero"/><g clip-path="url(#9f25af217c)"><path fill="#49c3fb" d="M 548.203125 1026.007812 L 420.394531 1026.007812 L 420.394531 979.695312 L 987.015625 979.695312 L 987.015625 1026.007812 L 840.414062 1026.007812 C 845.238281 1030.476562 849.5625 1035.441406 853.324219 1040.902344 L 994.464844 1040.902344 C 998.578125 1040.902344 1001.910156 1037.570312 1001.910156 1033.457031 L 1001.910156 884.515625 C 1001.910156 815.148438 945.523438 758.765625 876.160156 758.765625 L 869.777344 758.765625 L 869.777344 721.597656 C 869.777344 717.484375 866.445312 714.152344 862.332031 714.152344 L 771.050781 714.152344 C 766.9375 714.152344 763.601562 717.484375 763.601562 721.597656 L 763.601562 758.765625 L 686.363281 758.765625 L 686.363281 721.597656 C 686.363281 717.484375 683.03125 714.152344 678.917969 714.152344 L 587.777344 714.152344 C 583.664062 714.152344 580.332031 717.484375 580.332031 721.597656 L 580.332031 758.765625 L 576.855469 758.765625 C 507.492188 758.765625 451.105469 815.148438 451.105469 884.515625 L 451.105469 964.871094 L 412.949219 964.871094 C 408.835938 964.871094 405.5 968.207031 405.5 972.320312 L 405.5 1115.871094 C 405.5 1119.984375 408.835938 1123.320312 412.949219 1123.320312 L 469.332031 1123.320312 C 472.242188 1123.320312 474.867188 1121.617188 476.070312 1119.0625 L 512.738281 1040.902344 L 535.367188 1040.902344 C 539.054688 1035.441406 543.378906 1030.476562 548.203125 1026.007812 Z M 778.496094 729.046875 L 854.8125 729.046875 L 854.8125 758.765625 L 778.496094 758.765625 Z M 595.226562 729.046875 L 671.542969 729.046875 L 671.542969 758.765625 L 595.226562 758.765625 Z M 464.582031 1108.425781 L 420.394531 1108.425781 L 420.394531 1040.902344 L 496.355469 1040.902344 Z M 464.582031 1108.425781 " fill-opacity="1" fill-rule="nonzero"/></g><path fill="#49c3fb" d="M 677.855469 1040.902344 L 710.90625 1040.902344 C 714.59375 1035.441406 718.917969 1030.476562 723.8125 1026.007812 L 665.015625 1026.007812 C 669.769531 1030.476562 674.09375 1035.441406 677.855469 1040.902344 Z M 677.855469 1040.902344 " fill-opacity="1" fill-rule="nonzero"/><path fill="#49c3fb" d="M 606.574219 1018.066406 C 567.140625 1018.066406 535.152344 1050.054688 535.152344 1089.488281 C 535.152344 1128.921875 567.140625 1160.839844 606.574219 1160.839844 C 646.007812 1160.839844 677.925781 1128.851562 677.925781 1089.488281 C 677.996094 1050.054688 646.007812 1018.066406 606.574219 1018.066406 Z M 606.574219 1119.558594 C 589.90625 1119.558594 576.429688 1106.085938 576.429688 1089.417969 C 576.429688 1072.75 589.90625 1059.273438 606.574219 1059.273438 C 623.242188 1059.273438 636.71875 1072.75 636.71875 1089.417969 C 636.71875 1106.085938 623.242188 1119.558594 606.574219 1119.558594 Z M 606.574219 1119.558594 " fill-opacity="1" fill-rule="nonzero"/></svg>