<svg xmlns="http://www.w3.org/2000/svg" xmlns:xlink="http://www.w3.org/1999/xlink" width="2500" zoomAndPan="magnify" viewBox="0 0 1874.88 1874.999927" height="2500" preserveAspectRatio="xMidYMid meet" version="1.0"><defs><clipPath id="f4fa780c54"><path d="M 187.488281 187.546875 L 1687.390625 187.546875 L 1687.390625 1687.453125 L 187.488281 1687.453125 Z M 187.488281 187.546875 " clip-rule="nonzero"/></clipPath><clipPath id="f4240ee7f9"><path d="M 937.441406 187.546875 C 523.253906 187.546875 187.488281 523.3125 187.488281 937.5 C 187.488281 1351.6875 523.253906 1687.453125 937.441406 1687.453125 C 1351.625 1687.453125 1687.390625 1351.6875 1687.390625 937.5 C 1687.390625 523.3125 1351.625 187.546875 937.441406 187.546875 Z M 937.441406 187.546875 " clip-rule="nonzero"/></clipPath><clipPath id="6ca9614e92"><path d="M 406 664.882812 L 1469 664.882812 L 1469 1210.097656 L 406 1210.097656 Z M 406 664.882812 " clip-rule="nonzero"/></clipPath></defs><g clip-path="url(#f4fa780c54)"><g clip-path="url(#f4240ee7f9)"><path stroke-linecap="butt" transform="matrix(0.749952, 0, 0, 0.749952, 187.487992, 187.547956)" fill="none" stroke-linejoin="miter" d="M 1000.001863 -0.00144101 C 447.716529 -0.00144101 0.000385441 447.714703 0.000385441 1000.000037 C 0.000385441 1552.285371 447.716529 2000.001515 1000.001863 2000.001515 C 1552.287197 2000.001515 1999.998132 1552.285371 1999.998132 1000.000037 C 1999.998132 447.714703 1552.287197 -0.00144101 1000.001863 -0.00144101 Z M 1000.001863 -0.00144101 " stroke="#49c3fb" stroke-width="140" stroke-opacity="1" stroke-miterlimit="4"/></g></g><g clip-path="url(#6ca9614e92)"><path fill="#49c3fb" d="M 720.691406 683.992188 C 718.496094 683.992188 716.542969 684.890625 715.105469 686.328125 C 713.640625 687.792969 712.707031 689.832031 712.597656 692.058594 L 705.558594 838.0625 L 705.558594 838.078125 L 705.550781 838.425781 L 705.550781 838.4375 C 705.550781 840.507812 706.378906 842.347656 707.726562 843.695312 C 709.066406 845.03125 710.921875 845.882812 712.988281 845.980469 L 713.003906 845.980469 L 713.382812 845.988281 L 713.394531 845.992188 L 734.769531 845.992188 C 736.988281 845.992188 739.011719 845.082031 740.480469 843.613281 C 741.945312 842.152344 742.855469 840.125 742.855469 837.902344 L 742.855469 692.085938 C 742.855469 689.859375 741.945312 687.835938 740.480469 686.371094 C 739.011719 684.90625 736.988281 683.992188 734.769531 683.992188 Z M 863.492188 684.839844 L 775.300781 684.839844 C 773.375 684.839844 771.625 685.628906 770.359375 686.894531 C 769.089844 688.164062 768.300781 689.914062 768.300781 691.835938 L 768.300781 838.902344 C 768.300781 840.824219 769.089844 842.578125 770.359375 843.84375 C 771.625 845.109375 773.375 845.898438 775.300781 845.898438 L 863.492188 845.898438 C 865.414062 845.898438 867.167969 845.109375 868.433594 843.84375 C 869.703125 842.578125 870.488281 840.824219 870.488281 838.902344 L 870.488281 691.835938 C 870.488281 689.914062 869.703125 688.164062 868.433594 686.894531 C 867.167969 685.628906 865.414062 684.839844 863.492188 684.839844 Z M 942.277344 857.402344 L 916.722656 688.398438 L 891.238281 688.398438 C 889.3125 688.398438 887.5625 689.1875 886.292969 690.453125 C 885.027344 691.722656 884.238281 693.472656 884.238281 695.398438 L 884.238281 876.894531 C 884.238281 878.816406 885.027344 880.566406 886.292969 881.828125 C 887.5625 883.101562 889.3125 883.890625 891.238281 883.890625 L 913.347656 883.90625 L 913.347656 883.902344 C 914.609375 883.902344 916.1875 883.742188 917.847656 883.085938 C 919.523438 882.425781 921.304688 881.257812 922.976562 879.25 L 922.984375 879.234375 Z M 496.558594 897.863281 L 473.230469 897.863281 C 471.410156 897.863281 469.753906 898.609375 468.558594 899.804688 L 468.554688 899.808594 C 467.359375 901.003906 466.613281 902.660156 466.613281 904.480469 L 466.613281 908.726562 C 466.613281 910.546875 467.359375 912.203125 468.554688 913.398438 L 468.558594 913.398438 C 469.753906 914.597656 471.410156 915.34375 473.230469 915.34375 L 496.558594 915.34375 C 497.195312 915.34375 497.777344 915.082031 498.195312 914.664062 L 498.195312 914.660156 C 498.613281 914.246094 498.875 913.664062 498.875 913.023438 L 498.875 900.183594 C 498.875 899.546875 498.613281 898.964844 498.195312 898.542969 C 497.777344 898.125 497.195312 897.863281 496.558594 897.863281 Z M 849.910156 910.757812 L 849.910156 888.398438 L 848.109375 888.398438 C 847.222656 888.398438 846.417969 888.761719 845.832031 889.34375 C 845.25 889.929688 844.886719 890.734375 844.886719 891.621094 L 844.886719 907.53125 C 844.886719 908.417969 845.25 909.226562 845.832031 909.8125 C 846.417969 910.394531 847.222656 910.757812 848.109375 910.757812 Z M 854.242188 888.398438 L 854.242188 910.757812 L 856.039062 910.757812 C 856.921875 910.757812 857.730469 910.394531 858.3125 909.8125 C 858.898438 909.226562 859.261719 908.417969 859.261719 907.53125 L 859.261719 891.621094 C 859.261719 890.734375 858.898438 889.929688 858.3125 889.34375 C 857.730469 888.761719 856.921875 888.398438 856.039062 888.398438 Z M 857.910156 1121.398438 L 857.910156 946.214844 L 873.359375 946.214844 L 873.359375 941.320312 L 779.695312 941.320312 L 779.695312 946.214844 L 794.640625 946.214844 L 794.640625 1121.398438 L 800.535156 1121.398438 L 800.535156 1101.441406 L 852.019531 1101.441406 L 852.019531 1121.398438 Z M 731.230469 922.738281 L 682.679688 922.738281 L 682.679688 936.730469 L 731.773438 936.730469 L 732.101562 936.703125 C 732.496094 936.691406 740.257812 936.625 745.96875 946.261719 C 755.015625 961.53125 765.128906 978.253906 766.921875 981.222656 L 778.890625 974.113281 L 778.414062 973.3125 C 775.265625 968.066406 763.179688 947.902344 757.996094 939.15625 C 753.351562 931.308594 747.367188 927.210938 742.257812 925.078125 C 737.152344 922.945312 732.933594 922.765625 731.777344 922.761719 L 731.230469 922.761719 Z M 940.859375 1011.242188 L 929.308594 1011.242188 L 929.308594 1023.621094 L 952.539062 1023.621094 L 952.539062 1006.691406 L 941.402344 1006.691406 L 941.402344 1011.242188 Z M 952.539062 1050.5 L 952.539062 1033.632812 L 929.308594 1033.632812 L 929.308594 1045.949219 L 941.402344 1045.949219 L 941.402344 1050.5 Z M 884.386719 1091.070312 L 884.386719 1104.289062 L 865.050781 1104.289062 L 865.050781 1106.433594 L 902.824219 1106.433594 L 902.824219 1106.429688 C 903.746094 1106.429688 904.359375 1106.429688 904.929688 1106.339844 C 905.5 1106.242188 906.082031 1106.042969 906.976562 1105.660156 C 908.535156 1104.980469 910.5 1103.71875 911.902344 1101.457031 C 912.914062 1099.8125 913.640625 1097.625 913.699219 1094.742188 L 913.730469 1092.828125 L 913.75 1091.070312 Z M 900.191406 1057.804688 C 900.8125 1055.878906 901.292969 1053.867188 901.585938 1051.792969 C 903.488281 1038.378906 888.597656 1027.371094 879.480469 1021.964844 L 865.050781 1021.964844 L 865.050781 1057.804688 Z M 884.386719 1080.835938 C 887.882812 1077.664062 892.640625 1072.695312 896.320312 1066.382812 L 865.050781 1066.382812 L 865.050781 1077.75 L 884.386719 1077.75 Z M 905.273438 1057.804688 C 906.4375 1054.75 906.96875 1051.8125 906.839844 1048.9375 C 906.453125 1040.09375 899.785156 1031.613281 886.199219 1021.964844 L 884.804688 1021.964844 C 894.292969 1028.308594 906.277344 1039.078125 904.417969 1052.1875 C 904.144531 1054.117188 903.71875 1055.996094 903.175781 1057.804688 Z M 894.867188 1073.625 C 897.078125 1071.117188 898.992188 1068.710938 900.601562 1066.382812 L 899.578125 1066.382812 C 898.152344 1069.007812 896.535156 1071.433594 894.867188 1073.625 Z M 904.011719 1066.382812 C 900.96875 1071.109375 896.734375 1076.097656 891.367188 1081.496094 L 913.800781 1081.496094 L 913.816406 1074.589844 L 913.816406 1066.382812 Z M 891.019531 1021.964844 C 903.25 1031.261719 909.296875 1039.765625 909.695312 1048.816406 C 909.824219 1051.761719 909.355469 1054.738281 908.300781 1057.804688 L 913.808594 1057.804688 C 913.789062 1044.898438 913.75 1031.835938 913.722656 1023.898438 L 913.714844 1021.964844 Z M 940.566406 995.339844 C 918.8125 994.679688 896.027344 989.6875 886.859375 987.46875 C 884.632812 990.460938 881.925781 993.410156 878.257812 993.410156 L 876.957031 993.410156 L 865.050781 993.640625 L 865.050781 999.421875 L 925.53125 999.421875 L 925.53125 999.425781 L 926.082031 999.425781 C 926.496094 999.425781 926.703125 999.425781 926.894531 999.417969 C 927.128906 999.40625 927.355469 999.382812 927.796875 999.339844 L 927.800781 999.339844 L 928.539062 999.269531 C 931.230469 999.023438 935.714844 997.808594 940.566406 995.339844 Z M 889.101562 984.335938 C 898.980469 986.671875 920.558594 991.230469 940.953125 991.816406 C 921.8125 988.523438 901.441406 984.554688 890.492188 982.375 Z M 618.4375 1079.375 L 618.433594 1079.375 C 614.441406 1083.363281 611.96875 1088.882812 611.96875 1094.984375 C 611.96875 1101.082031 614.441406 1106.605469 618.433594 1110.59375 L 618.4375 1110.597656 C 622.425781 1114.585938 627.949219 1117.0625 634.046875 1117.0625 C 640.144531 1117.0625 645.667969 1114.585938 649.65625 1110.597656 L 649.660156 1110.59375 C 653.652344 1106.605469 656.125 1101.082031 656.125 1094.984375 C 656.125 1088.882812 653.652344 1083.363281 649.660156 1079.375 L 649.65625 1079.375 C 645.667969 1075.378906 640.144531 1072.90625 634.046875 1072.90625 C 627.949219 1072.90625 622.425781 1075.378906 618.4375 1079.375 Z M 634.046875 1050.710938 C 621.824219 1050.710938 610.753906 1055.667969 602.742188 1063.679688 C 594.730469 1071.6875 589.773438 1082.761719 589.773438 1094.984375 C 589.773438 1107.207031 594.730469 1118.277344 602.742188 1126.289062 C 610.753906 1134.296875 621.824219 1139.257812 634.046875 1139.257812 C 646.269531 1139.257812 657.34375 1134.296875 665.351562 1126.289062 C 673.359375 1118.277344 678.320312 1107.207031 678.320312 1094.984375 C 678.320312 1082.761719 673.359375 1071.6875 665.351562 1063.679688 C 657.34375 1055.667969 646.269531 1050.710938 634.046875 1050.710938 Z M 593.851562 1054.789062 C 583.566406 1065.074219 577.203125 1079.285156 577.203125 1094.984375 C 577.203125 1110.683594 583.566406 1124.890625 593.851562 1135.179688 C 604.136719 1145.464844 618.351562 1151.828125 634.046875 1151.828125 C 649.746094 1151.828125 663.957031 1145.464844 674.242188 1135.179688 C 684.527344 1124.890625 690.886719 1110.683594 690.886719 1094.984375 C 690.886719 1079.285156 684.527344 1065.074219 674.242188 1054.789062 C 663.957031 1044.503906 649.746094 1038.140625 634.046875 1038.140625 C 618.351562 1038.140625 604.136719 1044.503906 593.851562 1054.789062 Z M 625.914062 980.027344 C 623.222656 980.21875 620.550781 980.5 617.90625 980.871094 C 615.238281 981.242188 612.597656 981.710938 609.988281 982.265625 L 609.394531 982.386719 L 609.792969 982.851562 L 612.445312 985.921875 L 612.453125 985.925781 L 612.453125 985.929688 C 613.535156 987.1875 614.011719 988.777344 613.898438 990.320312 C 613.785156 991.863281 613.09375 993.363281 611.835938 994.445312 L 611.792969 994.488281 L 611.789062 994.488281 C 610.539062 995.550781 608.964844 996.015625 607.433594 995.90625 C 605.886719 995.789062 604.382812 995.085938 603.292969 993.832031 L 597.535156 987.164062 C 597.402344 987.007812 597.277344 986.851562 597.171875 986.695312 C 597.058594 986.53125 596.949219 986.367188 596.855469 986.191406 L 596.707031 985.933594 L 596.425781 986.03125 C 593.875 986.910156 591.363281 987.875 588.90625 988.921875 C 586.441406 989.972656 584.011719 991.105469 581.628906 992.328125 L 581.089844 992.601562 L 581.589844 992.941406 L 584.957031 995.230469 L 584.964844 995.234375 L 584.96875 995.238281 C 586.335938 996.171875 587.207031 997.582031 587.496094 999.101562 C 587.789062 1000.617188 587.503906 1002.25 586.574219 1003.621094 L 586.570312 1003.628906 L 586.503906 1003.71875 L 586.503906 1003.726562 C 585.570312 1005.046875 584.1875 1005.882812 582.695312 1006.164062 C 581.175781 1006.457031 579.535156 1006.171875 578.164062 1005.238281 L 570.875 1000.289062 C 570.714844 1000.183594 570.558594 1000.0625 570.402344 999.933594 C 570.25 999.804688 570.105469 999.671875 569.976562 999.535156 L 569.765625 999.324219 L 569.515625 999.488281 C 567.300781 1000.992188 565.132812 1002.574219 563.03125 1004.21875 C 560.914062 1005.878906 558.859375 1007.609375 556.875 1009.40625 L 556.421875 1009.808594 L 556.996094 1010.007812 L 560.808594 1011.335938 L 560.820312 1011.335938 C 562.386719 1011.886719 563.59375 1013.023438 564.269531 1014.414062 C 564.941406 1015.804688 565.089844 1017.453125 564.546875 1019.023438 L 564.542969 1019.023438 L 564.542969 1019.035156 C 563.996094 1020.601562 562.855469 1021.804688 561.460938 1022.480469 C 560.066406 1023.15625 558.410156 1023.304688 556.839844 1022.761719 L 548.519531 1019.863281 C 548.328125 1019.800781 548.144531 1019.722656 547.976562 1019.648438 L 547.972656 1019.648438 C 547.800781 1019.566406 547.628906 1019.476562 547.460938 1019.375 L 547.203125 1019.226562 L 547.007812 1019.449219 C 545.253906 1021.472656 543.570312 1023.554688 541.960938 1025.695312 C 540.351562 1027.832031 538.808594 1030.03125 537.34375 1032.289062 L 537.011719 1032.796875 L 537.617188 1032.84375 L 541.65625 1033.136719 L 541.671875 1033.136719 C 543.324219 1033.265625 544.785156 1034.050781 545.796875 1035.222656 C 546.804688 1036.386719 547.375 1037.9375 547.25 1039.597656 L 547.25 1039.617188 C 547.128906 1041.269531 546.339844 1042.730469 545.167969 1043.742188 C 543.996094 1044.753906 542.433594 1045.320312 540.777344 1045.203125 L 531.988281 1044.558594 C 531.792969 1044.542969 531.59375 1044.519531 531.40625 1044.484375 C 531.207031 1044.453125 531.015625 1044.40625 530.824219 1044.355469 L 530.539062 1044.277344 L 530.40625 1044.542969 C 529.238281 1046.941406 528.148438 1049.390625 527.140625 1051.890625 C 526.140625 1054.371094 525.222656 1056.894531 524.394531 1059.460938 L 524.207031 1060.039062 L 524.804688 1059.921875 L 528.800781 1059.15625 L 528.804688 1059.15625 L 528.8125 1059.152344 C 530.445312 1058.847656 532.054688 1059.226562 533.335938 1060.097656 C 534.613281 1060.964844 535.5625 1062.316406 535.875 1063.945312 L 535.875 1063.953125 L 535.878906 1063.964844 L 535.902344 1064.078125 C 536.171875 1065.667969 535.785156 1067.238281 534.933594 1068.492188 C 534.066406 1069.773438 532.707031 1070.722656 531.074219 1071.035156 L 522.417969 1072.695312 C 522.21875 1072.730469 522.019531 1072.761719 521.832031 1072.777344 C 521.636719 1072.796875 521.441406 1072.796875 521.246094 1072.796875 L 520.945312 1072.796875 L 520.890625 1073.089844 C 520.386719 1075.703125 519.96875 1078.359375 519.640625 1081.035156 C 519.324219 1083.671875 519.089844 1086.339844 518.957031 1089.039062 L 518.925781 1089.644531 L 519.46875 1089.378906 L 523.105469 1087.621094 L 523.117188 1087.613281 L 523.121094 1087.613281 C 524.621094 1086.890625 526.277344 1086.847656 527.734375 1087.351562 C 529.195312 1087.855469 530.460938 1088.917969 531.183594 1090.40625 L 531.191406 1090.417969 L 531.285156 1090.625 L 531.289062 1090.625 C 531.921875 1092.066406 531.941406 1093.644531 531.457031 1095.039062 C 530.945312 1096.507812 529.882812 1097.78125 528.386719 1098.507812 L 520.453125 1102.339844 L 520.449219 1102.339844 C 520.269531 1102.429688 520.09375 1102.507812 519.921875 1102.574219 L 519.921875 1102.570312 C 519.734375 1102.640625 519.546875 1102.699219 519.363281 1102.746094 L 519.074219 1102.820312 L 519.09375 1103.117188 C 519.28125 1105.8125 519.566406 1108.492188 519.9375 1111.140625 C 520.308594 1113.800781 520.773438 1116.4375 521.328125 1119.042969 L 521.453125 1119.632812 L 521.910156 1119.234375 L 524.988281 1116.582031 L 525 1116.570312 C 526.257812 1115.488281 527.84375 1115.015625 529.386719 1115.125 C 530.925781 1115.238281 532.421875 1115.933594 533.507812 1117.183594 L 533.515625 1117.199219 L 533.5625 1117.25 L 533.566406 1117.253906 C 534.617188 1118.5 535.074219 1120.066406 534.964844 1121.59375 C 534.851562 1123.140625 534.152344 1124.648438 532.898438 1125.730469 L 526.226562 1131.492188 C 526.078125 1131.625 525.917969 1131.746094 525.753906 1131.859375 C 525.59375 1131.972656 525.425781 1132.082031 525.253906 1132.175781 L 524.992188 1132.324219 L 525.09375 1132.605469 C 525.964844 1135.148438 526.933594 1137.65625 527.980469 1140.117188 C 529.03125 1142.585938 530.171875 1145.011719 531.390625 1147.398438 L 531.667969 1147.9375 L 532.003906 1147.4375 L 534.292969 1144.074219 L 534.300781 1144.058594 L 534.304688 1144.058594 C 535.238281 1142.6875 536.644531 1141.820312 538.164062 1141.53125 C 539.679688 1141.242188 541.3125 1141.523438 542.679688 1142.449219 L 542.691406 1142.460938 L 542.785156 1142.523438 L 542.789062 1142.523438 C 544.109375 1143.457031 544.945312 1144.839844 545.230469 1146.332031 C 545.519531 1147.851562 545.234375 1149.488281 544.304688 1150.863281 L 539.351562 1158.152344 L 539.347656 1158.152344 C 539.238281 1158.320312 539.117188 1158.480469 538.996094 1158.628906 C 538.871094 1158.777344 538.738281 1158.925781 538.601562 1159.058594 L 538.386719 1159.265625 L 538.554688 1159.515625 C 540.0625 1161.734375 541.640625 1163.898438 543.285156 1166.003906 C 544.941406 1168.117188 546.671875 1170.171875 548.460938 1172.152344 L 548.867188 1172.609375 L 549.066406 1172.03125 L 550.394531 1168.214844 L 550.398438 1168.207031 L 550.398438 1168.199219 C 550.949219 1166.636719 552.085938 1165.433594 553.476562 1164.757812 C 554.871094 1164.082031 556.515625 1163.933594 558.078125 1164.484375 L 558.101562 1164.484375 L 558.136719 1164.5 C 559.6875 1165.050781 560.875 1166.183594 561.546875 1167.566406 C 562.222656 1168.960938 562.371094 1170.613281 561.828125 1172.183594 L 558.929688 1180.511719 C 558.867188 1180.699219 558.789062 1180.882812 558.710938 1181.058594 C 558.628906 1181.226562 558.539062 1181.398438 558.441406 1181.574219 L 558.289062 1181.828125 L 558.515625 1182.023438 C 560.539062 1183.777344 562.625 1185.460938 564.765625 1187.078125 C 566.894531 1188.679688 569.09375 1190.21875 571.351562 1191.683594 L 571.859375 1192.019531 L 571.90625 1191.414062 L 572.203125 1187.371094 L 572.203125 1187.351562 C 572.328125 1185.699219 573.113281 1184.242188 574.285156 1183.234375 C 575.449219 1182.222656 577.003906 1181.65625 578.65625 1181.777344 L 578.679688 1181.777344 L 578.75 1181.785156 C 580.375 1181.921875 581.808594 1182.703125 582.800781 1183.859375 C 583.816406 1185.027344 584.382812 1186.585938 584.265625 1188.246094 L 583.621094 1197.035156 C 583.609375 1197.242188 583.585938 1197.4375 583.550781 1197.628906 C 583.519531 1197.828125 583.472656 1198.027344 583.421875 1198.210938 L 583.34375 1198.496094 L 583.609375 1198.628906 C 586.007812 1199.792969 588.460938 1200.886719 590.957031 1201.890625 C 593.433594 1202.890625 595.960938 1203.808594 598.519531 1204.632812 L 599.097656 1204.820312 L 598.984375 1204.226562 L 598.21875 1200.226562 L 598.214844 1200.210938 C 597.910156 1198.582031 598.296875 1196.96875 599.160156 1195.695312 C 600.027344 1194.417969 601.378906 1193.46875 603.003906 1193.152344 L 603.019531 1193.152344 L 603.230469 1193.117188 L 603.230469 1193.113281 C 604.792969 1192.871094 606.328125 1193.261719 607.550781 1194.09375 C 608.832031 1194.960938 609.785156 1196.320312 610.101562 1197.953125 L 611.757812 1206.609375 C 611.792969 1206.808594 611.824219 1207.011719 611.839844 1207.199219 C 611.859375 1207.394531 611.867188 1207.59375 611.867188 1207.789062 L 611.867188 1208.089844 L 612.160156 1208.140625 C 614.773438 1208.644531 617.417969 1209.0625 620.09375 1209.386719 C 622.734375 1209.707031 625.40625 1209.9375 628.101562 1210.074219 L 628.707031 1210.109375 L 628.445312 1209.558594 L 626.683594 1205.921875 L 626.679688 1205.914062 L 626.671875 1205.90625 C 625.957031 1204.410156 625.910156 1202.757812 626.417969 1201.292969 C 626.921875 1199.832031 627.980469 1198.566406 629.46875 1197.84375 L 629.480469 1197.839844 L 629.691406 1197.742188 L 629.691406 1197.738281 C 631.132812 1197.105469 632.707031 1197.085938 634.105469 1197.570312 C 635.570312 1198.082031 636.84375 1199.144531 637.566406 1200.640625 L 641.402344 1208.574219 C 641.492188 1208.75 641.570312 1208.933594 641.632812 1209.109375 C 641.699219 1209.300781 641.761719 1209.480469 641.808594 1209.667969 L 641.882812 1209.957031 L 642.179688 1209.9375 C 644.878906 1209.75 647.558594 1209.464844 650.203125 1209.09375 C 652.863281 1208.722656 655.5 1208.253906 658.105469 1207.707031 L 658.695312 1207.578125 L 658.296875 1207.121094 L 655.640625 1204.039062 L 655.632812 1204.027344 C 654.554688 1202.773438 654.082031 1201.183594 654.191406 1199.644531 C 654.300781 1198.101562 654.996094 1196.601562 656.25 1195.519531 L 656.265625 1195.511719 L 656.390625 1195.402344 C 657.625 1194.390625 659.160156 1193.953125 660.65625 1194.0625 C 662.203125 1194.175781 663.710938 1194.875 664.796875 1196.128906 L 670.554688 1202.800781 C 670.683594 1202.949219 670.808594 1203.109375 670.921875 1203.269531 L 670.921875 1203.265625 C 671.039062 1203.433594 671.148438 1203.605469 671.246094 1203.773438 L 671.390625 1204.039062 L 671.671875 1203.9375 C 674.214844 1203.0625 676.722656 1202.097656 679.1875 1201.050781 C 681.652344 1200 684.082031 1198.859375 686.464844 1197.640625 L 687.003906 1197.367188 L 686.503906 1197.027344 L 683.132812 1194.738281 L 683.125 1194.730469 L 683.117188 1194.726562 C 681.75 1193.792969 680.886719 1192.382812 680.59375 1190.863281 C 680.304688 1189.34375 680.585938 1187.714844 681.515625 1186.347656 L 681.519531 1186.34375 L 681.53125 1186.328125 L 681.589844 1186.238281 C 682.519531 1184.917969 683.902344 1184.082031 685.394531 1183.796875 C 686.917969 1183.507812 688.550781 1183.792969 689.929688 1184.71875 L 697.21875 1189.675781 C 697.378906 1189.78125 697.535156 1189.902344 697.6875 1190.027344 C 697.84375 1190.160156 697.992188 1190.292969 698.125 1190.429688 L 698.332031 1190.640625 L 698.582031 1190.476562 C 700.796875 1188.972656 702.964844 1187.394531 705.066406 1185.746094 C 707.179688 1184.085938 709.234375 1182.355469 711.21875 1180.566406 L 711.667969 1180.160156 L 711.097656 1179.964844 L 707.277344 1178.632812 L 707.269531 1178.632812 L 707.253906 1178.625 C 705.695312 1178.074219 704.496094 1176.9375 703.824219 1175.550781 C 703.152344 1174.160156 703.003906 1172.515625 703.546875 1170.957031 L 703.550781 1170.949219 L 703.554688 1170.929688 L 703.609375 1170.765625 C 704.175781 1169.273438 705.285156 1168.132812 706.632812 1167.480469 C 708.023438 1166.804688 709.679688 1166.660156 711.246094 1167.203125 L 719.574219 1170.097656 C 719.765625 1170.160156 719.945312 1170.234375 720.121094 1170.316406 C 720.289062 1170.394531 720.46875 1170.488281 720.636719 1170.585938 L 720.894531 1170.738281 L 721.089844 1170.511719 C 722.847656 1168.488281 724.53125 1166.402344 726.140625 1164.261719 C 727.75 1162.128906 729.292969 1159.929688 730.753906 1157.675781 L 731.082031 1157.167969 L 730.480469 1157.125 L 726.429688 1156.828125 L 726.425781 1156.828125 L 726.414062 1156.824219 C 724.765625 1156.699219 723.304688 1155.914062 722.296875 1154.746094 C 721.289062 1153.574219 720.71875 1152.027344 720.839844 1150.371094 L 720.839844 1150.367188 L 720.84375 1150.347656 L 720.851562 1150.207031 C 721.003906 1148.613281 721.78125 1147.207031 722.921875 1146.222656 C 724.09375 1145.210938 725.65625 1144.640625 727.308594 1144.757812 L 736.097656 1145.402344 C 736.304688 1145.421875 736.503906 1145.445312 736.691406 1145.476562 C 736.886719 1145.507812 737.082031 1145.554688 737.277344 1145.605469 L 737.558594 1145.6875 L 737.691406 1145.414062 C 738.859375 1143.015625 739.949219 1140.566406 740.957031 1138.074219 C 741.957031 1135.59375 742.875 1133.066406 743.699219 1130.507812 L 743.882812 1129.933594 L 743.292969 1130.042969 L 739.304688 1130.804688 L 739.296875 1130.808594 L 739.28125 1130.808594 C 737.648438 1131.117188 736.035156 1130.734375 734.761719 1129.867188 C 733.480469 1129 732.535156 1127.652344 732.222656 1126.027344 L 732.222656 1126.015625 L 732.171875 1125.714844 L 732.160156 1125.714844 C 731.949219 1124.179688 732.335938 1122.679688 733.152344 1121.472656 C 734.023438 1120.191406 735.382812 1119.238281 737.015625 1118.925781 L 745.671875 1117.273438 C 745.878906 1117.234375 746.078125 1117.203125 746.269531 1117.1875 C 746.464844 1117.167969 746.660156 1117.164062 746.851562 1117.164062 L 747.148438 1117.167969 L 747.207031 1116.867188 C 747.710938 1114.25 748.125 1111.601562 748.449219 1108.921875 C 748.773438 1106.285156 749 1103.621094 749.140625 1100.925781 L 749.171875 1100.324219 L 748.628906 1100.589844 L 744.976562 1102.347656 L 744.972656 1102.355469 L 744.964844 1102.359375 C 743.46875 1103.074219 741.816406 1103.121094 740.355469 1102.609375 C 738.898438 1102.105469 737.628906 1101.042969 736.90625 1099.554688 L 736.90625 1099.550781 L 736.808594 1099.335938 L 736.796875 1099.335938 C 736.167969 1097.894531 736.152344 1096.320312 736.636719 1094.921875 C 737.144531 1093.460938 738.207031 1092.183594 739.707031 1091.457031 L 747.640625 1087.621094 C 747.8125 1087.539062 747.992188 1087.460938 748.175781 1087.390625 C 748.359375 1087.324219 748.546875 1087.261719 748.730469 1087.214844 L 749.019531 1087.136719 L 749 1086.84375 C 748.808594 1084.148438 748.53125 1081.472656 748.160156 1078.832031 C 747.785156 1076.167969 747.320312 1073.527344 746.769531 1070.925781 L 746.640625 1070.332031 L 746.183594 1070.730469 L 743.101562 1073.386719 L 743.089844 1073.394531 C 741.832031 1074.476562 740.246094 1074.945312 738.707031 1074.832031 C 737.167969 1074.722656 735.667969 1074.027344 734.589844 1072.777344 L 734.574219 1072.761719 L 734.433594 1072.601562 C 733.445312 1071.371094 733.019531 1069.851562 733.125 1068.375 C 733.234375 1066.824219 733.9375 1065.316406 735.191406 1064.230469 L 741.863281 1058.46875 C 742.015625 1058.339844 742.171875 1058.214844 742.332031 1058.101562 C 742.5 1057.984375 742.671875 1057.875 742.835938 1057.78125 L 743.097656 1057.632812 L 742.996094 1057.351562 C 742.125 1054.808594 741.15625 1052.304688 740.109375 1049.839844 C 739.058594 1047.371094 737.921875 1044.945312 736.703125 1042.566406 L 736.425781 1042.027344 L 736.085938 1042.527344 L 733.800781 1045.898438 L 733.796875 1045.90625 L 733.789062 1045.917969 C 732.855469 1047.277344 731.445312 1048.144531 729.929688 1048.433594 C 728.410156 1048.722656 726.785156 1048.441406 725.417969 1047.511719 L 725.414062 1047.507812 L 725.398438 1047.496094 L 725.269531 1047.417969 C 723.96875 1046.484375 723.140625 1045.113281 722.859375 1043.636719 C 722.570312 1042.117188 722.859375 1040.476562 723.785156 1039.101562 L 728.738281 1031.808594 C 728.847656 1031.652344 728.96875 1031.492188 729.09375 1031.335938 L 729.089844 1031.335938 C 729.21875 1031.1875 729.355469 1031.035156 729.492188 1030.898438 L 729.703125 1030.695312 L 729.535156 1030.449219 C 728.03125 1028.230469 726.453125 1026.0625 724.808594 1023.964844 C 723.148438 1021.847656 721.417969 1019.792969 719.628906 1017.8125 L 719.222656 1017.363281 L 719.023438 1017.933594 L 717.695312 1021.75 L 717.6875 1021.769531 C 717.136719 1023.332031 716 1024.535156 714.613281 1025.203125 C 713.226562 1025.875 711.582031 1026.023438 710.023438 1025.480469 L 710 1025.476562 L 709.847656 1025.421875 L 709.839844 1025.421875 C 708.347656 1024.859375 707.195312 1023.746094 706.546875 1022.398438 C 705.867188 1021 705.722656 1019.351562 706.261719 1017.78125 L 709.164062 1009.449219 C 709.230469 1009.261719 709.304688 1009.078125 709.382812 1008.902344 C 709.460938 1008.730469 709.550781 1008.5625 709.644531 1008.390625 L 709.796875 1008.132812 L 709.574219 1007.941406 C 707.554688 1006.1875 705.46875 1004.503906 703.332031 1002.890625 C 701.199219 1001.285156 699 999.746094 696.738281 998.277344 L 696.230469 997.949219 L 696.183594 998.554688 L 695.890625 1002.59375 L 695.890625 1002.609375 C 695.765625 1004.265625 694.972656 1005.722656 693.808594 1006.730469 C 692.640625 1007.738281 691.089844 1008.304688 689.441406 1008.1875 L 689.429688 1008.1875 L 689.414062 1008.179688 L 689.246094 1008.175781 C 687.65625 1008.015625 686.269531 1007.238281 685.285156 1006.105469 C 684.273438 1004.933594 683.703125 1003.371094 683.824219 1001.714844 L 684.46875 992.929688 C 684.480469 992.722656 684.507812 992.523438 684.539062 992.332031 C 684.570312 992.144531 684.613281 991.953125 684.671875 991.753906 L 684.746094 991.46875 L 684.476562 991.339844 C 682.082031 990.167969 679.628906 989.082031 677.136719 988.074219 C 674.65625 987.074219 672.128906 986.15625 669.570312 985.328125 L 668.992188 985.144531 L 669.105469 985.738281 L 669.871094 989.734375 L 669.871094 989.738281 L 669.875 989.746094 C 670.183594 991.378906 669.796875 992.992188 668.929688 994.273438 C 668.0625 995.550781 666.707031 996.5 665.082031 996.808594 L 665.074219 996.8125 L 664.90625 996.84375 L 664.902344 996.84375 C 663.328125 997.101562 661.777344 996.714844 660.539062 995.871094 C 659.253906 995.003906 658.300781 993.640625 657.988281 992.011719 L 656.335938 983.351562 C 656.296875 983.15625 656.265625 982.957031 656.25 982.769531 C 656.230469 982.574219 656.226562 982.375 656.226562 982.179688 L 656.226562 981.882812 L 655.933594 981.828125 C 653.316406 981.324219 650.664062 980.90625 647.984375 980.578125 C 645.347656 980.261719 642.675781 980.027344 639.980469 979.890625 L 639.382812 979.863281 L 639.644531 980.402344 L 641.40625 984.046875 L 641.410156 984.050781 L 641.414062 984.058594 C 642.136719 985.554688 642.183594 987.210938 641.675781 988.671875 C 641.167969 990.128906 640.105469 991.402344 638.613281 992.125 L 638.609375 992.128906 L 638.601562 992.132812 C 637.105469 992.855469 635.449219 992.898438 633.984375 992.390625 C 632.519531 991.882812 631.246094 990.816406 630.519531 989.320312 L 626.683594 981.390625 C 626.601562 981.214844 626.523438 981.039062 626.457031 980.855469 C 626.394531 980.675781 626.332031 980.488281 626.285156 980.300781 L 626.210938 980.011719 Z M 1096.773438 1079.375 L 1096.769531 1079.375 C 1092.777344 1083.363281 1090.308594 1088.882812 1090.308594 1094.984375 C 1090.308594 1101.082031 1092.777344 1106.605469 1096.769531 1110.59375 L 1096.773438 1110.597656 C 1100.765625 1114.585938 1106.285156 1117.0625 1112.382812 1117.0625 C 1118.480469 1117.0625 1124.003906 1114.585938 1127.992188 1110.597656 L 1127.996094 1110.59375 C 1131.988281 1106.605469 1134.460938 1101.082031 1134.460938 1094.984375 C 1134.460938 1088.882812 1131.988281 1083.363281 1127.996094 1079.375 L 1127.992188 1079.375 C 1124.003906 1075.378906 1118.480469 1072.90625 1112.382812 1072.90625 C 1106.285156 1072.90625 1100.765625 1075.378906 1096.773438 1079.375 Z M 1112.382812 1050.710938 C 1100.160156 1050.710938 1089.089844 1055.667969 1081.078125 1063.679688 C 1073.066406 1071.6875 1068.109375 1082.761719 1068.109375 1094.984375 C 1068.109375 1107.207031 1073.066406 1118.277344 1081.078125 1126.289062 C 1089.089844 1134.296875 1100.160156 1139.257812 1112.382812 1139.257812 C 1124.609375 1139.257812 1135.679688 1134.296875 1143.6875 1126.289062 C 1151.699219 1118.277344 1156.65625 1107.207031 1156.65625 1094.984375 C 1156.65625 1082.761719 1151.699219 1071.6875 1143.6875 1063.679688 C 1135.679688 1055.667969 1124.609375 1050.710938 1112.382812 1050.710938 Z M 1072.1875 1054.789062 C 1061.902344 1065.074219 1055.539062 1079.285156 1055.539062 1094.984375 C 1055.539062 1110.683594 1061.902344 1124.890625 1072.1875 1135.179688 C 1082.476562 1145.464844 1096.6875 1151.828125 1112.382812 1151.828125 C 1128.082031 1151.828125 1142.292969 1145.464844 1152.574219 1135.179688 C 1162.859375 1124.890625 1169.226562 1110.683594 1169.226562 1094.984375 C 1169.226562 1079.285156 1162.859375 1065.074219 1152.574219 1054.789062 C 1142.292969 1044.503906 1128.082031 1038.140625 1112.382812 1038.140625 C 1096.6875 1038.140625 1082.476562 1044.503906 1072.1875 1054.789062 Z M 1104.253906 980.027344 C 1101.558594 980.21875 1098.886719 980.5 1096.246094 980.871094 C 1093.578125 981.242188 1090.9375 981.710938 1088.324219 982.265625 L 1087.730469 982.386719 L 1088.128906 982.851562 L 1090.785156 985.921875 L 1090.792969 985.929688 C 1091.871094 987.1875 1092.347656 988.777344 1092.234375 990.320312 C 1092.125 991.863281 1091.429688 993.363281 1090.175781 994.445312 L 1090.164062 994.453125 L 1090.128906 994.488281 C 1088.875 995.550781 1087.296875 996.015625 1085.773438 995.90625 C 1084.222656 995.789062 1082.71875 995.085938 1081.628906 993.832031 L 1075.871094 987.164062 C 1075.738281 987.007812 1075.617188 986.851562 1075.507812 986.695312 C 1075.394531 986.53125 1075.285156 986.367188 1075.191406 986.191406 L 1075.042969 985.933594 L 1074.761719 986.03125 C 1072.210938 986.910156 1069.703125 987.875 1067.246094 988.921875 C 1064.78125 989.972656 1062.351562 991.105469 1059.964844 992.328125 L 1059.425781 992.601562 L 1059.929688 992.941406 L 1063.292969 995.230469 L 1063.300781 995.234375 L 1063.300781 995.238281 C 1064.675781 996.171875 1065.542969 997.582031 1065.835938 999.101562 C 1066.125 1000.617188 1065.839844 1002.25 1064.910156 1003.621094 L 1064.910156 1003.628906 L 1064.839844 1003.71875 L 1064.839844 1003.726562 C 1063.90625 1005.046875 1062.523438 1005.882812 1061.035156 1006.164062 C 1059.515625 1006.457031 1057.871094 1006.171875 1056.5 1005.238281 L 1049.210938 1000.289062 C 1049.054688 1000.183594 1048.890625 1000.0625 1048.738281 999.933594 C 1048.585938 999.804688 1048.441406 999.671875 1048.3125 999.535156 L 1048.101562 999.324219 L 1047.855469 999.488281 C 1045.636719 1000.992188 1043.472656 1002.574219 1041.371094 1004.21875 C 1039.25 1005.878906 1037.195312 1007.609375 1035.210938 1009.40625 L 1034.761719 1009.808594 L 1035.332031 1010.007812 L 1039.148438 1011.335938 L 1039.15625 1011.335938 C 1040.726562 1011.886719 1041.929688 1013.023438 1042.605469 1014.414062 C 1043.28125 1015.804688 1043.425781 1017.453125 1042.882812 1019.023438 L 1042.882812 1019.035156 C 1042.332031 1020.601562 1041.191406 1021.804688 1039.796875 1022.480469 C 1038.402344 1023.15625 1036.75 1023.304688 1035.179688 1022.761719 L 1026.855469 1019.863281 C 1026.664062 1019.800781 1026.484375 1019.722656 1026.3125 1019.648438 C 1026.136719 1019.566406 1025.964844 1019.476562 1025.800781 1019.375 L 1025.539062 1019.226562 L 1025.347656 1019.449219 C 1023.59375 1021.472656 1021.90625 1023.554688 1020.292969 1025.695312 C 1018.6875 1027.832031 1017.148438 1030.03125 1015.679688 1032.289062 L 1015.351562 1032.796875 L 1015.953125 1032.84375 L 1019.996094 1033.136719 L 1020.007812 1033.136719 C 1021.660156 1033.265625 1023.121094 1034.050781 1024.132812 1035.222656 C 1025.140625 1036.386719 1025.710938 1037.9375 1025.589844 1039.597656 L 1025.589844 1039.617188 C 1025.464844 1041.269531 1024.675781 1042.730469 1023.503906 1043.742188 C 1022.335938 1044.753906 1020.773438 1045.320312 1019.113281 1045.203125 L 1010.328125 1044.558594 C 1010.128906 1044.542969 1009.929688 1044.519531 1009.746094 1044.484375 C 1009.546875 1044.453125 1009.351562 1044.40625 1009.164062 1044.355469 L 1008.875 1044.277344 L 1008.746094 1044.542969 C 1007.574219 1046.941406 1006.484375 1049.390625 1005.476562 1051.890625 C 1004.476562 1054.371094 1003.558594 1056.894531 1002.730469 1059.460938 L 1002.542969 1060.039062 L 1003.140625 1059.921875 L 1007.136719 1059.15625 L 1007.144531 1059.15625 L 1007.148438 1059.152344 C 1008.78125 1058.847656 1010.390625 1059.226562 1011.671875 1060.097656 C 1012.953125 1060.964844 1013.902344 1062.316406 1014.210938 1063.945312 L 1014.214844 1063.953125 L 1014.214844 1063.964844 L 1014.242188 1064.078125 C 1014.507812 1065.667969 1014.121094 1067.238281 1013.273438 1068.492188 C 1012.402344 1069.773438 1011.042969 1070.722656 1009.414062 1071.035156 L 1000.757812 1072.695312 C 1000.554688 1072.730469 1000.359375 1072.761719 1000.167969 1072.777344 C 999.972656 1072.796875 999.777344 1072.796875 999.582031 1072.796875 L 999.28125 1072.796875 L 999.226562 1073.089844 C 998.722656 1075.703125 998.308594 1078.359375 997.980469 1081.035156 C 997.660156 1083.671875 997.429688 1086.339844 997.296875 1089.039062 L 997.261719 1089.644531 L 997.808594 1089.378906 L 1001.445312 1087.621094 L 1001.453125 1087.613281 L 1001.457031 1087.613281 C 1002.957031 1086.890625 1004.613281 1086.847656 1006.074219 1087.351562 C 1007.53125 1087.855469 1008.800781 1088.917969 1009.519531 1090.40625 L 1009.527344 1090.417969 L 1009.621094 1090.625 L 1009.628906 1090.625 C 1010.261719 1092.066406 1010.28125 1093.644531 1009.792969 1095.039062 C 1009.28125 1096.507812 1008.21875 1097.78125 1006.722656 1098.507812 L 998.789062 1102.339844 L 998.785156 1102.339844 C 998.605469 1102.429688 998.429688 1102.507812 998.257812 1102.574219 L 998.257812 1102.570312 C 998.070312 1102.640625 997.882812 1102.699219 997.699219 1102.746094 L 997.414062 1102.820312 L 997.429688 1103.117188 C 997.617188 1105.8125 997.902344 1108.492188 998.273438 1111.140625 C 998.644531 1113.800781 999.109375 1116.4375 999.664062 1119.042969 L 999.789062 1119.632812 L 1000.25 1119.234375 L 1003.324219 1116.582031 L 1003.335938 1116.570312 C 1004.59375 1115.488281 1006.179688 1115.015625 1007.71875 1115.125 C 1009.261719 1115.238281 1010.761719 1115.933594 1011.84375 1117.183594 L 1011.855469 1117.199219 L 1011.898438 1117.25 L 1011.90625 1117.253906 C 1012.953125 1118.5 1013.414062 1120.066406 1013.300781 1121.59375 C 1013.191406 1123.140625 1012.488281 1124.648438 1011.234375 1125.730469 L 1004.566406 1131.492188 C 1004.414062 1131.625 1004.253906 1131.746094 1004.089844 1131.859375 C 1003.929688 1131.972656 1003.765625 1132.082031 1003.59375 1132.175781 L 1003.332031 1132.324219 L 1003.429688 1132.605469 C 1004.304688 1135.148438 1005.269531 1137.65625 1006.320312 1140.117188 C 1007.367188 1142.585938 1008.507812 1145.011719 1009.726562 1147.398438 L 1010.003906 1147.9375 L 1010.34375 1147.4375 L 1012.628906 1144.074219 L 1012.636719 1144.058594 C 1013.574219 1142.6875 1014.980469 1141.820312 1016.503906 1141.53125 C 1018.019531 1141.242188 1019.648438 1141.523438 1021.015625 1142.449219 L 1021.03125 1142.460938 L 1021.125 1142.523438 C 1022.445312 1143.457031 1023.28125 1144.839844 1023.566406 1146.332031 C 1023.855469 1147.851562 1023.574219 1149.488281 1022.644531 1150.863281 L 1017.6875 1158.152344 C 1017.574219 1158.320312 1017.453125 1158.480469 1017.335938 1158.628906 C 1017.210938 1158.777344 1017.074219 1158.925781 1016.9375 1159.058594 L 1016.726562 1159.265625 L 1016.894531 1159.515625 C 1018.398438 1161.734375 1019.976562 1163.898438 1021.625 1166.003906 C 1023.28125 1168.117188 1025.011719 1170.171875 1026.800781 1172.152344 L 1027.207031 1172.609375 L 1027.40625 1172.03125 L 1028.734375 1168.214844 L 1028.734375 1168.199219 L 1028.738281 1168.199219 C 1029.285156 1166.636719 1030.425781 1165.433594 1031.816406 1164.757812 C 1033.207031 1164.082031 1034.851562 1163.933594 1036.417969 1164.484375 L 1036.441406 1164.484375 L 1036.476562 1164.5 C 1038.023438 1165.050781 1039.210938 1166.183594 1039.882812 1167.566406 C 1040.558594 1168.960938 1040.707031 1170.613281 1040.164062 1172.183594 L 1037.265625 1180.511719 C 1037.203125 1180.699219 1037.125 1180.882812 1037.042969 1181.058594 C 1036.964844 1181.226562 1036.878906 1181.398438 1036.777344 1181.574219 L 1036.628906 1181.828125 L 1036.855469 1182.023438 C 1038.875 1183.777344 1040.960938 1185.460938 1043.101562 1187.078125 C 1045.230469 1188.679688 1047.429688 1190.21875 1049.6875 1191.683594 L 1050.199219 1192.019531 L 1050.242188 1191.414062 L 1050.539062 1187.371094 L 1050.539062 1187.351562 C 1050.664062 1185.699219 1051.453125 1184.242188 1052.621094 1183.234375 C 1053.789062 1182.222656 1055.339844 1181.65625 1056.992188 1181.777344 L 1057.015625 1181.777344 L 1057.085938 1181.785156 C 1058.710938 1181.921875 1060.144531 1182.703125 1061.140625 1183.859375 C 1062.152344 1185.027344 1062.722656 1186.585938 1062.601562 1188.246094 L 1061.957031 1197.035156 C 1061.949219 1197.242188 1061.921875 1197.4375 1061.886719 1197.628906 C 1061.851562 1197.828125 1061.808594 1198.027344 1061.757812 1198.210938 L 1061.679688 1198.496094 L 1061.949219 1198.628906 C 1064.347656 1199.792969 1066.796875 1200.886719 1069.292969 1201.890625 C 1071.769531 1202.890625 1074.296875 1203.808594 1076.855469 1204.632812 L 1077.433594 1204.820312 L 1077.320312 1204.226562 L 1076.558594 1200.226562 L 1076.554688 1200.210938 C 1076.25 1198.582031 1076.632812 1196.96875 1077.496094 1195.695312 C 1078.363281 1194.417969 1079.71875 1193.46875 1081.34375 1193.152344 L 1081.359375 1193.152344 L 1081.566406 1193.117188 L 1081.566406 1193.113281 C 1083.132812 1192.871094 1084.664062 1193.261719 1085.890625 1194.09375 C 1087.171875 1194.960938 1088.125 1196.320312 1088.4375 1197.953125 L 1090.09375 1206.609375 C 1090.128906 1206.808594 1090.164062 1207.011719 1090.175781 1207.199219 C 1090.195312 1207.394531 1090.203125 1207.59375 1090.203125 1207.789062 L 1090.203125 1208.089844 L 1090.496094 1208.140625 C 1093.109375 1208.644531 1095.753906 1209.0625 1098.429688 1209.386719 C 1101.070312 1209.707031 1103.738281 1209.9375 1106.441406 1210.074219 L 1107.042969 1210.109375 L 1106.78125 1209.558594 L 1105.019531 1205.921875 L 1105.011719 1205.90625 C 1104.289062 1204.410156 1104.246094 1202.757812 1104.753906 1201.292969 C 1105.257812 1199.832031 1106.316406 1198.566406 1107.808594 1197.84375 L 1107.816406 1197.839844 L 1108.03125 1197.742188 L 1108.03125 1197.738281 C 1109.46875 1197.105469 1111.042969 1197.085938 1112.441406 1197.570312 C 1113.90625 1198.082031 1115.179688 1199.144531 1115.90625 1200.640625 L 1119.742188 1208.574219 C 1119.828125 1208.75 1119.90625 1208.933594 1119.972656 1209.109375 C 1120.039062 1209.300781 1120.097656 1209.480469 1120.144531 1209.667969 L 1120.21875 1209.957031 L 1120.515625 1209.9375 C 1123.214844 1209.75 1125.894531 1209.464844 1128.542969 1209.09375 C 1131.203125 1208.722656 1133.839844 1208.253906 1136.441406 1207.707031 L 1137.035156 1207.578125 L 1136.636719 1207.121094 L 1133.976562 1204.039062 L 1133.96875 1204.027344 C 1132.890625 1202.773438 1132.417969 1201.183594 1132.527344 1199.644531 C 1132.640625 1198.101562 1133.335938 1196.601562 1134.589844 1195.519531 L 1134.601562 1195.511719 L 1134.722656 1195.402344 C 1135.964844 1194.390625 1137.5 1193.953125 1138.996094 1194.0625 C 1140.539062 1194.175781 1142.046875 1194.875 1143.132812 1196.128906 L 1148.894531 1202.800781 C 1149.023438 1202.949219 1149.148438 1203.109375 1149.261719 1203.269531 L 1149.261719 1203.265625 C 1149.378906 1203.433594 1149.488281 1203.605469 1149.578125 1203.773438 L 1149.726562 1204.039062 L 1150.007812 1203.9375 C 1152.550781 1203.0625 1155.058594 1202.097656 1157.523438 1201.050781 C 1159.988281 1200 1162.421875 1198.859375 1164.800781 1197.640625 L 1165.34375 1197.367188 L 1164.839844 1197.027344 L 1161.472656 1194.738281 L 1161.460938 1194.730469 L 1161.453125 1194.726562 C 1160.085938 1193.792969 1159.222656 1192.382812 1158.929688 1190.863281 C 1158.640625 1189.34375 1158.925781 1187.714844 1159.855469 1186.347656 L 1159.855469 1186.34375 L 1159.867188 1186.328125 L 1159.925781 1186.238281 C 1160.859375 1184.917969 1162.242188 1184.082031 1163.730469 1183.796875 C 1165.253906 1183.507812 1166.890625 1183.792969 1168.265625 1184.71875 L 1175.554688 1189.675781 C 1175.714844 1189.78125 1175.871094 1189.902344 1176.023438 1190.027344 C 1176.183594 1190.160156 1176.328125 1190.292969 1176.460938 1190.429688 L 1176.671875 1190.640625 L 1176.917969 1190.476562 C 1179.136719 1188.972656 1181.300781 1187.394531 1183.40625 1185.746094 C 1185.519531 1184.085938 1187.574219 1182.355469 1189.558594 1180.566406 L 1190.007812 1180.160156 L 1189.433594 1179.964844 L 1185.613281 1178.632812 L 1185.609375 1178.632812 L 1185.59375 1178.625 C 1184.03125 1178.074219 1182.832031 1176.9375 1182.160156 1175.550781 C 1181.488281 1174.160156 1181.339844 1172.515625 1181.882812 1170.957031 L 1181.882812 1170.949219 L 1181.894531 1170.929688 L 1181.945312 1170.765625 C 1182.511719 1169.273438 1183.625 1168.132812 1184.96875 1167.480469 C 1186.363281 1166.804688 1188.015625 1166.660156 1189.585938 1167.203125 L 1197.910156 1170.097656 C 1198.097656 1170.160156 1198.28125 1170.234375 1198.460938 1170.316406 C 1198.628906 1170.394531 1198.804688 1170.488281 1198.976562 1170.585938 L 1199.230469 1170.738281 L 1199.425781 1170.511719 C 1201.183594 1168.488281 1202.871094 1166.402344 1204.476562 1164.261719 C 1206.085938 1162.128906 1207.628906 1159.929688 1209.089844 1157.675781 L 1209.421875 1157.167969 L 1208.816406 1157.125 L 1204.769531 1156.828125 L 1204.765625 1156.828125 L 1204.753906 1156.824219 C 1203.101562 1156.699219 1201.644531 1155.914062 1200.636719 1154.746094 C 1199.625 1153.574219 1199.058594 1152.027344 1199.179688 1150.371094 L 1199.179688 1150.347656 L 1199.191406 1150.207031 L 1199.1875 1150.207031 C 1199.34375 1148.613281 1200.121094 1147.207031 1201.257812 1146.222656 C 1202.429688 1145.210938 1203.992188 1144.640625 1205.648438 1144.757812 L 1214.4375 1145.402344 C 1214.640625 1145.421875 1214.84375 1145.445312 1215.03125 1145.476562 C 1215.226562 1145.507812 1215.414062 1145.554688 1215.613281 1145.605469 L 1215.898438 1145.6875 L 1216.027344 1145.414062 C 1217.199219 1143.015625 1218.285156 1140.566406 1219.292969 1138.074219 C 1220.296875 1135.59375 1221.207031 1133.066406 1222.039062 1130.507812 L 1222.222656 1129.933594 L 1221.628906 1130.042969 L 1217.640625 1130.804688 L 1217.632812 1130.808594 L 1217.617188 1130.808594 C 1215.984375 1131.117188 1214.375 1130.734375 1213.09375 1129.867188 C 1211.816406 1129 1210.871094 1127.652344 1210.5625 1126.027344 L 1210.558594 1126.015625 L 1210.511719 1125.714844 L 1210.5 1125.714844 C 1210.289062 1124.179688 1210.675781 1122.679688 1211.492188 1121.472656 C 1212.363281 1120.191406 1213.722656 1119.238281 1215.351562 1118.925781 L 1224.011719 1117.273438 C 1224.214844 1117.234375 1224.414062 1117.203125 1224.609375 1117.1875 C 1224.796875 1117.167969 1224.996094 1117.164062 1225.1875 1117.164062 L 1225.488281 1117.167969 L 1225.542969 1116.867188 C 1226.046875 1114.25 1226.460938 1111.601562 1226.785156 1108.921875 C 1227.109375 1106.285156 1227.335938 1103.621094 1227.476562 1100.925781 L 1227.507812 1100.324219 L 1226.964844 1100.589844 L 1223.316406 1102.347656 L 1223.3125 1102.355469 L 1223.300781 1102.359375 C 1221.804688 1103.074219 1220.152344 1103.121094 1218.695312 1102.609375 C 1217.234375 1102.105469 1215.964844 1101.042969 1215.246094 1099.554688 L 1215.246094 1099.550781 L 1215.144531 1099.335938 L 1215.132812 1099.335938 C 1214.503906 1097.894531 1214.484375 1096.320312 1214.972656 1094.921875 C 1215.480469 1093.460938 1216.546875 1092.183594 1218.042969 1091.457031 L 1225.976562 1087.621094 C 1226.148438 1087.539062 1226.332031 1087.460938 1226.515625 1087.390625 C 1226.699219 1087.324219 1226.882812 1087.261719 1227.070312 1087.214844 L 1227.359375 1087.136719 L 1227.335938 1086.84375 C 1227.148438 1084.148438 1226.867188 1081.472656 1226.496094 1078.832031 C 1226.121094 1076.167969 1225.65625 1073.527344 1225.105469 1070.925781 L 1224.976562 1070.332031 L 1224.519531 1070.730469 L 1221.441406 1073.386719 L 1221.425781 1073.394531 C 1220.171875 1074.476562 1218.585938 1074.945312 1217.046875 1074.832031 C 1215.503906 1074.722656 1214.003906 1074.027344 1212.921875 1072.777344 L 1212.914062 1072.761719 L 1212.773438 1072.601562 C 1211.785156 1071.371094 1211.355469 1069.851562 1211.460938 1068.375 C 1211.574219 1066.824219 1212.273438 1065.316406 1213.527344 1064.230469 L 1220.203125 1058.46875 C 1220.351562 1058.339844 1220.511719 1058.214844 1220.671875 1058.101562 C 1220.839844 1057.984375 1221.007812 1057.875 1221.175781 1057.78125 L 1221.433594 1057.632812 L 1221.335938 1057.351562 C 1220.460938 1054.808594 1219.496094 1052.304688 1218.449219 1049.839844 C 1217.398438 1047.371094 1216.257812 1044.945312 1215.039062 1042.566406 L 1214.765625 1042.027344 L 1214.425781 1042.527344 L 1212.136719 1045.898438 L 1212.132812 1045.90625 L 1212.125 1045.917969 C 1211.191406 1047.277344 1209.785156 1048.144531 1208.265625 1048.433594 C 1206.746094 1048.722656 1205.121094 1048.441406 1203.757812 1047.511719 L 1203.746094 1047.507812 L 1203.734375 1047.496094 L 1203.609375 1047.417969 L 1203.605469 1047.417969 C 1202.300781 1046.484375 1201.480469 1045.113281 1201.199219 1043.636719 C 1200.90625 1042.117188 1201.191406 1040.476562 1202.121094 1039.101562 L 1207.074219 1031.808594 C 1207.183594 1031.652344 1207.304688 1031.492188 1207.429688 1031.335938 C 1207.554688 1031.1875 1207.691406 1031.035156 1207.828125 1030.898438 L 1208.039062 1030.695312 L 1207.871094 1030.449219 C 1206.371094 1028.230469 1204.792969 1026.0625 1203.144531 1023.964844 C 1201.488281 1021.847656 1199.757812 1019.792969 1197.964844 1017.8125 L 1197.558594 1017.363281 L 1197.359375 1017.933594 L 1196.03125 1021.75 L 1196.027344 1021.769531 L 1196.023438 1021.769531 C 1195.472656 1023.332031 1194.335938 1024.535156 1192.953125 1025.203125 C 1191.5625 1025.875 1189.921875 1026.023438 1188.359375 1025.480469 L 1188.339844 1025.476562 L 1188.183594 1025.421875 L 1188.179688 1025.421875 C 1186.683594 1024.859375 1185.535156 1023.746094 1184.882812 1022.398438 C 1184.207031 1021 1184.058594 1019.351562 1184.601562 1017.78125 L 1187.5 1009.449219 C 1187.570312 1009.261719 1187.640625 1009.078125 1187.722656 1008.902344 C 1187.800781 1008.730469 1187.886719 1008.5625 1187.984375 1008.390625 L 1188.136719 1008.132812 L 1187.910156 1007.941406 C 1185.890625 1006.1875 1183.804688 1004.503906 1181.667969 1002.890625 C 1179.539062 1001.285156 1177.335938 999.746094 1175.078125 998.277344 L 1174.566406 997.949219 L 1174.523438 998.554688 L 1174.230469 1002.59375 L 1174.230469 1002.601562 L 1174.226562 1002.609375 C 1174.101562 1004.265625 1173.3125 1005.722656 1172.148438 1006.730469 C 1170.976562 1007.738281 1169.425781 1008.304688 1167.777344 1008.1875 L 1167.769531 1008.1875 L 1167.75 1008.179688 L 1167.582031 1008.175781 C 1165.996094 1008.015625 1164.601562 1007.238281 1163.621094 1006.105469 C 1162.609375 1004.933594 1162.042969 1003.371094 1162.160156 1001.714844 L 1162.804688 992.929688 C 1162.820312 992.722656 1162.84375 992.523438 1162.878906 992.332031 C 1162.90625 992.144531 1162.953125 991.953125 1163.003906 991.753906 L 1163.082031 991.46875 L 1162.816406 991.339844 C 1160.417969 990.167969 1157.964844 989.082031 1155.472656 988.074219 C 1152.992188 987.074219 1150.46875 986.15625 1147.910156 985.328125 L 1147.332031 985.144531 L 1147.445312 985.738281 L 1148.207031 989.734375 L 1148.207031 989.738281 L 1148.210938 989.746094 C 1148.523438 991.378906 1148.132812 992.992188 1147.269531 994.273438 C 1146.402344 995.550781 1145.042969 996.5 1143.417969 996.808594 L 1143.414062 996.8125 L 1143.242188 996.84375 C 1141.664062 997.101562 1140.113281 996.714844 1138.875 995.871094 C 1137.59375 995.003906 1136.640625 993.640625 1136.324219 992.011719 L 1134.671875 983.351562 C 1134.632812 983.15625 1134.605469 982.957031 1134.585938 982.769531 C 1134.570312 982.574219 1134.5625 982.375 1134.5625 982.179688 L 1134.5625 981.882812 L 1134.269531 981.828125 C 1131.652344 981.324219 1129 980.90625 1126.320312 980.578125 C 1123.683594 980.261719 1121.015625 980.027344 1118.320312 979.890625 L 1117.71875 979.863281 L 1117.980469 980.402344 L 1119.746094 984.046875 L 1119.746094 984.058594 C 1120.472656 985.554688 1120.519531 987.210938 1120.011719 988.671875 C 1119.503906 990.128906 1118.445312 991.402344 1116.949219 992.125 L 1116.945312 992.128906 L 1116.9375 992.132812 C 1115.441406 992.855469 1113.785156 992.898438 1112.320312 992.390625 C 1110.859375 991.882812 1109.585938 990.816406 1108.859375 989.320312 L 1105.019531 981.390625 C 1104.9375 981.214844 1104.859375 981.039062 1104.792969 980.855469 C 1104.730469 980.675781 1104.671875 980.488281 1104.621094 980.300781 L 1104.546875 980.011719 Z M 801.625 1045.40625 L 801.625 1095.453125 L 850.925781 1095.453125 L 850.925781 1045.40625 Z M 801.625 988.277344 L 801.625 1038.328125 L 850.925781 1038.328125 L 850.925781 988.277344 Z M 801.625 947.304688 L 801.625 981.199219 L 850.925781 981.199219 L 850.925781 947.304688 Z M 1062.570312 874.144531 L 1121.34375 876.136719 C 1118.082031 874.3125 1114.882812 872.445312 1111.867188 870.683594 C 1104.945312 866.640625 1098.980469 863.15625 1095.683594 862.203125 C 1091.308594 860.933594 1086.554688 860.902344 1081.921875 861.835938 C 1076.992188 862.832031 1072.203125 864.925781 1068.15625 867.796875 C 1066.160156 869.214844 1064.273438 871.511719 1062.570312 874.144531 Z M 1365.535156 1113.847656 C 1365.207031 1120.582031 1366.082031 1124.960938 1367.828125 1128.035156 C 1369.59375 1131.144531 1372.21875 1132.902344 1375.378906 1134.398438 C 1381.578125 1137.335938 1412.085938 1143.308594 1412.175781 1143.324219 L 1413.113281 1143.507812 L 1412.789062 1142.605469 L 1392.761719 1086.070312 L 1392.546875 1085.460938 L 1391.976562 1085.78125 C 1391.90625 1085.824219 1366.195312 1100.304688 1365.535156 1113.847656 Z M 1396.464844 1066.40625 C 1391.484375 1069.296875 1354.855469 1091.246094 1353.863281 1111.488281 C 1353.332031 1122.363281 1354.714844 1129.378906 1357.480469 1134.25 C 1360.226562 1139.085938 1364.371094 1141.847656 1369.375 1144.214844 C 1378.695312 1148.628906 1422.226562 1157.359375 1429.175781 1158.730469 Z M 1328.136719 1079.980469 C 1327.570312 1079.417969 1326.785156 1079.066406 1325.917969 1079.066406 C 1325.050781 1079.066406 1324.265625 1079.417969 1323.703125 1079.980469 L 1323.703125 1079.984375 C 1323.136719 1080.550781 1322.785156 1081.332031 1322.785156 1082.199219 C 1322.785156 1083.066406 1323.136719 1083.851562 1323.703125 1084.417969 C 1324.265625 1084.984375 1325.050781 1085.335938 1325.917969 1085.335938 C 1326.785156 1085.335938 1327.570312 1084.984375 1328.136719 1084.417969 C 1328.703125 1083.851562 1329.054688 1083.066406 1329.054688 1082.199219 C 1329.054688 1081.332031 1328.703125 1080.550781 1328.136719 1079.984375 Z M 1317.699219 1116.554688 C 1316.554688 1115.410156 1314.972656 1114.703125 1313.230469 1114.703125 C 1311.488281 1114.703125 1309.910156 1115.410156 1308.765625 1116.554688 C 1307.628906 1117.691406 1306.917969 1119.273438 1306.917969 1121.019531 C 1306.917969 1122.761719 1307.628906 1124.339844 1308.765625 1125.484375 C 1309.910156 1126.625 1311.488281 1127.332031 1313.230469 1127.332031 C 1314.972656 1127.332031 1316.554688 1126.625 1317.699219 1125.484375 C 1318.835938 1124.339844 1319.546875 1122.761719 1319.546875 1121.019531 C 1319.546875 1119.273438 1318.835938 1117.691406 1317.699219 1116.554688 Z M 1236.179688 888.25 C 1234.914062 886.984375 1233.160156 886.199219 1231.226562 886.199219 C 1229.292969 886.199219 1227.542969 886.984375 1226.273438 888.25 C 1225.007812 889.519531 1224.226562 891.269531 1224.226562 893.199219 C 1224.226562 895.132812 1225.007812 896.890625 1226.273438 898.152344 L 1226.273438 898.15625 C 1227.539062 899.417969 1229.292969 900.199219 1231.226562 900.199219 C 1233.164062 900.199219 1234.914062 899.417969 1236.179688 898.15625 L 1236.179688 898.152344 C 1237.441406 896.890625 1238.226562 895.132812 1238.226562 893.199219 C 1238.226562 891.269531 1237.441406 889.519531 1236.179688 888.25 Z M 1248.453125 960.035156 C 1247.132812 958.714844 1245.300781 957.894531 1243.28125 957.894531 C 1241.421875 957.894531 1239.71875 958.589844 1238.429688 959.730469 L 1238.363281 959.792969 L 1238.332031 959.820312 L 1238.300781 959.851562 L 1238.300781 959.855469 L 1238.261719 959.886719 L 1238.230469 959.917969 L 1238.195312 959.949219 L 1238.171875 959.976562 L 1238.128906 960.019531 L 1238.109375 960.035156 L 1238.0625 960.082031 L 1238.050781 960.097656 L 1238.027344 960.117188 L 1237.996094 960.152344 L 1237.925781 960.222656 L 1237.902344 960.253906 L 1237.867188 960.289062 L 1237.835938 960.324219 L 1237.808594 960.355469 L 1237.804688 960.359375 L 1237.773438 960.394531 L 1237.753906 960.417969 L 1237.742188 960.429688 L 1237.695312 960.488281 L 1237.683594 960.503906 L 1237.648438 960.539062 L 1237.640625 960.550781 L 1237.621094 960.574219 L 1237.59375 960.613281 L 1237.585938 960.621094 L 1237.5625 960.652344 L 1237.53125 960.6875 L 1237.53125 960.691406 L 1237.503906 960.722656 L 1237.476562 960.757812 L 1237.445312 960.796875 L 1237.425781 960.828125 L 1237.417969 960.835938 L 1237.390625 960.875 L 1237.371094 960.898438 L 1237.359375 960.910156 L 1237.332031 960.949219 L 1237.320312 960.972656 L 1237.308594 960.988281 L 1237.277344 961.027344 L 1237.269531 961.042969 L 1237.253906 961.066406 L 1237.226562 961.105469 L 1237.21875 961.117188 L 1237.199219 961.144531 L 1237.171875 961.183594 L 1237.171875 961.1875 L 1237.121094 961.265625 L 1237.074219 961.335938 L 1237.070312 961.34375 L 1237.027344 961.410156 L 1237.019531 961.425781 L 1236.996094 961.464844 L 1236.984375 961.488281 L 1236.972656 961.503906 L 1236.949219 961.546875 L 1236.941406 961.5625 L 1236.925781 961.589844 L 1236.902344 961.628906 L 1236.894531 961.640625 L 1236.878906 961.671875 L 1236.855469 961.714844 L 1236.855469 961.71875 L 1236.832031 961.753906 L 1236.789062 961.839844 L 1236.769531 961.875 L 1236.765625 961.878906 C 1236.6875 962.035156 1236.617188 962.191406 1236.546875 962.351562 L 1236.546875 962.355469 L 1236.414062 962.691406 L 1236.414062 962.695312 L 1236.355469 962.863281 L 1236.347656 962.867188 L 1236.335938 962.914062 L 1236.277344 963.089844 L 1236.273438 963.117188 L 1236.265625 963.132812 L 1236.242188 963.222656 L 1236.230469 963.269531 L 1236.195312 963.40625 L 1236.179688 963.449219 L 1236.179688 963.464844 L 1236.160156 963.542969 L 1236.160156 963.554688 L 1236.148438 963.585938 L 1236.140625 963.632812 L 1236.136719 963.644531 L 1236.132812 963.679688 L 1236.117188 963.726562 L 1236.117188 963.730469 L 1236.113281 963.773438 L 1236.101562 963.816406 L 1236.101562 963.820312 L 1236.09375 963.863281 L 1236.085938 963.910156 L 1236.078125 963.960938 L 1236.070312 964 L 1236.066406 964.003906 L 1236.0625 964.054688 L 1236.054688 964.089844 L 1236.050781 964.097656 L 1236.046875 964.148438 L 1236.042969 964.179688 L 1236.039062 964.195312 L 1236.03125 964.242188 L 1236.027344 964.277344 L 1236.027344 964.289062 L 1236.023438 964.335938 L 1236.019531 964.367188 L 1236.015625 964.382812 L 1236.011719 964.429688 L 1236.007812 964.460938 L 1236.007812 964.476562 L 1236.003906 964.527344 L 1236 964.546875 L 1235.996094 964.574219 L 1235.992188 964.621094 L 1235.992188 964.640625 L 1235.988281 964.671875 L 1235.988281 964.71875 L 1235.984375 964.734375 L 1235.984375 964.765625 L 1235.980469 964.816406 L 1235.980469 964.863281 L 1235.976562 964.914062 L 1235.976562 964.921875 L 1235.972656 964.960938 L 1235.972656 965.058594 L 1235.96875 965.109375 L 1235.96875 965.207031 C 1235.96875 967.226562 1236.792969 969.054688 1238.109375 970.378906 C 1239.433594 971.699219 1241.261719 972.515625 1243.28125 972.515625 L 1243.566406 972.515625 L 1243.597656 972.511719 L 1243.632812 972.511719 L 1243.660156 972.507812 L 1243.703125 972.507812 L 1243.738281 972.503906 L 1243.75 972.503906 L 1243.777344 972.5 L 1243.808594 972.5 L 1243.839844 972.496094 L 1243.878906 972.496094 L 1243.914062 972.492188 L 1243.9375 972.492188 L 1243.949219 972.488281 L 1243.984375 972.484375 L 1244.015625 972.484375 L 1244.03125 972.480469 L 1244.050781 972.480469 L 1244.082031 972.476562 L 1244.117188 972.472656 L 1244.121094 972.472656 L 1244.152344 972.46875 L 1244.1875 972.464844 L 1244.214844 972.460938 L 1244.222656 972.460938 L 1244.289062 972.453125 L 1244.308594 972.445312 L 1244.324219 972.445312 L 1244.390625 972.4375 L 1244.398438 972.4375 L 1244.460938 972.425781 L 1244.488281 972.417969 L 1244.492188 972.417969 L 1244.5625 972.410156 L 1244.578125 972.402344 L 1244.59375 972.402344 L 1244.660156 972.390625 L 1244.667969 972.386719 L 1244.695312 972.382812 L 1244.726562 972.378906 C 1244.945312 972.332031 1245.164062 972.277344 1245.375 972.21875 L 1245.378906 972.214844 L 1245.628906 972.136719 L 1245.640625 972.128906 L 1245.671875 972.121094 L 1245.964844 972.011719 L 1245.992188 972 L 1246.050781 971.976562 L 1246.058594 971.976562 L 1246.09375 971.960938 L 1246.121094 971.949219 L 1246.128906 971.945312 L 1246.339844 971.851562 L 1246.375 971.839844 L 1246.375 971.835938 C 1246.496094 971.777344 1246.621094 971.714844 1246.742188 971.652344 L 1246.769531 971.636719 L 1246.832031 971.605469 L 1246.847656 971.59375 L 1246.863281 971.585938 L 1247.066406 971.464844 L 1247.078125 971.460938 L 1247.097656 971.449219 L 1247.226562 971.367188 L 1247.238281 971.359375 L 1247.269531 971.339844 L 1247.296875 971.324219 L 1247.300781 971.316406 L 1247.324219 971.304688 L 1247.371094 971.269531 L 1247.382812 971.265625 L 1247.410156 971.246094 L 1247.445312 971.21875 C 1247.808594 970.96875 1248.144531 970.6875 1248.453125 970.378906 C 1249.773438 969.054688 1250.597656 967.226562 1250.597656 965.207031 C 1250.597656 963.183594 1249.773438 961.355469 1248.453125 960.035156 Z M 998.300781 877.027344 C 997.230469 875.960938 995.949219 875.089844 994.523438 874.503906 C 993.160156 873.9375 991.65625 873.625 990.078125 873.625 C 988.496094 873.625 986.992188 873.9375 985.628906 874.5 L 985.628906 874.503906 C 984.203125 875.09375 982.921875 875.960938 981.851562 877.027344 L 981.847656 877.03125 C 980.777344 878.101562 979.914062 879.382812 979.324219 880.808594 L 979.320312 880.808594 C 978.757812 882.171875 978.441406 883.679688 978.441406 885.257812 C 978.441406 886.835938 978.757812 888.339844 979.324219 889.707031 C 979.910156 891.128906 980.777344 892.414062 981.847656 893.484375 C 982.921875 894.554688 984.203125 895.417969 985.628906 896.007812 C 986.992188 896.574219 988.496094 896.890625 990.078125 896.890625 C 991.65625 896.890625 993.160156 896.574219 994.523438 896.007812 C 995.949219 895.417969 997.230469 894.554688 998.300781 893.484375 C 999.375 892.414062 1000.238281 891.128906 1000.828125 889.707031 C 1001.394531 888.339844 1001.707031 886.835938 1001.707031 885.257812 C 1001.707031 883.679688 1001.394531 882.171875 1000.828125 880.808594 C 1000.238281 879.382812 999.375 878.101562 998.300781 877.027344 Z M 1020.65625 926.457031 C 1021.234375 929 1021.851562 931.5 1022.5 933.929688 C 1023.53125 937.761719 1024.652344 941.421875 1025.894531 944.816406 C 1029.800781 941.6875 1032.9375 941.917969 1033.261719 941.949219 L 1050.011719 941.949219 C 1039.660156 936.511719 1029.457031 931.121094 1020.65625 926.457031 Z M 1219.769531 941.773438 L 1216.148438 899.707031 L 1178.144531 898.421875 L 1177.949219 904.054688 L 1177.933594 904.601562 L 1177.386719 904.582031 L 1072.285156 901.023438 L 1094.675781 911.761719 L 1094.675781 911.757812 C 1094.75 911.789062 1121.082031 923.71875 1140.5 929.195312 C 1159.667969 934.597656 1197.214844 939.996094 1198.28125 940.148438 Z M 1286.242188 1078.621094 L 1287.242188 1079.410156 L 1287.246094 1079.414062 L 1287.277344 1079.429688 L 1287.28125 1079.429688 L 1287.304688 1079.4375 L 1287.3125 1079.449219 L 1287.324219 1079.449219 L 1287.34375 1079.457031 L 1287.351562 1079.464844 L 1287.363281 1079.46875 L 1287.382812 1079.476562 L 1287.386719 1079.476562 L 1287.417969 1079.492188 L 1287.421875 1079.492188 L 1287.441406 1079.5 L 1287.453125 1079.507812 L 1287.464844 1079.511719 L 1287.484375 1079.519531 L 1287.492188 1079.519531 L 1287.507812 1079.527344 L 1287.546875 1079.542969 L 1287.5625 1079.550781 L 1287.566406 1079.550781 L 1287.589844 1079.558594 L 1287.597656 1079.5625 L 1287.609375 1079.566406 L 1287.628906 1079.574219 L 1287.632812 1079.574219 L 1287.671875 1079.585938 L 1287.675781 1079.585938 L 1287.691406 1079.59375 L 1287.710938 1079.601562 L 1287.714844 1079.601562 L 1287.738281 1079.605469 L 1287.746094 1079.609375 L 1287.757812 1079.613281 L 1287.78125 1079.617188 L 1287.785156 1079.621094 L 1287.804688 1079.625 L 1287.820312 1079.632812 L 1287.847656 1079.636719 L 1287.855469 1079.640625 L 1287.867188 1079.644531 L 1287.890625 1079.648438 L 1287.894531 1079.652344 L 1287.910156 1079.652344 L 1287.933594 1079.660156 L 1287.957031 1079.664062 L 1287.972656 1079.667969 L 1287.976562 1079.671875 L 1288 1079.671875 L 1288.007812 1079.675781 L 1288.019531 1079.679688 L 1288.042969 1079.683594 L 1288.046875 1079.683594 L 1288.085938 1079.691406 L 1288.089844 1079.691406 L 1288.113281 1079.695312 L 1288.125 1079.695312 L 1288.136719 1079.699219 L 1288.15625 1079.703125 L 1288.164062 1079.703125 L 1288.179688 1079.707031 L 1288.199219 1079.710938 L 1288.203125 1079.710938 L 1288.226562 1079.714844 L 1288.246094 1079.714844 L 1288.273438 1079.71875 L 1288.28125 1079.71875 L 1288.292969 1079.722656 L 1288.316406 1079.722656 L 1288.320312 1079.726562 L 1288.386719 1079.726562 L 1288.398438 1079.730469 L 1288.40625 1079.730469 L 1288.433594 1079.734375 L 1288.523438 1079.734375 L 1288.546875 1079.738281 L 1288.570312 1079.738281 L 1288.597656 1079.742188 L 1288.640625 1079.742188 C 1289.507812 1079.742188 1290.292969 1079.386719 1290.859375 1078.824219 C 1291.421875 1078.257812 1291.773438 1077.472656 1291.773438 1076.605469 C 1291.773438 1075.738281 1291.421875 1074.953125 1290.859375 1074.386719 C 1290.292969 1073.824219 1289.507812 1073.472656 1288.640625 1073.472656 C 1287.773438 1073.472656 1286.992188 1073.824219 1286.425781 1074.386719 C 1285.859375 1074.953125 1285.507812 1075.738281 1285.507812 1076.605469 L 1285.507812 1076.644531 L 1285.511719 1076.679688 L 1285.511719 1076.804688 L 1285.515625 1076.820312 L 1285.515625 1076.855469 L 1285.519531 1076.882812 L 1285.519531 1076.890625 L 1285.523438 1076.925781 L 1285.527344 1076.957031 L 1285.527344 1076.964844 L 1285.53125 1076.992188 L 1285.53125 1077.003906 L 1285.535156 1077.027344 L 1285.535156 1077.042969 L 1285.546875 1077.101562 L 1285.546875 1077.121094 L 1285.550781 1077.132812 L 1285.554688 1077.160156 L 1285.554688 1077.164062 L 1285.566406 1077.199219 L 1285.574219 1077.238281 L 1285.578125 1077.269531 L 1285.578125 1077.273438 L 1285.585938 1077.304688 L 1285.585938 1077.3125 L 1285.59375 1077.335938 L 1285.597656 1077.351562 L 1285.605469 1077.390625 L 1285.609375 1077.40625 L 1285.617188 1077.425781 L 1285.617188 1077.4375 L 1285.628906 1077.460938 L 1285.628906 1077.472656 L 1285.636719 1077.5 L 1285.636719 1077.503906 L 1285.648438 1077.535156 L 1285.648438 1077.539062 L 1285.660156 1077.570312 L 1285.664062 1077.574219 L 1285.667969 1077.601562 L 1285.671875 1077.613281 L 1285.679688 1077.632812 L 1285.683594 1077.648438 L 1285.691406 1077.664062 L 1285.699219 1077.683594 L 1285.714844 1077.730469 L 1285.726562 1077.753906 L 1285.726562 1077.757812 L 1285.738281 1077.789062 L 1285.742188 1077.792969 L 1285.753906 1077.824219 L 1285.753906 1077.828125 L 1285.765625 1077.855469 L 1285.769531 1077.859375 L 1285.78125 1077.886719 L 1285.796875 1077.917969 L 1285.800781 1077.929688 L 1285.808594 1077.949219 L 1285.816406 1077.964844 L 1285.824219 1077.976562 L 1285.835938 1078 L 1285.839844 1078.003906 L 1285.851562 1078.03125 L 1285.851562 1078.035156 L 1285.871094 1078.066406 L 1285.886719 1078.097656 L 1285.886719 1078.101562 L 1285.902344 1078.125 L 1285.902344 1078.132812 L 1285.917969 1078.15625 L 1285.921875 1078.167969 L 1285.945312 1078.199219 L 1285.949219 1078.214844 L 1285.960938 1078.230469 L 1285.96875 1078.242188 L 1285.980469 1078.261719 L 1285.988281 1078.269531 L 1286.003906 1078.300781 L 1286.042969 1078.355469 L 1286.042969 1078.359375 L 1286.0625 1078.382812 L 1286.066406 1078.390625 L 1286.078125 1078.40625 L 1286.085938 1078.421875 L 1286.109375 1078.453125 L 1286.117188 1078.464844 L 1286.128906 1078.484375 L 1286.140625 1078.488281 L 1286.152344 1078.511719 L 1286.179688 1078.539062 L 1286.179688 1078.542969 L 1286.199219 1078.570312 L 1286.222656 1078.597656 L 1286.222656 1078.601562 Z M 1256.667969 1039.5625 L 1257.15625 1041.738281 C 1259.71875 1053.511719 1268.367188 1063.394531 1278.632812 1072.335938 C 1276.382812 1067.292969 1273.761719 1062.1875 1270.589844 1057.832031 C 1265.917969 1051.410156 1261.285156 1045.347656 1257.316406 1040.367188 Z M 1299.226562 1083.285156 C 1299.792969 1085.558594 1300.171875 1087.664062 1300.273438 1089.460938 C 1302.707031 1091.355469 1305.066406 1093.242188 1307.296875 1095.121094 C 1308.859375 1091.808594 1310.816406 1088.527344 1313.203125 1085.3125 Z M 714.328125 664.882812 L 907.355469 664.882812 C 911.34375 664.882812 914.976562 666.515625 917.605469 669.144531 C 920.222656 671.769531 921.855469 675.378906 921.867188 679.351562 L 961.777344 943.558594 L 961.78125 943.605469 C 961.8125 944.144531 961.832031 944.683594 961.832031 945.207031 C 961.832031 952.722656 958.460938 959.628906 953.273438 964.761719 C 948.089844 969.890625 941.078125 973.265625 933.796875 973.726562 C 933.222656 973.761719 932.648438 973.78125 932.074219 973.78125 L 896.589844 973.78125 L 892.753906 979.183594 C 905.605469 981.730469 929.058594 986.269531 949.277344 989.597656 C 954.113281 985.539062 958.46875 980.042969 960.875 972.84375 C 968.8125 949.148438 968.429688 926.746094 968.039062 904.191406 C 967.910156 896.816406 967.785156 889.421875 967.945312 881.957031 C 968.019531 878.546875 968.808594 875.21875 970.066406 872.300781 C 971.402344 869.207031 973.277344 866.554688 975.394531 864.734375 C 979.074219 861.570312 984.011719 860.164062 988.777344 860.410156 C 993.589844 860.660156 998.261719 862.59375 1001.324219 866.089844 C 1001.890625 866.738281 1002.460938 867.398438 1003.023438 868.09375 C 1004.101562 868.550781 1005.210938 869.039062 1006.363281 869.542969 C 1007.277344 869.945312 1008.1875 870.347656 1009.347656 870.84375 L 1009.367188 870.855469 L 1012.714844 872.457031 L 1059.3125 874.035156 C 1061.421875 870.527344 1063.859375 867.34375 1066.503906 865.464844 C 1070.863281 862.375 1076.03125 860.113281 1081.363281 859.035156 C 1086.421875 858.015625 1091.644531 858.0625 1096.476562 859.460938 C 1100.152344 860.523438 1106.238281 864.078125 1113.3125 868.210938 C 1117.847656 870.863281 1122.804688 873.753906 1127.730469 876.351562 L 1178.285156 878.066406 L 1178.832031 878.085938 L 1178.8125 878.625 L 1178.609375 884.617188 L 1216.160156 885.890625 C 1216.386719 884.578125 1216.710938 883.335938 1217.152344 882.183594 C 1218.820312 877.796875 1222.136719 874.6875 1228.183594 873.691406 L 1228.238281 873.683594 C 1234.253906 872.710938 1238.375 874.589844 1241.359375 878.199219 L 1241.359375 878.203125 C 1244.285156 881.75 1246.078125 886.96875 1247.5 892.765625 L 1266.113281 968.714844 C 1266.195312 969.050781 1266.265625 969.394531 1266.324219 969.730469 C 1266.949219 973.546875 1265.859375 977.28125 1263.664062 980.285156 L 1263.664062 980.28125 C 1261.960938 982.609375 1259.59375 984.511719 1256.851562 985.671875 C 1257.359375 987.855469 1257.457031 990.171875 1256.453125 991.972656 C 1253.628906 997.0625 1252.238281 1001.964844 1251.785156 1006.898438 C 1252.621094 1007.738281 1253.570312 1008.777344 1254.632812 1010.0625 C 1260.089844 1016.671875 1267.308594 1026.21875 1273.75 1035.054688 C 1281.152344 1045.21875 1287.53125 1054.460938 1289.003906 1057.25 C 1290.8125 1060.671875 1293.496094 1066.523438 1295.789062 1072.609375 L 1322.015625 1076.414062 C 1324.222656 1074.722656 1326.652344 1073.066406 1329.15625 1071.5 C 1338.957031 1065.34375 1349.859375 1060.445312 1352.410156 1059.324219 C 1375.21875 1038.183594 1402.703125 1022.605469 1403.382812 1022.21875 L 1422.570312 1008.75 L 1422.652344 1008.691406 C 1422.789062 1008.585938 1422.910156 1008.496094 1423.039062 1008.417969 L 1423.042969 1008.414062 C 1423.679688 1008.035156 1424.03125 1008.09375 1424.554688 1008.957031 L 1425.867188 1011.066406 L 1425.867188 1011.070312 C 1426.222656 1011.648438 1425.839844 1012.453125 1425.609375 1012.933594 L 1425.613281 1012.933594 L 1425.570312 1013.019531 L 1425.570312 1013.023438 L 1424.285156 1015.6875 C 1419.980469 1024.597656 1418.449219 1027.757812 1418.210938 1043.34375 C 1418.132812 1048.796875 1418.328125 1053.34375 1418.625 1056.976562 C 1419.183594 1063.761719 1420.089844 1067.300781 1420.199219 1067.714844 L 1458.097656 1174.679688 L 1458.578125 1174.207031 L 1459.183594 1173.613281 L 1459.472656 1174.410156 L 1468.53125 1199.410156 L 1468.863281 1200.324219 L 1467.910156 1200.128906 L 1439.375 1194.273438 L 1438.375 1194.066406 L 1439.101562 1193.351562 L 1439.835938 1192.632812 C 1424.085938 1189.332031 1403.625 1184.890625 1386.105469 1180.5625 C 1373.238281 1177.382812 1361.941406 1174.261719 1355.226562 1171.691406 C 1344.101562 1169.808594 1334.109375 1165.441406 1325.902344 1159.386719 C 1313.371094 1155.789062 1301.710938 1150.347656 1290.929688 1143.460938 C 1279.121094 1135.921875 1268.355469 1126.632812 1258.628906 1116.121094 C 1247.933594 1104.558594 1238.6875 1091.300781 1229.90625 1077.949219 C 1221.921875 1022.375 1175.453125 979.222656 1118.367188 976.390625 C 1116.550781 975.558594 1114.851562 974.78125 1113.292969 974.078125 C 1110.714844 972.90625 1108.53125 971.914062 1106.742188 971.054688 C 1099.269531 967.46875 1087.324219 961.382812 1073.960938 954.453125 C 1069.445312 954.863281 1064.457031 955.347656 1060.027344 955.777344 C 1056.804688 956.089844 1053.859375 956.378906 1051.5625 956.589844 C 1047.074219 957.003906 1042.75 959.640625 1039.007812 962.925781 C 1041.535156 963.660156 1044.804688 964.234375 1048.414062 964.867188 C 1060 966.902344 1074.980469 969.535156 1081.105469 980.226562 L 1081.125 980.253906 L 1081.488281 980.867188 L 1080.800781 981.058594 C 1055.539062 988.046875 1033.667969 1003.210938 1018.230469 1023.519531 C 1003.140625 1043.363281 994.1875 1068.128906 994.1875 1094.988281 C 994.1875 1100.488281 994.5625 1105.90625 995.289062 1111.199219 C 996.03125 1116.601562 997.140625 1121.890625 998.585938 1127.035156 L 998.785156 1127.734375 L 998.058594 1127.726562 L 976.359375 1127.480469 L 865.050781 1127.480469 L 865.050781 1130.855469 L 783.710938 1130.855469 L 783.613281 1130.429688 L 779.375 1112.019531 L 751.398438 1112.019531 L 751.484375 1111.402344 C 751.859375 1108.703125 752.144531 1105.976562 752.332031 1103.222656 C 752.519531 1100.503906 752.617188 1097.757812 752.617188 1094.988281 C 752.617188 1073.835938 747.058594 1053.984375 737.332031 1036.808594 C 727.246094 1019.015625 712.675781 1004.085938 695.15625 993.570312 L 695.058594 993.511719 L 694.886719 993.410156 L 694.882812 993.410156 L 694.75 993.332031 L 693.890625 992.824219 L 693.890625 992.828125 L 693.019531 992.324219 L 692.9375 992.273438 L 692.332031 991.929688 L 692.242188 991.882812 L 692.0625 991.78125 L 691.976562 991.734375 L 690.746094 991.058594 L 689.511719 990.394531 L 689.425781 990.347656 L 689.335938 990.300781 L 689.160156 990.207031 L 688.863281 990.054688 C 680.648438 985.777344 671.855469 982.433594 662.644531 980.179688 C 653.605469 977.964844 644.152344 976.785156 634.417969 976.785156 L 634.238281 976.789062 L 634.226562 976.789062 L 634.046875 976.785156 C 610.683594 976.785156 588.902344 983.566406 570.570312 995.265625 C 551.632812 1007.34375 536.367188 1024.671875 526.820312 1045.199219 L 526.332031 1046.265625 L 526.335938 1046.265625 L 525.851562 1047.34375 L 525.539062 1048.054688 L 525.117188 1049.039062 L 524.710938 1050.027344 L 524.707031 1050.027344 L 524.625 1050.226562 L 524.628906 1050.226562 L 524.328125 1050.957031 L 523.753906 1052.414062 L 523.757812 1052.414062 L 523.472656 1053.152344 L 523.371094 1053.421875 L 523.054688 1054.277344 L 522.746094 1055.125 L 522.324219 1056.328125 L 521.808594 1057.84375 L 521.347656 1059.265625 L 520.96875 1060.480469 L 520.507812 1062.042969 L 520.195312 1063.148438 L 520.191406 1063.148438 L 519.945312 1064.042969 L 519.703125 1064.949219 L 519.464844 1065.875 L 519.203125 1066.921875 L 519.207031 1066.921875 L 518.953125 1067.984375 L 518.808594 1068.597656 L 518.5625 1069.707031 L 518.320312 1070.832031 L 518.1875 1071.5 L 517.953125 1072.695312 L 517.949219 1072.695312 L 517.726562 1073.882812 L 517.652344 1074.3125 L 517.445312 1075.523438 L 517.441406 1075.523438 L 517.25 1076.730469 L 517.253906 1076.730469 L 517.175781 1077.246094 C 517.039062 1078.132812 516.921875 1078.984375 516.816406 1079.789062 L 516.78125 1080.0625 L 516.617188 1081.441406 L 516.46875 1082.820312 L 516.449219 1083 L 516.316406 1084.410156 L 516.199219 1085.839844 L 516.191406 1085.9375 L 516.191406 1085.941406 L 516.085938 1087.410156 L 516.003906 1088.882812 L 516 1088.929688 L 515.933594 1090.410156 L 515.886719 1091.902344 L 515.886719 1091.976562 L 515.859375 1093.480469 L 515.847656 1094.988281 C 515.847656 1095.730469 515.859375 1096.425781 515.871094 1097.082031 C 515.882812 1097.765625 515.90625 1098.46875 515.929688 1099.171875 L 515.964844 1100.105469 L 515.132812 1099.671875 L 514.691406 1099.441406 L 514.6875 1099.441406 L 514.417969 1099.300781 L 514.230469 1099.203125 L 514.226562 1099.199219 L 513.746094 1098.945312 L 513.648438 1098.890625 L 513.246094 1098.6875 L 512.839844 1098.46875 L 512.730469 1098.414062 L 512.726562 1098.414062 L 512.191406 1098.132812 L 511.972656 1098.015625 L 511.636719 1097.84375 L 511.066406 1097.546875 L 510.480469 1097.234375 L 510.125 1097.046875 L 509.878906 1096.917969 L 509.265625 1096.597656 L 509.136719 1096.535156 L 509.136719 1096.53125 L 508.625 1096.265625 L 508.113281 1095.992188 L 507.980469 1095.921875 L 507.316406 1095.574219 L 507.050781 1095.4375 L 506.640625 1095.222656 L 505.949219 1094.859375 L 505.878906 1094.820312 L 505.875 1094.816406 L 505.25 1094.488281 L 504.824219 1094.261719 L 504.535156 1094.109375 L 503.804688 1093.726562 L 503.800781 1093.726562 L 503.660156 1093.648438 L 502.472656 1093.023438 L 502.46875 1093.019531 L 502.316406 1092.9375 L 501.558594 1092.539062 L 501.253906 1092.378906 L 500.785156 1092.132812 L 500.007812 1091.71875 L 499.929688 1091.683594 L 499.929688 1091.679688 L 499.214844 1091.300781 L 498.734375 1091.046875 L 498.414062 1090.875 L 497.609375 1090.449219 L 497.449219 1090.367188 L 496.789062 1090.015625 L 496.136719 1089.667969 L 495.964844 1089.578125 L 495.132812 1089.136719 L 494.800781 1088.960938 L 494.292969 1088.691406 L 493.453125 1088.246094 L 493.453125 1088.242188 L 493.449219 1088.242188 L 492.597656 1087.785156 L 492.089844 1087.515625 L 491.746094 1087.335938 L 491.742188 1087.332031 L 490.882812 1086.871094 L 490.714844 1086.785156 L 490.710938 1086.78125 L 490.015625 1086.40625 L 489.320312 1086.039062 L 489.144531 1085.945312 L 488.269531 1085.476562 L 487.921875 1085.292969 L 487.390625 1085.007812 L 486.550781 1084.554688 L 486.511719 1084.535156 L 485.628906 1084.058594 L 485.101562 1083.777344 L 484.742188 1083.582031 L 483.855469 1083.105469 L 483.683594 1083.011719 L 482.96875 1082.628906 L 482.261719 1082.246094 L 482.082031 1082.148438 L 481.191406 1081.667969 L 481.1875 1081.667969 L 480.839844 1081.476562 L 480.300781 1081.191406 L 479.417969 1080.710938 L 479.386719 1080.695312 L 479.371094 1080.683594 L 479.367188 1080.683594 L 478.527344 1080.226562 L 477.996094 1079.941406 L 477.636719 1079.746094 L 476.753906 1079.265625 L 476.582031 1079.171875 L 476.582031 1079.167969 L 475.871094 1078.78125 L 475.171875 1078.402344 L 475.171875 1078.40625 L 474.992188 1078.308594 L 474.988281 1078.304688 L 474.113281 1077.828125 L 473.769531 1077.636719 L 473.242188 1077.347656 L 473.238281 1077.347656 L 472.375 1076.875 L 472.335938 1076.851562 L 472.332031 1076.847656 L 471.507812 1076.398438 L 470.996094 1076.117188 L 470.648438 1075.925781 L 469.792969 1075.457031 L 469.628906 1075.363281 L 468.945312 1074.988281 L 468.277344 1074.621094 L 468.273438 1074.621094 L 468.101562 1074.519531 L 467.265625 1074.058594 L 466.9375 1073.878906 L 466.4375 1073.601562 L 465.742188 1073.210938 L 444.265625 1073.210938 C 433.746094 1073.210938 424.179688 1068.90625 417.246094 1061.972656 C 410.3125 1055.039062 406.007812 1045.472656 406.007812 1034.953125 L 406.007812 1011.136719 C 406.007812 1007.875 407.34375 1004.910156 409.492188 1002.761719 C 411.640625 1000.613281 414.605469 999.277344 417.867188 999.277344 L 437.667969 999.277344 C 437.707031 998.300781 441.015625 910.535156 442.21875 895.597656 C 442.246094 895.222656 442.289062 894.832031 442.324219 894.46875 C 442.355469 894.152344 442.386719 893.894531 442.417969 893.710938 C 443.566406 886.695312 446.191406 880.554688 450.085938 875.429688 C 454.039062 870.230469 459.304688 866.074219 465.675781 863.117188 L 465.679688 863.113281 L 465.941406 862.996094 L 465.949219 862.992188 L 466.226562 862.871094 L 466.234375 862.871094 L 466.523438 862.753906 L 466.535156 862.75 L 466.804688 862.644531 L 466.804688 862.632812 L 467.167969 862.503906 L 467.382812 862.429688 L 467.382812 862.425781 L 467.449219 862.402344 L 467.496094 862.382812 L 467.503906 862.382812 L 467.726562 862.308594 L 467.730469 862.304688 L 467.851562 862.265625 L 468.085938 862.183594 L 468.089844 862.183594 L 468.214844 862.144531 L 468.582031 862.027344 L 468.585938 862.023438 C 486.304688 856.519531 531.269531 852.90625 556.605469 850.875 L 559.40625 850.648438 L 559.40625 827.363281 L 554.914062 827.363281 L 554.914062 819.160156 L 580.453125 819.160156 L 580.453125 827.363281 L 575.960938 827.363281 L 575.960938 849.371094 L 580.703125 849.015625 L 580.707031 849.015625 L 583.226562 848.832031 L 585.75 848.652344 L 588.265625 848.46875 L 590.785156 848.292969 L 593.296875 848.117188 L 594.199219 848.054688 L 594.203125 848.054688 L 595.808594 847.941406 L 598.308594 847.769531 L 600.804688 847.601562 L 603.289062 847.429688 L 604.34375 847.359375 L 605.769531 847.265625 L 608.238281 847.101562 L 609.359375 847.027344 L 610.695312 846.9375 L 613.140625 846.78125 L 614.332031 846.699219 L 614.839844 846.664062 L 614.839844 747.734375 C 614.839844 746.957031 614.847656 746.863281 614.859375 746.726562 C 614.867188 746.605469 614.882812 746.425781 614.898438 745.285156 L 614.894531 745.285156 L 614.894531 745.273438 L 614.898438 745.265625 C 614.96875 739.121094 615.074219 729.902344 610.769531 726.917969 L 597.058594 717.40625 L 596.824219 717.242188 L 596.824219 695.496094 L 596.921875 695.351562 L 597.257812 694.878906 L 597.570312 694.433594 L 598.011719 694.742188 L 598.875 695.34375 C 602.246094 697.691406 614.464844 706.195312 621.640625 711.171875 C 627.988281 715.574219 631.121094 721.636719 632.644531 727.878906 C 634.09375 733.824219 634.082031 739.910156 634.023438 744.878906 C 634.042969 745.144531 634.042969 745.410156 634.023438 745.652344 C 634.03125 746.265625 634.035156 746.957031 634.035156 747.734375 L 634.035156 845.460938 L 634.441406 845.4375 L 636.710938 845.300781 L 638.167969 845.210938 L 638.957031 845.164062 L 641.179688 845.03125 L 643.375 844.902344 L 645.542969 844.769531 L 645.546875 844.769531 L 649.800781 844.523438 L 651.351562 844.433594 L 651.886719 844.402344 L 653.941406 844.285156 C 662.8125 843.777344 670.824219 843.335938 677.5625 842.976562 C 688.847656 842.378906 696.519531 842 698.722656 841.894531 L 706.242188 679.375 L 706.242188 672.96875 L 706.238281 672.96875 C 706.238281 670.75 707.148438 668.726562 708.613281 667.257812 L 708.617188 667.257812 C 710.082031 665.792969 712.105469 664.882812 714.328125 664.882812 Z M 1420.199219 1067.714844 L 1420.199219 1067.714844 " fill-opacity="1" fill-rule="evenodd"/></g></svg>